STARTFONT 2.1
FONT -FontForge-Roboto-Book-I-Normal--20-200-72-72-P-109-ISO10646-1
SIZE 20 72 72
FONTBOUNDINGBOX 37 27 -14 -6
COMMENT "Generated by fontforge, http://fontforge.sourceforge.net"
COMMENT "Copyright 2011 Google Inc. All Rights Reserved."
STARTPROPERTIES 42
FOUNDRY "FontForge"
FAMILY_NAME "Roboto"
WEIGHT_NAME "Book"
SLANT "I"
SETWIDTH_NAME "Normal"
ADD_STYLE_NAME ""
PIXEL_SIZE 20
POINT_SIZE 200
RESOLUTION_X 72
RESOLUTION_Y 72
SPACING "P"
AVERAGE_WIDTH 109
CHARSET_REGISTRY "ISO10646"
CHARSET_ENCODING "1"
FONTNAME_REGISTRY ""
CHARSET_COLLECTIONS "ISO8859-2 ISO8859-5 ISO8859-7 ISO8859-9 ISO8859-4 ISO10646-1"
FONT_NAME "Roboto-Italic"
FACE_NAME "Roboto Italic"
COPYRIGHT "Copyright 2011 Google Inc. All Rights Reserved."
FONT_VERSION "2.137; 2017"
FONT_ASCENT 15
FONT_DESCENT 5
UNDERLINE_POSITION -2
UNDERLINE_THICKNESS 1
X_HEIGHT 10
CAP_HEIGHT 13
DEFAULT_CHAR 1
RAW_ASCENT 750
RAW_DESCENT 250
ITALIC_ANGLE 4992
NORM_SPACE 5
RELATIVE_WEIGHT 40
RELATIVE_SETWIDTH 50
SUPERSCRIPT_X 0
SUPERSCRIPT_Y 9
SUPERSCRIPT_SIZE 12
SUBSCRIPT_X 0
SUBSCRIPT_Y 2
SUBSCRIPT_SIZE 12
FIGURE_WIDTH 11
AVG_LOWERCASE_WIDTH 107
AVG_UPPERCASE_WIDTH 128
ENDPROPERTIES
CHARS 1296
STARTCHAR glyph1.dup1
ENCODING 0
SWIDTH 0 0
DWIDTH 0 0
BBX 1 1 0 0
BITMAP
00
ENDCHAR
STARTCHAR uni0002
ENCODING 2
SWIDTH 0 0
DWIDTH 0 0
BBX 1 1 0 0
BITMAP
00
ENDCHAR
STARTCHAR uni000D
ENCODING 13
SWIDTH 245 0
DWIDTH 5 0
BBX 1 1 0 0
BITMAP
00
ENDCHAR
STARTCHAR space
ENCODING 32
SWIDTH 245 0
DWIDTH 5 0
BBX 1 1 0 0
BITMAP
00
ENDCHAR
STARTCHAR exclam
ENCODING 33
SWIDTH 254 0
DWIDTH 5 0
BBX 4 14 1 0
BITMAP
30
30
20
60
60
60
60
40
40
C0
00
00
C0
C0
ENDCHAR
STARTCHAR quotedbl
ENCODING 34
SWIDTH 314 0
DWIDTH 6 0
BBX 5 5 2 10
BITMAP
58
D0
D0
90
90
ENDCHAR
STARTCHAR numbersign
ENCODING 35
SWIDTH 602 0
DWIDTH 12 0
BBX 11 14 1 0
BITMAP
0260
0440
04C0
7FE0
0980
1980
1100
1100
FFC0
2200
2600
6600
4400
4C00
ENDCHAR
STARTCHAR dollar
ENCODING 36
SWIDTH 549 0
DWIDTH 11 0
BBX 9 18 1 -2
BITMAP
0200
0600
0F00
3F80
3180
6080
6080
3000
3E00
0F00
0300
0180
C180
C300
FF00
7C00
1000
1000
ENDCHAR
STARTCHAR percent
ENCODING 37
SWIDTH 715 0
DWIDTH 14 0
BBX 11 14 2 0
BITMAP
7000
C840
8880
8980
8B00
9A00
7400
0DC0
1A60
1660
2460
6460
C640
0380
ENDCHAR
STARTCHAR ampersand
ENCODING 38
SWIDTH 607 0
DWIDTH 12 0
BBX 10 14 1 0
BITMAP
0E00
3F00
3180
3180
3300
3E00
1800
7C00
CCC0
C6C0
8380
C300
FF80
7CC0
ENDCHAR
STARTCHAR quotesingle
ENCODING 39
SWIDTH 173 0
DWIDTH 3 0
BBX 2 5 2 10
BITMAP
C0
C0
80
80
80
ENDCHAR
STARTCHAR parenleft
ENCODING 40
SWIDTH 336 0
DWIDTH 7 0
BBX 7 21 1 -5
BITMAP
02
06
08
18
30
30
60
60
60
40
C0
C0
C0
C0
C0
C0
40
60
60
30
10
ENDCHAR
STARTCHAR parenright
ENCODING 41
SWIDTH 342 0
DWIDTH 7 0
BBX 7 21 -1 -5
BITMAP
10
18
08
0C
04
04
04
06
06
06
04
0C
0C
0C
08
18
18
30
60
C0
80
ENDCHAR
STARTCHAR asterisk
ENCODING 42
SWIDTH 422 0
DWIDTH 8 0
BBX 8 8 1 6
BITMAP
08
08
89
FF
18
28
6C
C4
ENDCHAR
STARTCHAR plus
ENCODING 43
SWIDTH 554 0
DWIDTH 11 0
BBX 10 11 1 1
BITMAP
0C00
0C00
0C00
0C00
FFC0
FF80
0800
1800
1800
1800
1800
ENDCHAR
STARTCHAR comma
ENCODING 44
SWIDTH 195 0
DWIDTH 4 0
BBX 3 5 -1 -3
BITMAP
60
60
60
C0
80
ENDCHAR
STARTCHAR hyphen
ENCODING 45
SWIDTH 272 0
DWIDTH 5 0
BBX 5 2 0 5
BITMAP
F8
F8
ENDCHAR
STARTCHAR period
ENCODING 46
SWIDTH 260 0
DWIDTH 5 0
BBX 3 2 0 0
BITMAP
40
E0
ENDCHAR
STARTCHAR slash
ENCODING 47
SWIDTH 404 0
DWIDTH 8 0
BBX 10 15 -1 -1
BITMAP
00C0
0180
0180
0300
0200
0600
0400
0C00
0800
1800
3000
2000
6000
4000
C000
ENDCHAR
STARTCHAR zero
ENCODING 48
SWIDTH 549 0
DWIDTH 11 0
BBX 9 14 1 0
BITMAP
1F00
3F80
3180
6080
6080
4080
C180
C180
C180
C180
C300
C700
7E00
3C00
ENDCHAR
STARTCHAR one
ENCODING 49
SWIDTH 549 0
DWIDTH 11 0
BBX 6 14 2 0
BITMAP
04
3C
7C
4C
8C
08
18
18
18
18
18
10
30
30
ENDCHAR
STARTCHAR two
ENCODING 50
SWIDTH 549 0
DWIDTH 11 0
BBX 10 14 0 0
BITMAP
0F80
1FC0
38C0
30C0
00C0
0080
0180
0300
0E00
1800
3000
6000
FFC0
FF80
ENDCHAR
STARTCHAR three
ENCODING 51
SWIDTH 549 0
DWIDTH 11 0
BBX 9 14 1 0
BITMAP
1F00
3F80
7180
6180
0180
0380
1E00
1E00
0300
0100
8300
C300
FE00
7C00
ENDCHAR
STARTCHAR four
ENCODING 52
SWIDTH 549 0
DWIDTH 11 0
BBX 10 14 0 0
BITMAP
00C0
01C0
03C0
0680
0D80
0980
1180
3180
6100
FFC0
FFC0
0300
0300
0300
ENDCHAR
STARTCHAR five
ENCODING 53
SWIDTH 549 0
DWIDTH 11 0
BBX 10 14 1 0
BITMAP
1FC0
1FC0
3000
3000
2000
2E00
7F00
6380
0180
0180
C180
C300
7F00
3C00
ENDCHAR
STARTCHAR six
ENCODING 54
SWIDTH 549 0
DWIDTH 11 0
BBX 9 14 1 0
BITMAP
0700
0F00
3800
3000
6000
7E00
7F00
E380
C180
C180
C180
E300
7E00
3C00
ENDCHAR
STARTCHAR seven
ENCODING 55
SWIDTH 549 0
DWIDTH 11 0
BBX 9 14 2 0
BITMAP
FF80
FF80
0180
0300
0200
0600
0C00
0800
1800
3000
3000
6000
C000
C000
ENDCHAR
STARTCHAR eight
ENCODING 56
SWIDTH 549 0
DWIDTH 11 0
BBX 9 14 1 0
BITMAP
0F00
3F80
3180
6080
6180
2180
3F00
3E00
E300
C180
C180
C300
FF00
7C00
ENDCHAR
STARTCHAR nine
ENCODING 57
SWIDTH 549 0
DWIDTH 11 0
BBX 8 14 2 0
BITMAP
3C
7E
E3
C3
83
83
C7
FF
7B
06
0E
1C
F8
E0
ENDCHAR
STARTCHAR colon
ENCODING 58
SWIDTH 239 0
DWIDTH 5 0
BBX 4 11 0 0
BITMAP
30
30
00
00
00
00
00
00
00
C0
C0
ENDCHAR
STARTCHAR semicolon
ENCODING 59
SWIDTH 209 0
DWIDTH 4 0
BBX 5 14 -1 -3
BITMAP
18
18
00
00
00
00
00
00
00
20
60
60
40
C0
ENDCHAR
STARTCHAR less
ENCODING 60
SWIDTH 498 0
DWIDTH 10 0
BBX 8 9 1 2
BITMAP
01
07
1E
F0
C0
F0
3C
0E
02
ENDCHAR
STARTCHAR equal
ENCODING 61
SWIDTH 537 0
DWIDTH 11 0
BBX 9 6 1 3
BITMAP
7F80
7F80
0000
0000
FF00
FF00
ENDCHAR
STARTCHAR greater
ENCODING 62
SWIDTH 511 0
DWIDTH 10 0
BBX 9 9 1 2
BITMAP
4000
7000
3C00
0700
0380
0F00
7800
E000
8000
ENDCHAR
STARTCHAR question
ENCODING 63
SWIDTH 462 0
DWIDTH 9 0
BBX 8 14 1 0
BITMAP
1E
7F
63
C3
03
06
0C
18
30
30
00
00
60
60
ENDCHAR
STARTCHAR at
ENCODING 64
SWIDTH 875 0
DWIDTH 18 0
BBX 16 18 1 -4
BITMAP
01F0
07FC
0E0E
1802
31E2
63F3
4721
4623
CC23
8C62
8C42
8CC6
8FFC
C778
4000
7080
3FC0
1F00
ENDCHAR
STARTCHAR A
ENCODING 65
SWIDTH 637 0
DWIDTH 13 0
BBX 12 14 -1 0
BITMAP
00C0
01C0
01C0
0340
0640
0660
0C60
0C60
1820
1FE0
3FF0
3030
6030
C030
ENDCHAR
STARTCHAR B
ENCODING 66
SWIDTH 608 0
DWIDTH 12 0
BBX 11 14 0 0
BITMAP
1FC0
1FE0
1060
3020
3060
30E0
3FC0
3FC0
60C0
6060
6060
60C0
7FC0
FF00
ENDCHAR
STARTCHAR C
ENCODING 67
SWIDTH 636 0
DWIDTH 13 0
BBX 12 14 1 0
BITMAP
0780
1FE0
3860
7020
6030
6000
4000
C000
C000
C060
C0C0
61C0
7F80
1E00
ENDCHAR
STARTCHAR D
ENCODING 68
SWIDTH 641 0
DWIDTH 13 0
BBX 11 14 1 0
BITMAP
3F00
3FC0
30C0
2060
6060
6060
6060
6060
4060
C0C0
C1C0
C380
FF00
FC00
ENDCHAR
STARTCHAR E
ENCODING 69
SWIDTH 556 0
DWIDTH 11 0
BBX 11 14 1 0
BITMAP
3FE0
3FE0
3000
6000
6000
6000
7F80
7F80
4000
C000
C000
C000
FF80
FF00
ENDCHAR
STARTCHAR F
ENCODING 70
SWIDTH 541 0
DWIDTH 11 0
BBX 11 14 1 0
BITMAP
3FE0
3FC0
3000
6000
6000
6000
7F80
7F00
4000
C000
C000
C000
C000
8000
ENDCHAR
STARTCHAR G
ENCODING 71
SWIDTH 665 0
DWIDTH 13 0
BBX 11 14 1 0
BITMAP
0F80
1FC0
3860
6060
6000
4000
C3E0
C3E0
C060
C0C0
C0C0
61C0
7F80
1F00
ENDCHAR
STARTCHAR H
ENCODING 72
SWIDTH 696 0
DWIDTH 14 0
BBX 13 14 1 0
BITMAP
3018
3010
2030
6030
6030
6030
7FF0
7FE0
4060
C060
C060
C060
C040
C0C0
ENDCHAR
STARTCHAR I
ENCODING 73
SWIDTH 268 0
DWIDTH 5 0
BBX 4 14 1 0
BITMAP
30
30
30
20
60
60
60
60
60
40
C0
C0
C0
C0
ENDCHAR
STARTCHAR J
ENCODING 74
SWIDTH 540 0
DWIDTH 11 0
BBX 11 14 0 0
BITMAP
0060
0040
00C0
00C0
00C0
00C0
00C0
0080
0180
0180
C180
E300
7F00
3C00
ENDCHAR
STARTCHAR K
ENCODING 75
SWIDTH 612 0
DWIDTH 12 0
BBX 12 14 1 0
BITMAP
3070
30E0
21C0
6380
6700
6C00
7C00
7400
6600
C300
C300
C180
C180
80C0
ENDCHAR
STARTCHAR L
ENCODING 76
SWIDTH 526 0
DWIDTH 11 0
BBX 8 14 1 0
BITMAP
30
30
20
60
60
60
60
60
40
C0
C0
C0
FF
FF
ENDCHAR
STARTCHAR M
ENCODING 77
SWIDTH 851 0
DWIDTH 17 0
BBX 16 14 1 0
BITMAP
3007
3807
380E
781E
681E
6C36
6C36
6C64
444C
C4CC
C78C
C78C
C70C
8218
ENDCHAR
STARTCHAR N
ENCODING 78
SWIDTH 696 0
DWIDTH 14 0
BBX 13 14 1 0
BITMAP
3018
3810
3830
6C30
6C30
6C30
6630
6620
4360
C360
C1E0
C1E0
C0C0
C0C0
ENDCHAR
STARTCHAR O
ENCODING 79
SWIDTH 671 0
DWIDTH 13 0
BBX 11 14 1 0
BITMAP
0F80
1FC0
38E0
6060
6020
C020
C060
C060
C060
C060
C0C0
61C0
7F80
3E00
ENDCHAR
STARTCHAR P
ENCODING 80
SWIDTH 616 0
DWIDTH 12 0
BBX 12 14 0 0
BITMAP
1FC0
1FE0
3070
3030
3030
3030
3060
3FE0
7F80
6000
6000
6000
6000
C000
ENDCHAR
STARTCHAR Q
ENCODING 81
SWIDTH 671 0
DWIDTH 13 0
BBX 11 16 1 -2
BITMAP
0F80
1FC0
30E0
6060
6060
C060
C060
C060
C060
C060
C0C0
E180
7F80
3F00
0180
00C0
ENDCHAR
STARTCHAR R
ENCODING 82
SWIDTH 602 0
DWIDTH 12 0
BBX 11 14 1 0
BITMAP
3F80
3FC0
30C0
6060
6060
60E0
61C0
7F80
7F00
C300
C300
C180
C180
81C0
ENDCHAR
STARTCHAR S
ENCODING 83
SWIDTH 580 0
DWIDTH 12 0
BBX 11 14 1 0
BITMAP
0F80
3FC0
30C0
6060
6000
3000
1E00
0F80
0180
00C0
C0C0
C180
7F80
3E00
ENDCHAR
STARTCHAR T
ENCODING 84
SWIDTH 583 0
DWIDTH 12 0
BBX 11 14 2 0
BITMAP
FFE0
FFC0
0C00
0C00
0800
1800
1800
1800
1800
1800
1000
3000
3000
3000
ENDCHAR
STARTCHAR U
ENCODING 85
SWIDTH 633 0
DWIDTH 13 0
BBX 12 14 1 0
BITMAP
3030
3030
2030
6020
6060
6060
6060
4060
4060
C0C0
C0C0
61C0
7F80
3E00
ENDCHAR
STARTCHAR V
ENCODING 86
SWIDTH 622 0
DWIDTH 12 0
BBX 12 14 1 0
BITMAP
C030
6060
6060
60C0
60C0
2180
2180
3300
3300
3600
1600
1C00
1C00
1800
ENDCHAR
STARTCHAR W
ENCODING 87
SWIDTH 865 0
DWIDTH 17 0
BBX 16 14 2 0
BITMAP
C183
C183
C386
C286
C684
C48C
CCCC
4CD8
48D8
58D0
50F0
7070
6060
6060
ENDCHAR
STARTCHAR X
ENCODING 88
SWIDTH 612 0
DWIDTH 12 0
BBX 13 14 0 0
BITMAP
3038
1830
1860
0CC0
0D80
0580
0700
0700
0F00
1980
3180
30C0
60C0
C0E0
ENDCHAR
STARTCHAR Y
ENCODING 89
SWIDTH 587 0
DWIDTH 12 0
BBX 11 14 2 0
BITMAP
C0E0
C0C0
4180
6300
6300
2600
3C00
3C00
1800
1000
3000
3000
3000
3000
ENDCHAR
STARTCHAR Z
ENCODING 90
SWIDTH 585 0
DWIDTH 12 0
BBX 12 14 0 0
BITMAP
3FF0
3FF0
0060
00C0
0180
0300
0600
0E00
1C00
3800
3000
6000
FFC0
FFC0
ENDCHAR
STARTCHAR bracketleft
ENCODING 91
SWIDTH 262 0
DWIDTH 5 0
BBX 7 19 0 -3
BITMAP
1E
1C
10
30
30
30
30
30
20
60
60
60
60
60
40
40
C0
F0
F0
ENDCHAR
STARTCHAR backslash
ENCODING 92
SWIDTH 402 0
DWIDTH 8 0
BBX 5 15 2 -1
BITMAP
C0
C0
C0
40
40
60
60
60
20
20
30
30
30
10
18
ENDCHAR
STARTCHAR bracketright
ENCODING 93
SWIDTH 262 0
DWIDTH 5 0
BBX 6 19 -1 -3
BITMAP
1C
1C
2C
0C
0C
08
08
18
18
18
18
10
10
30
30
30
30
F0
E0
ENDCHAR
STARTCHAR asciicircum
ENCODING 94
SWIDTH 410 0
DWIDTH 8 0
BBX 7 7 1 7
BITMAP
18
18
38
2C
6C
C4
C6
ENDCHAR
STARTCHAR underscore
ENCODING 95
SWIDTH 442 0
DWIDTH 9 0
BBX 9 2 -1 -2
BITMAP
FF80
FF80
ENDCHAR
STARTCHAR grave
ENCODING 96
SWIDTH 304 0
DWIDTH 6 0
BBX 3 3 2 12
BITMAP
C0
60
20
ENDCHAR
STARTCHAR a
ENCODING 97
SWIDTH 532 0
DWIDTH 11 0
BBX 9 11 1 0
BITMAP
1E00
7F00
6100
0180
3F00
7F00
C300
C300
C700
FF00
7B00
ENDCHAR
STARTCHAR b
ENCODING 98
SWIDTH 549 0
DWIDTH 11 0
BBX 10 15 0 0
BITMAP
1800
1000
3000
3000
3700
3F80
30C0
20C0
60C0
60C0
60C0
6180
6180
7F00
DE00
ENDCHAR
STARTCHAR c
ENCODING 99
SWIDTH 512 0
DWIDTH 10 0
BBX 9 11 1 0
BITMAP
1E00
7F00
6300
C180
C000
8000
8000
C300
C700
7E00
3C00
ENDCHAR
STARTCHAR d
ENCODING 100
SWIDTH 551 0
DWIDTH 11 0
BBX 10 15 1 0
BITMAP
00C0
00C0
00C0
00C0
1D80
7F80
6380
C180
C180
C100
8300
C300
C700
FF00
7B00
ENDCHAR
STARTCHAR e
ENCODING 101
SWIDTH 518 0
DWIDTH 10 0
BBX 8 11 1 0
BITMAP
1E
7F
63
C1
FF
FF
80
C0
C2
7F
3C
ENDCHAR
STARTCHAR f
ENCODING 102
SWIDTH 341 0
DWIDTH 7 0
BBX 7 15 1 0
BITMAP
0E
1E
38
30
FC
FC
30
20
60
60
60
60
40
40
C0
ENDCHAR
STARTCHAR g
ENCODING 103
SWIDTH 549 0
DWIDTH 11 0
BBX 10 15 0 -4
BITMAP
0E40
3FC0
31C0
60C0
60C0
6080
6180
6180
6380
7F80
3D80
0300
4300
FE00
3C00
ENDCHAR
STARTCHAR h
ENCODING 104
SWIDTH 539 0
DWIDTH 11 0
BBX 10 15 0 0
BITMAP
1800
1000
1000
3000
3780
3F80
38C0
30C0
20C0
6080
6180
6180
6180
4180
C180
ENDCHAR
STARTCHAR i
ENCODING 105
SWIDTH 240 0
DWIDTH 5 0
BBX 5 15 0 0
BITMAP
18
18
00
00
30
30
30
20
20
60
60
60
60
40
C0
ENDCHAR
STARTCHAR j
ENCODING 106
SWIDTH 236 0
DWIDTH 5 0
BBX 7 19 -2 -4
BITMAP
04
0E
00
00
0C
0C
0C
08
18
18
18
18
18
10
30
30
30
E0
E0
ENDCHAR
STARTCHAR k
ENCODING 107
SWIDTH 496 0
DWIDTH 10 0
BBX 10 15 0 0
BITMAP
1800
1000
3000
3000
31C0
3380
3700
2E00
6C00
7C00
6400
6600
4200
4300
C180
ENDCHAR
STARTCHAR l
ENCODING 108
SWIDTH 240 0
DWIDTH 5 0
BBX 5 15 0 0
BITMAP
18
18
10
30
30
30
30
30
20
60
60
60
60
40
C0
ENDCHAR
STARTCHAR m
ENCODING 109
SWIDTH 854 0
DWIDTH 17 0
BBX 16 11 0 0
BITMAP
371E
3FBE
31E3
60C3
6083
6183
6182
6186
4186
C186
C106
ENDCHAR
STARTCHAR n
ENCODING 110
SWIDTH 540 0
DWIDTH 11 0
BBX 10 11 0 0
BITMAP
3780
3F80
38C0
30C0
60C0
6080
6180
6180
6180
4180
C180
ENDCHAR
STARTCHAR o
ENCODING 111
SWIDTH 558 0
DWIDTH 11 0
BBX 9 11 1 0
BITMAP
1E00
3F00
6380
C180
C180
C180
8180
C180
C300
7E00
3C00
ENDCHAR
STARTCHAR p
ENCODING 112
SWIDTH 549 0
DWIDTH 11 0
BBX 10 15 0 -4
BITMAP
3700
3F80
31C0
20C0
60C0
60C0
60C0
6180
6380
7F00
DE00
C000
C000
C000
8000
ENDCHAR
STARTCHAR q
ENCODING 113
SWIDTH 556 0
DWIDTH 11 0
BBX 9 15 1 -4
BITMAP
1E80
7F80
6180
C180
C180
C100
8300
C300
C700
FF00
7B00
0200
0600
0600
0600
ENDCHAR
STARTCHAR r
ENCODING 114
SWIDTH 333 0
DWIDTH 7 0
BBX 7 11 0 0
BITMAP
36
3E
38
30
20
60
60
60
60
60
C0
ENDCHAR
STARTCHAR s
ENCODING 115
SWIDTH 504 0
DWIDTH 10 0
BBX 9 11 0 0
BITMAP
1F00
3F80
3180
6000
3C00
1F00
0300
0180
E300
7F00
3E00
ENDCHAR
STARTCHAR t
ENCODING 116
SWIDTH 321 0
DWIDTH 6 0
BBX 6 14 0 0
BITMAP
18
18
10
7C
FC
30
30
30
20
20
60
60
78
38
ENDCHAR
STARTCHAR u
ENCODING 117
SWIDTH 539 0
DWIDTH 11 0
BBX 9 11 1 0
BITMAP
6080
6180
6180
4180
4180
C180
C100
C300
C700
7F00
7B00
ENDCHAR
STARTCHAR v
ENCODING 118
SWIDTH 474 0
DWIDTH 10 0
BBX 9 11 1 0
BITMAP
C180
4300
4300
6200
6600
6400
2C00
2800
3800
3000
3000
ENDCHAR
STARTCHAR w
ENCODING 119
SWIDTH 733 0
DWIDTH 15 0
BBX 14 11 1 0
BITMAP
C30C
4308
4718
4518
4D10
6DB0
69A0
79E0
70C0
70C0
60C0
ENDCHAR
STARTCHAR x
ENCODING 120
SWIDTH 485 0
DWIDTH 10 0
BBX 11 11 -1 0
BITMAP
30E0
18C0
1980
0F00
0E00
0600
0E00
1B00
3300
3180
E180
ENDCHAR
STARTCHAR y
ENCODING 121
SWIDTH 463 0
DWIDTH 9 0
BBX 11 15 -1 -4
BITMAP
30E0
30C0
3080
1180
1100
1B00
1A00
1E00
1C00
0C00
0800
1800
3000
F000
E000
ENDCHAR
STARTCHAR z
ENCODING 122
SWIDTH 485 0
DWIDTH 10 0
BBX 10 11 0 0
BITMAP
3FC0
3F80
4380
0300
0600
0C00
1800
3000
6000
FF00
FF00
ENDCHAR
STARTCHAR braceleft
ENCODING 123
SWIDTH 333 0
DWIDTH 7 0
BBX 7 20 1 -4
BITMAP
06
0C
18
18
10
30
30
30
60
C0
60
60
60
60
60
60
60
60
30
10
ENDCHAR
STARTCHAR bar
ENCODING 124
SWIDTH 241 0
DWIDTH 5 0
BBX 4 17 0 -3
BITMAP
10
10
10
30
30
30
20
20
20
60
60
60
40
40
40
40
C0
ENDCHAR
STARTCHAR braceright
ENCODING 125
SWIDTH 333 0
DWIDTH 7 0
BBX 7 20 -1 -4
BITMAP
10
18
0C
0C
0C
0C
0C
0C
0C
06
0C
18
18
18
10
10
30
30
60
80
ENDCHAR
STARTCHAR asciitilde
ENCODING 126
SWIDTH 664 0
DWIDTH 13 0
BBX 11 4 1 4
BITMAP
3820
7C60
CFC0
8380
ENDCHAR
STARTCHAR uni00A0
ENCODING 160
SWIDTH 245 0
DWIDTH 5 0
BBX 1 1 0 0
BITMAP
00
ENDCHAR
STARTCHAR exclamdown
ENCODING 161
SWIDTH 241 0
DWIDTH 5 0
BBX 4 15 0 -4
BITMAP
30
30
00
00
20
60
60
60
60
60
40
C0
C0
C0
C0
ENDCHAR
STARTCHAR cent
ENCODING 162
SWIDTH 535 0
DWIDTH 11 0
BBX 9 15 1 -2
BITMAP
0600
0400
1F00
3100
6180
4180
C000
C000
C000
C000
C300
6600
3C00
1000
3000
ENDCHAR
STARTCHAR sterling
ENCODING 163
SWIDTH 568 0
DWIDTH 11 0
BBX 11 14 0 0
BITMAP
07C0
0FE0
1C60
1860
1800
1800
1000
7E00
7E00
3000
3000
6000
FFC0
FFC0
ENDCHAR
STARTCHAR currency
ENCODING 164
SWIDTH 696 0
DWIDTH 14 0
BBX 14 12 0 0
BITMAP
33C8
3FFC
1C30
3018
3018
6018
6018
6030
6030
30E0
FFF0
4F20
ENDCHAR
STARTCHAR yen
ENCODING 165
SWIDTH 514 0
DWIDTH 10 0
BBX 10 14 1 0
BITMAP
E0C0
6180
6180
2300
3600
3600
1C00
FF00
FF00
1800
FF00
FE00
3000
3000
ENDCHAR
STARTCHAR brokenbar
ENCODING 166
SWIDTH 237 0
DWIDTH 5 0
BBX 5 17 0 -3
BITMAP
18
10
30
30
30
30
20
00
00
60
60
60
40
40
C0
C0
C0
ENDCHAR
STARTCHAR section
ENCODING 167
SWIDTH 599 0
DWIDTH 12 0
BBX 11 19 0 -5
BITMAP
07C0
1FE0
1860
3020
3000
3800
1F00
37C0
60C0
6060
6040
3FC0
1F80
0380
0180
C180
C380
7F00
3E00
ENDCHAR
STARTCHAR dieresis
ENCODING 168
SWIDTH 410 0
DWIDTH 8 0
BBX 6 2 2 12
BITMAP
CC
CC
ENDCHAR
STARTCHAR copyright
ENCODING 169
SWIDTH 767 0
DWIDTH 15 0
BBX 14 14 1 0
BITMAP
07C0
1830
3018
2788
4FC8
4C44
8804
980C
98C8
8F88
4710
6020
30C0
0F80
ENDCHAR
STARTCHAR ordfeminine
ENCODING 170
SWIDTH 438 0
DWIDTH 9 0
BBX 6 7 2 7
BITMAP
38
44
04
7C
CC
CC
7C
ENDCHAR
STARTCHAR guillemotleft
ENCODING 171
SWIDTH 459 0
DWIDTH 9 0
BBX 8 8 1 1
BITMAP
1B
36
6C
D8
D8
48
6C
24
ENDCHAR
STARTCHAR logicalnot
ENCODING 172
SWIDTH 541 0
DWIDTH 11 0
BBX 8 4 1 4
BITMAP
FF
FF
03
03
ENDCHAR
STARTCHAR uni00AD
ENCODING 173
SWIDTH 272 0
DWIDTH 5 0
BBX 5 2 0 5
BITMAP
F8
F8
ENDCHAR
STARTCHAR registered
ENCODING 174
SWIDTH 767 0
DWIDTH 15 0
BBX 14 14 1 0
BITMAP
07C0
1830
3018
6788
47C8
4C44
8CC4
8F8C
8F88
8888
4890
4020
30C0
0F80
ENDCHAR
STARTCHAR macron
ENCODING 175
SWIDTH 449 0
DWIDTH 9 0
BBX 7 2 2 12
BITMAP
7E
FE
ENDCHAR
STARTCHAR degree
ENCODING 176
SWIDTH 367 0
DWIDTH 7 0
BBX 5 6 2 8
BITMAP
30
78
C8
C8
78
70
ENDCHAR
STARTCHAR plusminus
ENCODING 177
SWIDTH 522 0
DWIDTH 10 0
BBX 10 12 0 0
BITMAP
0200
0600
0600
0600
7FC0
7FC0
0400
0C00
0C00
0000
7F80
FF00
ENDCHAR
STARTCHAR uni00B2
ENCODING 178
SWIDTH 360 0
DWIDTH 7 0
BBX 6 7 1 7
BITMAP
3C
7C
0C
18
60
FC
FC
ENDCHAR
STARTCHAR uni00B3
ENCODING 179
SWIDTH 360 0
DWIDTH 7 0
BBX 6 7 1 7
BITMAP
7C
3C
38
0C
0C
FC
78
ENDCHAR
STARTCHAR acute
ENCODING 180
SWIDTH 309 0
DWIDTH 6 0
BBX 5 3 2 12
BITMAP
38
60
C0
ENDCHAR
STARTCHAR mu
ENCODING 181
SWIDTH 554 0
DWIDTH 11 0
BBX 10 15 0 -4
BITMAP
30C0
30C0
30C0
20C0
60C0
6080
6180
6180
6380
7F80
DD80
C000
C000
C000
C000
ENDCHAR
STARTCHAR paragraph
ENCODING 182
SWIDTH 479 0
DWIDTH 10 0
BBX 8 14 2 0
BITMAP
3F
7E
FE
FE
FE
FE
FE
FC
7C
0C
0C
0C
08
18
ENDCHAR
STARTCHAR periodcentered
ENCODING 183
SWIDTH 257 0
DWIDTH 5 0
BBX 2 2 2 6
BITMAP
C0
C0
ENDCHAR
STARTCHAR cedilla
ENCODING 184
SWIDTH 245 0
DWIDTH 5 0
BBX 4 4 -1 -4
BITMAP
60
30
30
E0
ENDCHAR
STARTCHAR uni00B9
ENCODING 185
SWIDTH 360 0
DWIDTH 7 0
BBX 4 7 2 7
BITMAP
30
F0
F0
20
20
20
60
ENDCHAR
STARTCHAR ordmasculine
ENCODING 186
SWIDTH 445 0
DWIDTH 9 0
BBX 7 7 2 7
BITMAP
38
44
C6
C6
C4
CC
78
ENDCHAR
STARTCHAR guillemotright
ENCODING 187
SWIDTH 459 0
DWIDTH 9 0
BBX 8 8 0 1
BITMAP
24
32
13
1B
1B
36
64
D8
ENDCHAR
STARTCHAR onequarter
ENCODING 188
SWIDTH 715 0
DWIDTH 14 0
BBX 11 14 2 0
BITMAP
3000
E040
E080
2180
2300
6200
6460
6CE0
19C0
1340
2640
67E0
C7E0
00C0
ENDCHAR
STARTCHAR onehalf
ENCODING 189
SWIDTH 757 0
DWIDTH 15 0
BBX 12 14 2 0
BITMAP
3000
E080
E0C0
2100
2300
6600
6CE0
49F0
1330
3060
60C0
4300
87E0
07E0
ENDCHAR
STARTCHAR threequarters
ENCODING 190
SWIDTH 759 0
DWIDTH 15 0
BBX 12 14 2 0
BITMAP
3800
7C20
CC60
38C0
3880
8900
FB30
7660
04E0
09A0
1B60
33F0
23F0
0040
ENDCHAR
STARTCHAR questiondown
ENCODING 191
SWIDTH 463 0
DWIDTH 9 0
BBX 7 15 0 -4
BITMAP
0C
0C
00
00
0C
08
18
30
60
C0
C0
82
C6
FE
78
ENDCHAR
STARTCHAR Agrave
ENCODING 192
SWIDTH 637 0
DWIDTH 13 0
BBX 12 18 -1 0
BITMAP
0180
0080
00C0
0000
00C0
01C0
01C0
0340
0640
0660
0C60
0C60
1820
1FE0
3FF0
3030
6030
C030
ENDCHAR
STARTCHAR Aacute
ENCODING 193
SWIDTH 637 0
DWIDTH 13 0
BBX 13 18 -1 0
BITMAP
0038
0060
00C0
0000
00C0
01C0
01C0
0340
0640
0660
0C60
0C60
1820
1FE0
3FF0
3030
6030
C030
ENDCHAR
STARTCHAR Acircumflex
ENCODING 194
SWIDTH 637 0
DWIDTH 13 0
BBX 12 18 -1 0
BITMAP
00C0
01A0
0330
0000
00C0
01C0
01C0
0340
0640
0660
0C60
0C60
1820
1FE0
3FF0
3030
6030
C030
ENDCHAR
STARTCHAR Atilde
ENCODING 195
SWIDTH 637 0
DWIDTH 13 0
BBX 13 17 -1 0
BITMAP
0398
0270
0000
00C0
01C0
01C0
0340
0640
0660
0C60
0C60
1820
1FE0
3FF0
3030
6030
C030
ENDCHAR
STARTCHAR Adieresis
ENCODING 196
SWIDTH 637 0
DWIDTH 13 0
BBX 12 17 -1 0
BITMAP
0330
0330
0000
00C0
01C0
01C0
0340
0640
0660
0C60
0C60
1820
1FE0
3FF0
3030
6030
C030
ENDCHAR
STARTCHAR Aring
ENCODING 197
SWIDTH 637 0
DWIDTH 13 0
BBX 12 19 -1 0
BITMAP
00E0
0120
0120
00E0
0000
00C0
01C0
01C0
0340
0640
0660
0C60
0C60
1820
1FE0
3FF0
3030
6030
C030
ENDCHAR
STARTCHAR AE
ENCODING 198
SWIDTH 911 0
DWIDTH 18 0
BBX 20 14 -1 0
BITMAP
003FF0
007FE0
007800
00D800
019000
031000
033FC0
063FC0
0C3000
1FF000
3FF000
302000
603FC0
C07FC0
ENDCHAR
STARTCHAR Ccedilla
ENCODING 199
SWIDTH 636 0
DWIDTH 13 0
BBX 12 18 1 -4
BITMAP
0780
1FE0
3860
7020
6030
6000
4000
C000
C000
C060
C0C0
61C0
7F80
1E00
0800
1C00
0C00
1800
ENDCHAR
STARTCHAR Egrave
ENCODING 200
SWIDTH 556 0
DWIDTH 11 0
BBX 11 18 1 0
BITMAP
0C00
0600
0200
0000
3FE0
3FE0
3000
6000
6000
6000
7F80
7F80
4000
C000
C000
C000
FF80
FF00
ENDCHAR
STARTCHAR Eacute
ENCODING 201
SWIDTH 556 0
DWIDTH 11 0
BBX 11 18 1 0
BITMAP
01C0
0380
0700
0000
3FE0
3FE0
3000
6000
6000
6000
7F80
7F80
4000
C000
C000
C000
FF80
FF00
ENDCHAR
STARTCHAR Ecircumflex
ENCODING 202
SWIDTH 556 0
DWIDTH 11 0
BBX 11 18 1 0
BITMAP
0300
0F80
0C80
0000
3FE0
3FE0
3000
6000
6000
6000
7F80
7F80
4000
C000
C000
C000
FF80
FF00
ENDCHAR
STARTCHAR Edieresis
ENCODING 203
SWIDTH 556 0
DWIDTH 11 0
BBX 11 17 1 0
BITMAP
0CC0
0CC0
0000
3FE0
3FE0
3000
6000
6000
6000
7F80
7F80
4000
C000
C000
C000
FF80
FF00
ENDCHAR
STARTCHAR Igrave
ENCODING 204
SWIDTH 268 0
DWIDTH 5 0
BBX 4 18 1 0
BITMAP
60
30
10
00
30
30
30
20
60
60
60
60
60
40
C0
C0
C0
C0
ENDCHAR
STARTCHAR Iacute
ENCODING 205
SWIDTH 268 0
DWIDTH 5 0
BBX 7 18 1 0
BITMAP
0E
18
30
00
30
30
30
20
60
60
60
60
60
40
C0
C0
C0
C0
ENDCHAR
STARTCHAR Icircumflex
ENCODING 206
SWIDTH 268 0
DWIDTH 5 0
BBX 6 18 1 0
BITMAP
38
6C
CC
00
30
30
30
20
60
60
60
60
60
40
C0
C0
C0
C0
ENDCHAR
STARTCHAR Idieresis
ENCODING 207
SWIDTH 268 0
DWIDTH 5 0
BBX 7 17 1 0
BITMAP
44
EE
00
30
30
30
20
60
60
60
60
60
40
C0
C0
C0
C0
ENDCHAR
STARTCHAR Eth
ENCODING 208
SWIDTH 655 0
DWIDTH 13 0
BBX 12 14 0 0
BITMAP
1F80
1FE0
1860
1830
3030
3030
FC30
FC30
3030
2060
6060
61C0
7F80
7E00
ENDCHAR
STARTCHAR Ntilde
ENCODING 209
SWIDTH 696 0
DWIDTH 14 0
BBX 13 17 1 0
BITMAP
0720
0CC0
0000
3018
3810
3830
6C30
6C30
6C30
6630
6620
4360
C360
C1E0
C1E0
C0C0
C0C0
ENDCHAR
STARTCHAR Ograve
ENCODING 210
SWIDTH 671 0
DWIDTH 13 0
BBX 11 18 1 0
BITMAP
0600
0300
0100
0000
0F80
1FC0
38E0
6060
6020
C020
C060
C060
C060
C060
C0C0
61C0
7F80
3E00
ENDCHAR
STARTCHAR Oacute
ENCODING 211
SWIDTH 671 0
DWIDTH 13 0
BBX 11 18 1 0
BITMAP
00E0
0180
0300
0000
0F80
1FC0
38E0
6060
6020
C020
C060
C060
C060
C060
C0C0
61C0
7F80
3E00
ENDCHAR
STARTCHAR Ocircumflex
ENCODING 212
SWIDTH 671 0
DWIDTH 13 0
BBX 11 18 1 0
BITMAP
0180
06C0
0C40
0000
0F80
1FC0
38E0
6060
6020
C020
C060
C060
C060
C060
C0C0
61C0
7F80
3E00
ENDCHAR
STARTCHAR Otilde
ENCODING 213
SWIDTH 671 0
DWIDTH 13 0
BBX 11 17 1 0
BITMAP
0620
09C0
0000
0F80
1FC0
38E0
6060
6020
C020
C060
C060
C060
C060
C0C0
61C0
7F80
3E00
ENDCHAR
STARTCHAR Odieresis
ENCODING 214
SWIDTH 671 0
DWIDTH 13 0
BBX 11 17 1 0
BITMAP
0460
0E40
0000
0F80
1FC0
38E0
6060
6020
C020
C060
C060
C060
C060
C0C0
61C0
7F80
3E00
ENDCHAR
STARTCHAR multiply
ENCODING 215
SWIDTH 521 0
DWIDTH 10 0
BBX 10 9 0 2
BITMAP
2080
31C0
1B80
1F00
0C00
1E00
3300
6380
C100
ENDCHAR
STARTCHAR Oslash
ENCODING 216
SWIDTH 671 0
DWIDTH 13 0
BBX 14 15 0 -1
BITMAP
07CC
0FF0
1C30
3070
30D0
6090
6130
6230
6630
6C30
7860
70E0
3FC0
7F00
C000
ENDCHAR
STARTCHAR Ugrave
ENCODING 217
SWIDTH 633 0
DWIDTH 13 0
BBX 12 18 1 0
BITMAP
0600
0200
0300
0000
3030
3030
2030
6020
6060
6060
6060
4060
4060
C0C0
C0C0
61C0
7F80
3E00
ENDCHAR
STARTCHAR Uacute
ENCODING 218
SWIDTH 633 0
DWIDTH 13 0
BBX 12 18 1 0
BITMAP
00C0
0180
0300
0000
3030
3030
2030
6020
6060
6060
6060
4060
4060
C0C0
C0C0
61C0
7F80
3E00
ENDCHAR
STARTCHAR Ucircumflex
ENCODING 219
SWIDTH 633 0
DWIDTH 13 0
BBX 12 18 1 0
BITMAP
0300
0680
0CC0
0000
3030
3030
2030
6020
6060
6060
6060
4060
4060
C0C0
C0C0
61C0
7F80
3E00
ENDCHAR
STARTCHAR Udieresis
ENCODING 220
SWIDTH 633 0
DWIDTH 13 0
BBX 12 17 1 0
BITMAP
0CC0
0CC0
0000
3030
3030
2030
6020
6060
6060
6060
4060
4060
C0C0
C0C0
61C0
7F80
3E00
ENDCHAR
STARTCHAR Yacute
ENCODING 221
SWIDTH 587 0
DWIDTH 12 0
BBX 11 18 2 0
BITMAP
0380
0600
0C00
0000
C0E0
C0C0
4180
6300
6300
2600
3C00
3C00
1800
1000
3000
3000
3000
3000
ENDCHAR
STARTCHAR Thorn
ENCODING 222
SWIDTH 578 0
DWIDTH 12 0
BBX 10 14 1 0
BITMAP
3000
3000
3000
3F00
7F80
60C0
60C0
60C0
41C0
7F80
FE00
C000
C000
C000
ENDCHAR
STARTCHAR germandbls
ENCODING 223
SWIDTH 581 0
DWIDTH 12 0
BBX 10 15 0 0
BITMAP
0780
1FC0
18C0
30C0
3080
3180
3300
3300
2100
6080
60C0
6040
70C0
6FC0
DF80
ENDCHAR
STARTCHAR agrave
ENCODING 224
SWIDTH 532 0
DWIDTH 11 0
BBX 9 15 1 0
BITMAP
1800
0C00
0600
0000
1E00
7F00
6100
0180
3F00
7F00
C300
C300
C700
FF00
7B00
ENDCHAR
STARTCHAR aacute
ENCODING 225
SWIDTH 532 0
DWIDTH 11 0
BBX 9 15 1 0
BITMAP
0380
0700
0600
0000
1E00
7F00
6100
0180
3F00
7F00
C300
C300
C700
FF00
7B00
ENDCHAR
STARTCHAR acircumflex
ENCODING 226
SWIDTH 532 0
DWIDTH 11 0
BBX 9 15 1 0
BITMAP
0600
1F00
1980
0000
1E00
7F00
6100
0180
3F00
7F00
C300
C300
C700
FF00
7B00
ENDCHAR
STARTCHAR atilde
ENCODING 227
SWIDTH 532 0
DWIDTH 11 0
BBX 9 14 1 0
BITMAP
1C80
3380
0000
1E00
7F00
6100
0180
3F00
7F00
C300
C300
C700
FF00
7B00
ENDCHAR
STARTCHAR adieresis
ENCODING 228
SWIDTH 532 0
DWIDTH 11 0
BBX 9 14 1 0
BITMAP
1980
1980
0000
1E00
7F00
6100
0180
3F00
7F00
C300
C300
C700
FF00
7B00
ENDCHAR
STARTCHAR aring
ENCODING 229
SWIDTH 532 0
DWIDTH 11 0
BBX 9 16 1 0
BITMAP
0600
0900
0900
0E00
0000
1E00
7F00
6100
0180
3F00
7F00
C300
C300
C700
FF00
7B00
ENDCHAR
STARTCHAR ae
ENCODING 230
SWIDTH 823 0
DWIDTH 16 0
BBX 16 11 0 0
BITMAP
1F3C
3FFE
61C2
0183
3FFF
7FFE
E100
C380
C784
FEFC
7C7E
ENDCHAR
STARTCHAR ccedilla
ENCODING 231
SWIDTH 512 0
DWIDTH 10 0
BBX 9 15 1 -4
BITMAP
1E00
7F00
6300
C180
C000
8000
8000
C300
C700
7E00
3C00
3000
1800
1800
3000
ENDCHAR
STARTCHAR egrave
ENCODING 232
SWIDTH 518 0
DWIDTH 10 0
BBX 8 15 1 0
BITMAP
18
0C
04
00
1E
7F
63
C1
FF
FF
80
C0
C2
7F
3C
ENDCHAR
STARTCHAR eacute
ENCODING 233
SWIDTH 518 0
DWIDTH 10 0
BBX 9 15 1 0
BITMAP
0380
0600
0C00
0000
1E00
7F00
6300
C100
FF00
FF00
8000
C000
C200
7F00
3C00
ENDCHAR
STARTCHAR ecircumflex
ENCODING 234
SWIDTH 518 0
DWIDTH 10 0
BBX 8 15 1 0
BITMAP
06
1B
31
00
1E
7F
63
C1
FF
FF
80
C0
C2
7F
3C
ENDCHAR
STARTCHAR edieresis
ENCODING 235
SWIDTH 518 0
DWIDTH 10 0
BBX 9 14 1 0
BITMAP
1180
3980
0000
1E00
7F00
6300
C100
FF00
FF00
8000
C000
C200
7F00
3C00
ENDCHAR
STARTCHAR igrave
ENCODING 236
SWIDTH 244 0
DWIDTH 5 0
BBX 4 15 0 0
BITMAP
60
30
10
00
30
30
30
20
20
60
60
60
60
40
C0
ENDCHAR
STARTCHAR iacute
ENCODING 237
SWIDTH 244 0
DWIDTH 5 0
BBX 7 15 0 0
BITMAP
0E
18
30
00
30
30
30
20
20
60
60
60
60
40
C0
ENDCHAR
STARTCHAR icircumflex
ENCODING 238
SWIDTH 244 0
DWIDTH 5 0
BBX 6 15 0 0
BITMAP
18
7C
64
00
30
30
30
20
20
60
60
60
60
40
C0
ENDCHAR
STARTCHAR idieresis
ENCODING 239
SWIDTH 244 0
DWIDTH 5 0
BBX 7 14 0 0
BITMAP
66
66
00
30
30
30
20
20
60
60
60
60
40
C0
ENDCHAR
STARTCHAR eth
ENCODING 240
SWIDTH 573 0
DWIDTH 11 0
BBX 10 15 1 0
BITMAP
1800
1FC0
0700
0F00
1180
1F80
7F80
6180
C180
C180
C180
C300
C700
7E00
3C00
ENDCHAR
STARTCHAR ntilde
ENCODING 241
SWIDTH 540 0
DWIDTH 11 0
BBX 10 14 0 0
BITMAP
0E40
1980
0000
3780
3F80
38C0
30C0
60C0
6080
6180
6180
6180
4180
C180
ENDCHAR
STARTCHAR ograve
ENCODING 242
SWIDTH 558 0
DWIDTH 11 0
BBX 9 15 1 0
BITMAP
1800
0C00
0400
0000
1E00
3F00
6380
C180
C180
C180
8180
C180
C300
7E00
3C00
ENDCHAR
STARTCHAR oacute
ENCODING 243
SWIDTH 558 0
DWIDTH 11 0
BBX 9 15 1 0
BITMAP
0380
0600
0C00
0000
1E00
3F00
6380
C180
C180
C180
8180
C180
C300
7E00
3C00
ENDCHAR
STARTCHAR ocircumflex
ENCODING 244
SWIDTH 558 0
DWIDTH 11 0
BBX 9 15 1 0
BITMAP
0600
1B00
1900
0000
1E00
3F00
6380
C180
C180
C180
8180
C180
C300
7E00
3C00
ENDCHAR
STARTCHAR otilde
ENCODING 245
SWIDTH 558 0
DWIDTH 11 0
BBX 9 14 1 0
BITMAP
1C80
3300
0000
1E00
3F00
6380
C180
C180
C180
8180
C180
C300
7E00
3C00
ENDCHAR
STARTCHAR odieresis
ENCODING 246
SWIDTH 558 0
DWIDTH 11 0
BBX 9 14 1 0
BITMAP
1980
1980
0000
1E00
3F00
6380
C180
C180
C180
8180
C180
C300
7E00
3C00
ENDCHAR
STARTCHAR divide
ENCODING 247
SWIDTH 558 0
DWIDTH 11 0
BBX 9 10 1 2
BITMAP
0C00
0C00
0000
0000
FF80
FF80
0000
0000
1800
1800
ENDCHAR
STARTCHAR oslash
ENCODING 248
SWIDTH 554 0
DWIDTH 11 0
BBX 9 13 1 -1
BITMAP
0080
1F00
3F00
6380
C580
CD80
C980
9180
B380
E700
FE00
7C00
8000
ENDCHAR
STARTCHAR ugrave
ENCODING 249
SWIDTH 539 0
DWIDTH 11 0
BBX 9 15 1 0
BITMAP
1800
0C00
0400
0000
6080
6180
6180
4180
4180
C180
C100
C300
C700
7F00
7B00
ENDCHAR
STARTCHAR uacute
ENCODING 250
SWIDTH 539 0
DWIDTH 11 0
BBX 9 15 1 0
BITMAP
0380
0600
0C00
0000
6080
6180
6180
4180
4180
C180
C100
C300
C700
7F00
7B00
ENDCHAR
STARTCHAR ucircumflex
ENCODING 251
SWIDTH 539 0
DWIDTH 11 0
BBX 9 15 1 0
BITMAP
0600
1B00
1900
0000
6080
6180
6180
4180
4180
C180
C100
C300
C700
7F00
7B00
ENDCHAR
STARTCHAR udieresis
ENCODING 252
SWIDTH 539 0
DWIDTH 11 0
BBX 9 14 1 0
BITMAP
1980
1980
0000
6080
6180
6180
4180
4180
C180
C100
C300
C700
7F00
7B00
ENDCHAR
STARTCHAR yacute
ENCODING 253
SWIDTH 463 0
DWIDTH 9 0
BBX 11 19 -1 -4
BITMAP
00C0
0180
0300
0000
30E0
30C0
3080
1180
1100
1B00
1A00
1E00
1C00
0C00
0800
1800
3000
F000
E000
ENDCHAR
STARTCHAR thorn
ENCODING 254
SWIDTH 563 0
DWIDTH 11 0
BBX 10 19 0 -4
BITMAP
1800
1000
3000
3000
3700
3F80
31C0
20C0
60C0
60C0
60C0
6180
6380
7F00
DE00
C000
C000
C000
8000
ENDCHAR
STARTCHAR ydieresis
ENCODING 255
SWIDTH 463 0
DWIDTH 9 0
BBX 11 18 -1 -4
BITMAP
0CC0
0CC0
0000
30E0
30C0
3080
1180
1100
1B00
1A00
1E00
1C00
0C00
0800
1800
3000
F000
E000
ENDCHAR
STARTCHAR Amacron
ENCODING 256
SWIDTH 637 0
DWIDTH 13 0
BBX 13 17 -1 0
BITMAP
03F8
03F0
0000
00C0
01C0
01C0
0340
0640
0660
0C60
0C60
1820
1FE0
3FF0
3030
6030
C030
ENDCHAR
STARTCHAR amacron
ENCODING 257
SWIDTH 532 0
DWIDTH 11 0
BBX 9 14 1 0
BITMAP
1F80
1F80
0000
1E00
7F00
6100
0180
3F00
7F00
C300
C300
C700
FF00
7B00
ENDCHAR
STARTCHAR Abreve
ENCODING 258
SWIDTH 637 0
DWIDTH 13 0
BBX 12 17 -1 0
BITMAP
0110
01E0
0000
00C0
01C0
01C0
0340
0640
0660
0C60
0C60
1820
1FE0
3FF0
3030
6030
C030
ENDCHAR
STARTCHAR abreve
ENCODING 259
SWIDTH 532 0
DWIDTH 11 0
BBX 9 14 1 0
BITMAP
1980
0F00
0000
1E00
7F00
6100
0180
3F00
7F00
C300
C300
C700
FF00
7B00
ENDCHAR
STARTCHAR Aogonek
ENCODING 260
SWIDTH 637 0
DWIDTH 13 0
BBX 12 18 -1 -4
BITMAP
00C0
01C0
0140
0340
0260
0660
0C60
0C60
1820
1FF0
3FF0
3030
6030
6010
8030
0060
0040
0070
ENDCHAR
STARTCHAR aogonek
ENCODING 261
SWIDTH 532 0
DWIDTH 11 0
BBX 9 15 1 -4
BITMAP
1E00
7F00
6100
0180
3F00
7F00
C300
C300
C700
FF00
7B00
0600
0C00
0800
0E00
ENDCHAR
STARTCHAR Cacute
ENCODING 262
SWIDTH 636 0
DWIDTH 13 0
BBX 12 18 1 0
BITMAP
00E0
0180
0300
0000
0780
1FE0
3860
7020
6030
6000
4000
C000
C000
C060
C0C0
61C0
7F80
1E00
ENDCHAR
STARTCHAR cacute
ENCODING 263
SWIDTH 512 0
DWIDTH 10 0
BBX 9 15 1 0
BITMAP
0380
0600
0C00
0000
1E00
7F00
6300
C180
C000
8000
8000
C300
C700
7E00
3C00
ENDCHAR
STARTCHAR Ccircumflex
ENCODING 264
SWIDTH 636 0
DWIDTH 13 0
BBX 12 18 1 0
BITMAP
0380
06C0
0CC0
0000
0780
1FE0
3860
7020
6030
6000
4000
C000
C000
C060
C0C0
61C0
7F80
1E00
ENDCHAR
STARTCHAR ccircumflex
ENCODING 265
SWIDTH 512 0
DWIDTH 10 0
BBX 9 15 1 0
BITMAP
0C00
1A00
3300
0000
1E00
7F00
6300
C180
C000
8000
8000
C300
C700
7E00
3C00
ENDCHAR
STARTCHAR Cdotaccent
ENCODING 266
SWIDTH 636 0
DWIDTH 13 0
BBX 12 17 1 0
BITMAP
0300
0300
0000
0780
1FE0
3860
7020
6030
6000
4000
C000
C000
C060
C0C0
61C0
7F80
1E00
ENDCHAR
STARTCHAR cdotaccent
ENCODING 267
SWIDTH 512 0
DWIDTH 10 0
BBX 9 14 1 0
BITMAP
0C00
0C00
0000
1E00
7F00
6300
C180
C000
8000
8000
C300
C700
7E00
3C00
ENDCHAR
STARTCHAR Ccaron
ENCODING 268
SWIDTH 636 0
DWIDTH 13 0
BBX 12 18 1 0
BITMAP
04E0
0280
0300
0000
0780
1FE0
3860
7020
6030
6000
4000
C000
C000
C060
C0C0
61C0
7F80
1E00
ENDCHAR
STARTCHAR ccaron
ENCODING 269
SWIDTH 512 0
DWIDTH 10 0
BBX 9 15 1 0
BITMAP
1300
0E00
0C00
0000
1E00
7F00
6300
C180
C000
8000
8000
C300
C700
7E00
3C00
ENDCHAR
STARTCHAR Dcaron
ENCODING 270
SWIDTH 641 0
DWIDTH 13 0
BBX 11 18 1 0
BITMAP
0CC0
0500
0300
0000
3F00
3FC0
30C0
2060
6060
6060
6060
6060
4060
C0C0
C1C0
C380
FF00
FC00
ENDCHAR
STARTCHAR dcaron
ENCODING 271
SWIDTH 625 0
DWIDTH 13 0
BBX 13 15 1 0
BITMAP
00D8
00D8
00D0
00F0
1D80
7F80
6380
C180
C180
C100
8300
C300
C700
FF00
7B00
ENDCHAR
STARTCHAR Dcroat
ENCODING 272
SWIDTH 655 0
DWIDTH 13 0
BBX 12 14 0 0
BITMAP
1F80
1FE0
1870
1830
1030
3030
FC30
FC30
3030
3060
2060
61C0
7F80
7F00
ENDCHAR
STARTCHAR dcroat
ENCODING 273
SWIDTH 583 0
DWIDTH 12 0
BBX 12 15 1 0
BITMAP
00C0
03F0
03F0
00C0
1EC0
3F80
6180
C180
C180
C180
C100
C300
C700
7F00
3B00
ENDCHAR
STARTCHAR Emacron
ENCODING 274
SWIDTH 556 0
DWIDTH 11 0
BBX 11 17 1 0
BITMAP
0FC0
0FC0
1000
3FE0
3FE0
3000
6000
6000
6000
7F80
7F80
4000
C000
C000
C000
FF80
FF00
ENDCHAR
STARTCHAR emacron
ENCODING 275
SWIDTH 518 0
DWIDTH 10 0
BBX 9 14 1 0
BITMAP
3F80
3F80
0000
1E00
7F00
6300
C100
FF00
FF00
8000
C000
C200
7F00
3C00
ENDCHAR
STARTCHAR Ebreve
ENCODING 276
SWIDTH 556 0
DWIDTH 11 0
BBX 11 17 1 0
BITMAP
0CC0
0780
0000
3FE0
3FE0
3000
6000
6000
6000
7F80
7F80
4000
C000
C000
C000
FF80
FF00
ENDCHAR
STARTCHAR ebreve
ENCODING 277
SWIDTH 518 0
DWIDTH 10 0
BBX 9 14 1 0
BITMAP
1180
0F00
0000
1E00
7F00
6300
C100
FF00
FF00
8000
C000
C200
7F00
3C00
ENDCHAR
STARTCHAR Edotaccent
ENCODING 278
SWIDTH 556 0
DWIDTH 11 0
BBX 11 17 1 0
BITMAP
0300
0300
0000
3FE0
3FE0
3000
6000
6000
6000
7F80
7F80
4000
C000
C000
C000
FF80
FF00
ENDCHAR
STARTCHAR edotaccent
ENCODING 279
SWIDTH 518 0
DWIDTH 10 0
BBX 8 14 1 0
BITMAP
04
06
00
1E
7F
63
C1
FF
FF
80
C0
C2
7F
3C
ENDCHAR
STARTCHAR Eogonek
ENCODING 280
SWIDTH 556 0
DWIDTH 11 0
BBX 11 18 1 -4
BITMAP
3FE0
3FC0
2000
6000
6000
6000
7F80
7F80
C000
C000
C000
C000
FF80
FF00
0600
0C00
0C00
0600
ENDCHAR
STARTCHAR eogonek
ENCODING 281
SWIDTH 518 0
DWIDTH 10 0
BBX 8 15 1 -4
BITMAP
1E
7F
63
C1
FF
FF
80
80
C2
FF
3C
18
30
30
18
ENDCHAR
STARTCHAR Ecaron
ENCODING 282
SWIDTH 556 0
DWIDTH 11 0
BBX 11 18 1 0
BITMAP
0CC0
0580
0300
0000
3FE0
3FE0
3000
6000
6000
6000
7F80
7F80
4000
C000
C000
C000
FF80
FF00
ENDCHAR
STARTCHAR ecaron
ENCODING 283
SWIDTH 518 0
DWIDTH 10 0
BBX 9 15 1 0
BITMAP
1980
0A00
0400
0000
1E00
7F00
6300
C100
FF00
FF00
8000
C000
C200
7F00
3C00
ENDCHAR
STARTCHAR Gcircumflex
ENCODING 284
SWIDTH 665 0
DWIDTH 13 0
BBX 11 18 1 0
BITMAP
0300
0680
0CC0
0000
0F80
1FC0
3860
6060
6000
4000
C3E0
C3E0
C060
C0C0
C0C0
61C0
7F80
1F00
ENDCHAR
STARTCHAR gcircumflex
ENCODING 285
SWIDTH 549 0
DWIDTH 11 0
BBX 10 19 0 -4
BITMAP
0300
0D80
0880
0000
0E40
3FC0
31C0
60C0
60C0
6080
6180
6180
6380
7F80
3D80
0300
4300
FE00
3C00
ENDCHAR
STARTCHAR Gbreve
ENCODING 286
SWIDTH 665 0
DWIDTH 13 0
BBX 11 17 1 0
BITMAP
0440
0780
0000
0F80
1FC0
3860
6060
6000
4000
C3E0
C3E0
C060
C0C0
C0C0
61C0
7F80
1F00
ENDCHAR
STARTCHAR gbreve
ENCODING 287
SWIDTH 549 0
DWIDTH 11 0
BBX 10 18 0 -4
BITMAP
08C0
0780
0000
0E40
3FC0
31C0
60C0
60C0
6080
6180
6180
6380
7F80
3D80
0300
4300
FE00
3C00
ENDCHAR
STARTCHAR Gdotaccent
ENCODING 288
SWIDTH 665 0
DWIDTH 13 0
BBX 11 17 1 0
BITMAP
0300
0300
0000
0F80
1FC0
3860
6060
6000
4000
C3E0
C3E0
C060
C0C0
C0C0
61C0
7F80
1F00
ENDCHAR
STARTCHAR gdotaccent
ENCODING 289
SWIDTH 549 0
DWIDTH 11 0
BBX 10 18 0 -4
BITMAP
0300
0200
0000
0E40
3FC0
31C0
60C0
60C0
6080
6180
6180
6380
7F80
3D80
0300
4300
FE00
3C00
ENDCHAR
STARTCHAR uni0122
ENCODING 290
SWIDTH 665 0
DWIDTH 13 0
BBX 11 20 1 -6
BITMAP
0F80
1FC0
3860
6060
6000
4000
C3E0
C3E0
C060
C0C0
C0C0
61C0
7F80
1F00
0000
0000
0C00
0800
1800
1000
ENDCHAR
STARTCHAR uni0123
ENCODING 291
SWIDTH 549 0
DWIDTH 11 0
BBX 10 20 0 -4
BITMAP
0100
0300
0300
0200
0400
0E40
3FC0
31C0
60C0
60C0
6080
6180
6180
6380
7F80
3D80
0300
4300
FE00
3C00
ENDCHAR
STARTCHAR Hcircumflex
ENCODING 292
SWIDTH 696 0
DWIDTH 14 0
BBX 13 18 1 0
BITMAP
0180
06C0
0440
0000
3018
3010
2030
6030
6030
6030
7FF0
7FE0
4060
C060
C060
C060
C040
C0C0
ENDCHAR
STARTCHAR hcircumflex
ENCODING 293
SWIDTH 539 0
DWIDTH 11 0
BBX 10 19 0 0
BITMAP
0300
0D80
0880
0000
1800
1000
1000
3000
3780
3F80
38C0
30C0
20C0
6080
6180
6180
6180
4180
C180
ENDCHAR
STARTCHAR Hbar
ENCODING 294
SWIDTH 684 0
DWIDTH 14 0
BBX 13 14 1 0
BITMAP
3018
3010
2030
FFF8
FFF8
6030
7FF0
7FE0
4060
C060
C060
C060
C040
80C0
ENDCHAR
STARTCHAR hbar
ENCODING 295
SWIDTH 553 0
DWIDTH 11 0
BBX 9 15 1 0
BITMAP
3000
FC00
FC00
2000
6F00
7F80
7180
6180
6180
4180
C100
C100
C300
C300
8300
ENDCHAR
STARTCHAR Itilde
ENCODING 296
SWIDTH 268 0
DWIDTH 5 0
BBX 7 17 1 0
BITMAP
62
9C
00
30
30
30
20
60
60
60
60
60
40
C0
C0
C0
C0
ENDCHAR
STARTCHAR itilde
ENCODING 297
SWIDTH 244 0
DWIDTH 5 0
BBX 7 14 0 0
BITMAP
72
CC
00
30
30
30
20
20
60
60
60
60
40
C0
ENDCHAR
STARTCHAR Imacron
ENCODING 298
SWIDTH 268 0
DWIDTH 5 0
BBX 7 17 1 0
BITMAP
FE
FE
00
30
30
30
20
60
60
60
60
60
40
C0
C0
C0
C0
ENDCHAR
STARTCHAR imacron
ENCODING 299
SWIDTH 244 0
DWIDTH 5 0
BBX 7 14 0 0
BITMAP
7E
FE
00
30
30
30
20
20
60
60
60
60
40
C0
ENDCHAR
STARTCHAR Ibreve
ENCODING 300
SWIDTH 268 0
DWIDTH 5 0
BBX 7 17 1 0
BITMAP
46
3C
00
30
30
30
20
60
60
60
60
60
40
C0
C0
C0
C0
ENDCHAR
STARTCHAR ibreve
ENCODING 301
SWIDTH 244 0
DWIDTH 5 0
BBX 7 14 0 0
BITMAP
66
3C
00
30
30
30
20
20
60
60
60
60
40
C0
ENDCHAR
STARTCHAR Iogonek
ENCODING 302
SWIDTH 268 0
DWIDTH 5 0
BBX 6 18 -1 -4
BITMAP
0C
0C
0C
08
18
18
18
18
18
10
30
30
30
30
40
C0
80
E0
ENDCHAR
STARTCHAR iogonek
ENCODING 303
SWIDTH 240 0
DWIDTH 5 0
BBX 6 19 -1 -4
BITMAP
0C
0C
00
00
18
18
18
10
10
30
30
30
30
20
60
C0
80
80
E0
ENDCHAR
STARTCHAR Idotaccent
ENCODING 304
SWIDTH 268 0
DWIDTH 5 0
BBX 5 17 1 0
BITMAP
10
38
00
30
30
30
20
60
60
60
60
60
40
C0
C0
C0
C0
ENDCHAR
STARTCHAR dotlessi
ENCODING 305
SWIDTH 244 0
DWIDTH 5 0
BBX 4 11 0 0
BITMAP
30
30
30
20
20
60
60
60
60
40
C0
ENDCHAR
STARTCHAR IJ
ENCODING 306
SWIDTH 808 0
DWIDTH 16 0
BBX 15 14 1 0
BITMAP
3006
3006
3006
2004
600C
600C
600C
600C
600C
4008
C418
C638
C7F0
C3E0
ENDCHAR
STARTCHAR ij
ENCODING 307
SWIDTH 476 0
DWIDTH 10 0
BBX 9 19 0 -4
BITMAP
1980
1980
0000
0000
3180
3180
3100
2300
2300
6300
6300
6300
6200
4600
4600
8600
0600
1C00
3800
ENDCHAR
STARTCHAR Jcircumflex
ENCODING 308
SWIDTH 540 0
DWIDTH 11 0
BBX 13 18 0 0
BITMAP
0060
00F0
0198
0000
0060
0040
00C0
00C0
00C0
00C0
00C0
0080
0180
0180
C180
E300
7F00
3C00
ENDCHAR
STARTCHAR jcircumflex
ENCODING 309
SWIDTH 249 0
DWIDTH 5 0
BBX 8 19 -2 -4
BITMAP
06
1F
19
00
0C
0C
0C
0C
08
18
18
18
18
18
10
30
30
F0
E0
ENDCHAR
STARTCHAR uni0136
ENCODING 310
SWIDTH 612 0
DWIDTH 12 0
BBX 12 19 1 -5
BITMAP
3070
30E0
21C0
6380
6700
6C00
7C00
7400
6600
C300
C300
C180
C180
80C0
0000
1800
1800
1000
3000
ENDCHAR
STARTCHAR uni0137
ENCODING 311
SWIDTH 496 0
DWIDTH 10 0
BBX 10 20 0 -5
BITMAP
1800
1000
3000
3000
31C0
3380
3700
2E00
6C00
7C00
6400
6600
4200
4300
C100
0080
1800
1000
3000
2000
ENDCHAR
STARTCHAR kgreenlandic
ENCODING 312
SWIDTH 544 0
DWIDTH 11 0
BBX 11 11 0 0
BITMAP
30E0
3180
3300
2600
3C00
7C00
6E00
6600
6300
4300
C180
ENDCHAR
STARTCHAR Lacute
ENCODING 313
SWIDTH 526 0
DWIDTH 11 0
BBX 8 18 1 0
BITMAP
0E
18
30
00
30
30
20
60
60
60
60
60
40
C0
C0
C0
FF
FF
ENDCHAR
STARTCHAR lacute
ENCODING 314
SWIDTH 240 0
DWIDTH 5 0
BBX 8 19 0 0
BITMAP
07
0C
18
00
18
18
10
30
30
30
30
30
20
60
60
60
60
40
C0
ENDCHAR
STARTCHAR uni013B
ENCODING 315
SWIDTH 526 0
DWIDTH 11 0
BBX 8 19 1 -5
BITMAP
30
30
20
60
60
60
60
60
40
C0
C0
C0
FF
FF
00
18
10
30
20
ENDCHAR
STARTCHAR uni013C
ENCODING 316
SWIDTH 240 0
DWIDTH 5 0
BBX 6 20 -1 -5
BITMAP
0C
0C
08
18
18
18
18
18
10
30
30
30
30
20
20
40
60
60
40
C0
ENDCHAR
STARTCHAR Lcaron
ENCODING 317
SWIDTH 526 0
DWIDTH 11 0
BBX 8 14 1 0
BITMAP
33
33
22
66
60
60
60
60
40
C0
C0
C0
FF
FF
ENDCHAR
STARTCHAR lcaron
ENCODING 318
SWIDTH 313 0
DWIDTH 6 0
BBX 8 15 0 0
BITMAP
1B
1B
12
36
30
30
30
30
20
60
60
60
60
40
C0
ENDCHAR
STARTCHAR Ldot
ENCODING 319
SWIDTH 526 0
DWIDTH 11 0
BBX 8 14 1 0
BITMAP
30
30
20
60
60
60
66
66
40
C0
C0
C0
FF
FF
ENDCHAR
STARTCHAR ldot
ENCODING 320
SWIDTH 347 0
DWIDTH 7 0
BBX 7 15 0 0
BITMAP
18
18
10
30
30
30
30
36
26
60
60
60
60
40
C0
ENDCHAR
STARTCHAR Lslash
ENCODING 321
SWIDTH 527 0
DWIDTH 11 0
BBX 9 14 0 0
BITMAP
1800
1800
1000
3000
3000
3400
3C00
F800
A000
6000
6000
6000
7F80
7F80
ENDCHAR
STARTCHAR lslash
ENCODING 322
SWIDTH 266 0
DWIDTH 5 0
BBX 6 15 0 0
BITMAP
18
18
18
10
30
30
3C
78
F0
B0
20
60
60
60
60
ENDCHAR
STARTCHAR Nacute
ENCODING 323
SWIDTH 696 0
DWIDTH 14 0
BBX 13 18 1 0
BITMAP
00E0
01C0
0380
0000
3018
3810
3830
6C30
6C30
6C30
6630
6620
4360
C360
C1E0
C1E0
C0C0
C0C0
ENDCHAR
STARTCHAR nacute
ENCODING 324
SWIDTH 540 0
DWIDTH 11 0
BBX 10 15 0 0
BITMAP
01C0
0380
0700
0000
3780
3F80
38C0
30C0
60C0
6080
6180
6180
6180
4180
C180
ENDCHAR
STARTCHAR uni0145
ENCODING 325
SWIDTH 696 0
DWIDTH 14 0
BBX 13 19 1 -5
BITMAP
3018
3810
3830
6C30
6C30
6C30
6630
6620
4360
C360
C1E0
C1E0
C0C0
C0C0
0000
0800
1800
1800
1000
ENDCHAR
STARTCHAR uni0146
ENCODING 326
SWIDTH 540 0
DWIDTH 11 0
BBX 10 16 0 -5
BITMAP
3780
3F80
38C0
30C0
60C0
6080
6180
6180
6180
4180
C180
0000
1800
1800
1000
3000
ENDCHAR
STARTCHAR Ncaron
ENCODING 327
SWIDTH 696 0
DWIDTH 14 0
BBX 13 18 1 0
BITMAP
0660
02C0
0180
0000
3018
3810
3830
6C30
6C30
6C30
6630
6620
4360
C360
C1E0
C1E0
C0C0
C0C0
ENDCHAR
STARTCHAR ncaron
ENCODING 328
SWIDTH 540 0
DWIDTH 11 0
BBX 10 15 0 0
BITMAP
0CC0
0580
0300
0000
3780
3F80
38C0
30C0
60C0
6080
6180
6180
6180
4180
C180
ENDCHAR
STARTCHAR napostrophe
ENCODING 329
SWIDTH 540 0
DWIDTH 11 0
BBX 10 15 0 0
BITMAP
2000
6000
6000
C000
3780
3F80
38C0
30C0
60C0
6080
6180
6180
6180
4180
C180
ENDCHAR
STARTCHAR Eng
ENCODING 330
SWIDTH 676 0
DWIDTH 14 0
BBX 13 18 1 -4
BITMAP
3018
3810
3830
2C30
6C30
6430
6630
6260
6360
4160
C1E0
C1E0
C0C0
C0C0
00C0
00C0
0780
0700
ENDCHAR
STARTCHAR eng
ENCODING 331
SWIDTH 554 0
DWIDTH 11 0
BBX 10 15 0 -4
BITMAP
3700
3F80
30C0
20C0
60C0
6080
6080
6180
6180
4180
C180
0100
0300
0F00
0E00
ENDCHAR
STARTCHAR Omacron
ENCODING 332
SWIDTH 671 0
DWIDTH 13 0
BBX 11 17 1 0
BITMAP
0FE0
0FE0
0000
0F80
1FC0
38E0
6060
6020
C020
C060
C060
C060
C060
C0C0
61C0
7F80
3E00
ENDCHAR
STARTCHAR omacron
ENCODING 333
SWIDTH 558 0
DWIDTH 11 0
BBX 9 14 1 0
BITMAP
1F80
3F80
0000
1E00
3F00
6380
C180
C180
C180
8180
C180
C300
7E00
3C00
ENDCHAR
STARTCHAR Obreve
ENCODING 334
SWIDTH 671 0
DWIDTH 13 0
BBX 11 17 1 0
BITMAP
0460
03C0
0000
0F80
1FC0
38E0
6060
6020
C020
C060
C060
C060
C060
C0C0
61C0
7F80
3E00
ENDCHAR
STARTCHAR obreve
ENCODING 335
SWIDTH 558 0
DWIDTH 11 0
BBX 9 14 1 0
BITMAP
1180
0F00
0000
1E00
3F00
6380
C180
C180
C180
8180
C180
C300
7E00
3C00
ENDCHAR
STARTCHAR Ohungarumlaut
ENCODING 336
SWIDTH 671 0
DWIDTH 13 0
BBX 12 18 1 0
BITMAP
01B0
0360
06C0
0000
0F80
1FC0
38E0
6060
6020
C020
C060
C060
C060
C060
C0C0
61C0
7F80
3E00
ENDCHAR
STARTCHAR ohungarumlaut
ENCODING 337
SWIDTH 558 0
DWIDTH 11 0
BBX 10 15 1 0
BITMAP
06C0
0D80
1B00
0000
1E00
3F00
6380
C180
C180
C180
8180
C180
C300
7E00
3C00
ENDCHAR
STARTCHAR OE
ENCODING 338
SWIDTH 929 0
DWIDTH 19 0
BBX 18 14 1 0
BITMAP
0FFFC0
1FFF80
384000
60C000
60C000
60C000
40FF00
C0FF00
C18000
C18000
C18000
618000
7FFF00
3FFE00
ENDCHAR
STARTCHAR oe
ENCODING 339
SWIDTH 885 0
DWIDTH 18 0
BBX 16 11 1 0
BITMAP
1E1E
3F7F
61E3
41C1
C1FF
C1FF
C180
C180
C3C4
7EFE
3C7C
ENDCHAR
STARTCHAR Racute
ENCODING 340
SWIDTH 602 0
DWIDTH 12 0
BBX 11 18 1 0
BITMAP
01C0
0300
0600
0000
3F80
3FC0
30C0
6060
6060
60E0
61C0
7F80
7F00
C300
C300
C180
C180
81C0
ENDCHAR
STARTCHAR racute
ENCODING 341
SWIDTH 333 0
DWIDTH 7 0
BBX 8 15 0 0
BITMAP
03
06
0C
00
36
3E
38
30
20
60
60
60
60
60
C0
ENDCHAR
STARTCHAR uni0156
ENCODING 342
SWIDTH 602 0
DWIDTH 12 0
BBX 11 19 1 -5
BITMAP
3F80
3FC0
30C0
6060
6060
60E0
61C0
7F80
7F00
C300
C300
C180
C180
8180
0040
1000
3000
3000
6000
ENDCHAR
STARTCHAR uni0157
ENCODING 343
SWIDTH 333 0
DWIDTH 7 0
BBX 8 16 -1 -5
BITMAP
1B
1F
1C
18
10
30
30
30
30
30
20
40
60
60
40
C0
ENDCHAR
STARTCHAR Rcaron
ENCODING 344
SWIDTH 602 0
DWIDTH 12 0
BBX 11 18 1 0
BITMAP
0CC0
0500
0200
0000
3F80
3FC0
30E0
6060
6060
60C0
61C0
7F80
7F00
C300
C300
C180
C180
81C0
ENDCHAR
STARTCHAR rcaron
ENCODING 345
SWIDTH 333 0
DWIDTH 7 0
BBX 8 15 0 0
BITMAP
33
1E
0C
00
36
3E
38
30
20
60
60
60
60
60
C0
ENDCHAR
STARTCHAR Sacute
ENCODING 346
SWIDTH 580 0
DWIDTH 12 0
BBX 11 18 1 0
BITMAP
01C0
0380
0700
0000
0F80
3FC0
30C0
6060
6000
3000
1E00
0F80
0180
00C0
C0C0
C180
7F80
3E00
ENDCHAR
STARTCHAR sacute
ENCODING 347
SWIDTH 504 0
DWIDTH 10 0
BBX 10 15 0 0
BITMAP
01C0
0300
0600
0000
1F00
3F80
3180
6000
3C00
1F00
0300
0180
E300
7F00
3E00
ENDCHAR
STARTCHAR Scircumflex
ENCODING 348
SWIDTH 580 0
DWIDTH 12 0
BBX 11 18 1 0
BITMAP
0300
0F80
0C80
0000
0F80
3FC0
30C0
6060
6000
3000
1E00
0F80
0180
00C0
C0C0
C180
7F80
3E00
ENDCHAR
STARTCHAR scircumflex
ENCODING 349
SWIDTH 504 0
DWIDTH 10 0
BBX 9 15 0 0
BITMAP
0300
0D80
1880
0000
1F00
3F80
3180
6000
3C00
1F00
0300
0180
E300
7F00
3E00
ENDCHAR
STARTCHAR Scedilla
ENCODING 350
SWIDTH 580 0
DWIDTH 12 0
BBX 11 18 1 -4
BITMAP
0F80
3FC0
30C0
6060
6000
3000
1E00
0F80
0180
00C0
C0C0
C180
7F80
3E00
1000
0C00
0800
3800
ENDCHAR
STARTCHAR scedilla
ENCODING 351
SWIDTH 504 0
DWIDTH 10 0
BBX 9 15 0 -4
BITMAP
1F00
3F80
3180
6000
3C00
1F00
0300
0180
E300
7F00
3E00
0800
1C00
0C00
1800
ENDCHAR
STARTCHAR Scaron
ENCODING 352
SWIDTH 580 0
DWIDTH 12 0
BBX 11 18 1 0
BITMAP
0CC0
0580
0300
0000
0F80
3FC0
30C0
6060
6000
3000
1E00
0F80
0180
00C0
C0C0
C180
7F80
3E00
ENDCHAR
STARTCHAR scaron
ENCODING 353
SWIDTH 504 0
DWIDTH 10 0
BBX 10 15 0 0
BITMAP
0CC0
0500
0600
0000
1F00
3F80
3180
6000
3C00
1F00
0300
0180
E300
7F00
3E00
ENDCHAR
STARTCHAR uni0162
ENCODING 354
SWIDTH 583 0
DWIDTH 12 0
BBX 11 18 2 -4
BITMAP
FFE0
FFC0
0C00
0C00
0800
1800
1800
1800
1800
1800
1000
3000
3000
3000
2000
1000
1000
6000
ENDCHAR
STARTCHAR uni0163
ENCODING 355
SWIDTH 321 0
DWIDTH 6 0
BBX 6 18 0 -4
BITMAP
18
18
10
7C
FC
30
30
30
20
20
60
60
78
38
30
18
18
30
ENDCHAR
STARTCHAR Tcaron
ENCODING 356
SWIDTH 583 0
DWIDTH 12 0
BBX 11 18 2 0
BITMAP
1980
0A00
0600
0000
FFE0
FFC0
0C00
0C00
0800
1800
1800
1800
1800
1800
1000
3000
3000
3000
ENDCHAR
STARTCHAR tcaron
ENCODING 357
SWIDTH 341 0
DWIDTH 7 0
BBX 9 16 0 0
BITMAP
0180
0180
1B00
1A00
1000
7C00
FC00
3000
3000
3000
2000
2000
6000
6000
7800
3800
ENDCHAR
STARTCHAR Tbar
ENCODING 358
SWIDTH 583 0
DWIDTH 12 0
BBX 11 14 2 0
BITMAP
FFE0
FFC0
0C00
0C00
0800
7F00
7E00
1800
1800
1800
1000
3000
3000
3000
ENDCHAR
STARTCHAR tbar
ENCODING 359
SWIDTH 321 0
DWIDTH 6 0
BBX 6 14 0 0
BITMAP
18
18
18
7C
7C
30
FC
FC
30
20
20
60
38
38
ENDCHAR
STARTCHAR Utilde
ENCODING 360
SWIDTH 633 0
DWIDTH 13 0
BBX 12 17 1 0
BITMAP
0E60
09C0
0000
3030
3030
2030
6020
6060
6060
6060
4060
4060
C0C0
C0C0
61C0
7F80
3E00
ENDCHAR
STARTCHAR utilde
ENCODING 361
SWIDTH 539 0
DWIDTH 11 0
BBX 9 14 1 0
BITMAP
1C80
3300
0000
6080
6180
6180
4180
4180
C180
C100
C300
C700
7F00
7B00
ENDCHAR
STARTCHAR Umacron
ENCODING 362
SWIDTH 633 0
DWIDTH 13 0
BBX 12 17 1 0
BITMAP
0FE0
0FC0
0000
3030
3030
2030
6020
6060
6060
6060
4060
4060
C0C0
C0C0
61C0
7F80
3E00
ENDCHAR
STARTCHAR umacron
ENCODING 363
SWIDTH 539 0
DWIDTH 11 0
BBX 9 14 1 0
BITMAP
1F80
3F80
0000
6080
6180
6180
4180
4180
C180
C100
C300
C700
7F00
7B00
ENDCHAR
STARTCHAR Ubreve
ENCODING 364
SWIDTH 633 0
DWIDTH 13 0
BBX 12 17 1 0
BITMAP
0CC0
0780
0000
3030
3030
2030
6020
6060
6060
6060
4060
4060
C0C0
C0C0
61C0
7F80
3E00
ENDCHAR
STARTCHAR ubreve
ENCODING 365
SWIDTH 539 0
DWIDTH 11 0
BBX 9 14 1 0
BITMAP
1980
0F00
0000
6080
6180
6180
4180
4180
C180
C100
C300
C700
7F00
7B00
ENDCHAR
STARTCHAR Uring
ENCODING 366
SWIDTH 633 0
DWIDTH 13 0
BBX 12 19 1 0
BITMAP
0380
0480
0480
0380
0000
3030
3030
2030
6020
6060
6060
6060
4060
4060
C0C0
C0C0
61C0
7F80
3E00
ENDCHAR
STARTCHAR uring
ENCODING 367
SWIDTH 539 0
DWIDTH 11 0
BBX 9 16 1 0
BITMAP
0600
0900
0900
0E00
0000
6080
6180
6180
4180
4180
C180
C100
C300
C700
7F00
7B00
ENDCHAR
STARTCHAR Uhungarumlaut
ENCODING 368
SWIDTH 633 0
DWIDTH 13 0
BBX 12 18 1 0
BITMAP
03F0
06C0
0D80
0000
3030
3030
2030
6020
6060
6060
6060
4060
4060
C0C0
C0C0
61C0
7F80
3E00
ENDCHAR
STARTCHAR uhungarumlaut
ENCODING 369
SWIDTH 539 0
DWIDTH 11 0
BBX 10 15 1 0
BITMAP
06C0
0D80
1B00
0000
6080
6180
6180
4180
4180
C180
C100
C300
C700
7F00
7B00
ENDCHAR
STARTCHAR Uogonek
ENCODING 370
SWIDTH 633 0
DWIDTH 13 0
BBX 12 18 1 -4
BITMAP
3030
2030
6020
6060
6060
6060
6060
4060
C0C0
C0C0
C0C0
E180
7F80
3E00
0C00
0800
0800
0E00
ENDCHAR
STARTCHAR uogonek
ENCODING 371
SWIDTH 539 0
DWIDTH 11 0
BBX 9 15 1 -4
BITMAP
6180
6180
6180
4180
C180
C100
C300
C300
C700
FF00
7B00
0600
0C00
0800
0E00
ENDCHAR
STARTCHAR Wcircumflex
ENCODING 372
SWIDTH 865 0
DWIDTH 17 0
BBX 16 18 2 0
BITMAP
01C0
0360
0660
0000
C183
C183
C386
C286
C684
C48C
CCCC
4CD8
48D8
58D0
50F0
7070
6060
6060
ENDCHAR
STARTCHAR wcircumflex
ENCODING 373
SWIDTH 733 0
DWIDTH 15 0
BBX 14 15 1 0
BITMAP
0180
06C0
0C40
0000
C30C
4308
4718
4518
4D10
6DB0
69A0
79E0
70C0
70C0
60C0
ENDCHAR
STARTCHAR Ycircumflex
ENCODING 374
SWIDTH 587 0
DWIDTH 12 0
BBX 11 18 2 0
BITMAP
0600
1B00
1900
0000
C0E0
C0C0
4180
6300
6300
2600
3C00
3C00
1800
1000
3000
3000
3000
3000
ENDCHAR
STARTCHAR ycircumflex
ENCODING 375
SWIDTH 463 0
DWIDTH 9 0
BBX 11 19 -1 -4
BITMAP
0300
0680
0CC0
0000
30E0
30C0
3080
1180
1100
1B00
1A00
1E00
1C00
0C00
0800
1800
3000
F000
E000
ENDCHAR
STARTCHAR Ydieresis
ENCODING 376
SWIDTH 587 0
DWIDTH 12 0
BBX 11 17 2 0
BITMAP
1980
1980
0000
C0E0
C0C0
4180
6300
6300
2600
3C00
3C00
1800
1000
3000
3000
3000
3000
ENDCHAR
STARTCHAR Zacute
ENCODING 377
SWIDTH 585 0
DWIDTH 12 0
BBX 12 18 0 0
BITMAP
00E0
0180
0300
0000
3FF0
3FF0
0060
00C0
0180
0300
0600
0E00
1C00
3800
3000
6000
FFC0
FFC0
ENDCHAR
STARTCHAR zacute
ENCODING 378
SWIDTH 485 0
DWIDTH 10 0
BBX 10 15 0 0
BITMAP
0180
0300
0600
0000
3FC0
3F80
4380
0300
0600
0C00
1800
3000
6000
FF00
FF00
ENDCHAR
STARTCHAR Zdotaccent
ENCODING 379
SWIDTH 585 0
DWIDTH 12 0
BBX 12 17 0 0
BITMAP
0180
0180
0000
3FF0
3FF0
0060
00C0
0180
0300
0600
0E00
1C00
3800
3000
6000
FFC0
FFC0
ENDCHAR
STARTCHAR zdotaccent
ENCODING 380
SWIDTH 485 0
DWIDTH 10 0
BBX 10 14 0 0
BITMAP
0600
0600
0000
3FC0
3F80
4380
0300
0600
0C00
1800
3000
6000
FF00
FF00
ENDCHAR
STARTCHAR Zcaron
ENCODING 381
SWIDTH 585 0
DWIDTH 12 0
BBX 12 18 0 0
BITMAP
0660
02C0
0180
0000
3FF0
3FF0
0060
00C0
0180
0300
0600
0E00
1C00
3800
3000
6000
FFC0
FFC0
ENDCHAR
STARTCHAR zcaron
ENCODING 382
SWIDTH 485 0
DWIDTH 10 0
BBX 10 15 0 0
BITMAP
1980
0F00
0600
0000
3FC0
3F80
4380
0300
0600
0C00
1800
3000
6000
FF00
FF00
ENDCHAR
STARTCHAR longs
ENCODING 383
SWIDTH 245 0
DWIDTH 5 0
BBX 8 15 0 0
BITMAP
0F
1E
18
30
30
30
30
30
20
60
60
60
60
60
C0
ENDCHAR
STARTCHAR uni018F
ENCODING 399
SWIDTH 675 0
DWIDTH 14 0
BBX 12 14 1 0
BITMAP
0F80
3FC0
10E0
0060
0030
0030
0030
FFF0
FFE0
C060
C040
E1C0
7F80
3E00
ENDCHAR
STARTCHAR florin
ENCODING 402
SWIDTH 334 0
DWIDTH 7 0
BBX 10 19 -2 -4
BITMAP
01C0
03C0
0600
0600
1F80
1F00
0400
0C00
0C00
0C00
0C00
0C00
0800
1800
1800
1800
1800
7000
E000
ENDCHAR
STARTCHAR Ohorn
ENCODING 416
SWIDTH 670 0
DWIDTH 13 0
BBX 14 16 1 0
BITMAP
0004
000C
0FCC
1FF8
38F0
6060
6020
C020
C020
C060
C060
C060
C0C0
61C0
7F80
1E00
ENDCHAR
STARTCHAR ohorn
ENCODING 417
SWIDTH 559 0
DWIDTH 11 0
BBX 11 12 1 0
BITMAP
0020
1F60
3FE0
61C0
C180
C180
C180
C180
C180
C300
7E00
3C00
ENDCHAR
STARTCHAR Uhorn
ENCODING 431
SWIDTH 679 0
DWIDTH 14 0
BBX 16 15 1 0
BITMAP
0003
3032
2036
603C
6078
6060
6060
6060
4060
C0C0
C0C0
C0C0
E1C0
7F80
3E00
ENDCHAR
STARTCHAR uhorn
ENCODING 432
SWIDTH 604 0
DWIDTH 12 0
BBX 12 12 1 0
BITMAP
0010
61B0
61E0
61E0
4180
C180
C100
C300
C300
C700
FF00
7B00
ENDCHAR
STARTCHAR uni01F0
ENCODING 496
SWIDTH 249 0
DWIDTH 5 0
BBX 9 19 -2 -4
BITMAP
1980
0B00
0600
0000
0C00
0C00
0C00
0C00
0800
1800
1800
1800
1800
1800
1000
3000
3000
F000
E000
ENDCHAR
STARTCHAR Aringacute
ENCODING 506
SWIDTH 637 0
DWIDTH 13 0
BBX 13 20 -1 0
BITMAP
0038
0060
0000
00C0
0120
00C0
00C0
01C0
01C0
0340
0640
0660
0C60
0C60
1820
1FE0
3FF0
3030
6030
C030
ENDCHAR
STARTCHAR aringacute
ENCODING 507
SWIDTH 532 0
DWIDTH 11 0
BBX 9 17 1 0
BITMAP
0180
0200
0000
0E00
0A00
0E00
1E00
7F00
6100
0180
3F00
7F00
C300
C300
C700
FF00
7B00
ENDCHAR
STARTCHAR AEacute
ENCODING 508
SWIDTH 911 0
DWIDTH 18 0
BBX 20 18 -1 0
BITMAP
000E00
001C00
003800
000000
003FF0
007FE0
007800
00D800
019000
031000
033FC0
063FC0
0C3000
1FF000
3FF000
302000
603FC0
C07FC0
ENDCHAR
STARTCHAR aeacute
ENCODING 509
SWIDTH 823 0
DWIDTH 16 0
BBX 16 15 0 0
BITMAP
0038
0060
00C0
0000
1F3C
3FFE
61C2
0183
3FFF
7FFE
E100
C380
C784
FEFC
7C7E
ENDCHAR
STARTCHAR Oslashacute
ENCODING 510
SWIDTH 671 0
DWIDTH 13 0
BBX 14 20 0 -1
BITMAP
0070
00E0
01C0
0000
0000
07CC
0FF0
1C30
3070
30D0
6090
6130
6230
6630
6C30
7860
70E0
3FC0
7F00
C000
ENDCHAR
STARTCHAR oslashacute
ENCODING 511
SWIDTH 554 0
DWIDTH 11 0
BBX 9 16 1 -1
BITMAP
0380
0600
0C00
0080
1F00
3F00
6380
C580
CD80
C980
9180
B380
E700
FE00
7C00
8000
ENDCHAR
STARTCHAR uni0218
ENCODING 536
SWIDTH 580 0
DWIDTH 12 0
BBX 11 19 1 -5
BITMAP
0F80
3FC0
30C0
6060
6000
3000
1E00
0F80
0180
00C0
C0C0
C180
7F80
3E00
0000
1800
1000
3000
2000
ENDCHAR
STARTCHAR uni0219
ENCODING 537
SWIDTH 504 0
DWIDTH 10 0
BBX 9 17 0 -6
BITMAP
1F00
3F80
3180
6000
3C00
1F00
0300
0180
E300
7F00
3E00
0000
0000
1800
1800
1000
3000
ENDCHAR
STARTCHAR uni021A
ENCODING 538
SWIDTH 583 0
DWIDTH 12 0
BBX 11 19 2 -5
BITMAP
FFE0
FFC0
0C00
0C00
0800
1800
1800
1800
1800
1800
1000
3000
3000
3000
0000
2000
6000
6000
4000
ENDCHAR
STARTCHAR uni021B
ENCODING 539
SWIDTH 321 0
DWIDTH 6 0
BBX 6 19 0 -5
BITMAP
18
18
10
7C
FC
30
30
30
20
20
60
60
78
38
00
30
30
60
40
ENDCHAR
STARTCHAR uni0237
ENCODING 567
SWIDTH 249 0
DWIDTH 5 0
BBX 6 15 -2 -4
BITMAP
0C
0C
0C
0C
08
18
18
18
18
18
10
30
30
F0
E0
ENDCHAR
STARTCHAR uni0259
ENCODING 601
SWIDTH 516 0
DWIDTH 10 0
BBX 9 11 1 0
BITMAP
3E00
7F00
4300
0100
0180
FF80
FF00
C300
C700
FE00
7800
ENDCHAR
STARTCHAR uni02BC
ENCODING 700
SWIDTH 198 0
DWIDTH 4 0
BBX 4 5 1 10
BITMAP
30
20
60
60
C0
ENDCHAR
STARTCHAR circumflex
ENCODING 710
SWIDTH 461 0
DWIDTH 9 0
BBX 5 3 3 12
BITMAP
30
F8
C8
ENDCHAR
STARTCHAR caron
ENCODING 711
SWIDTH 435 0
DWIDTH 9 0
BBX 6 3 3 12
BITMAP
CC
50
20
ENDCHAR
STARTCHAR uni02C9
ENCODING 713
SWIDTH 449 0
DWIDTH 9 0
BBX 7 2 2 12
BITMAP
7E
FE
ENDCHAR
STARTCHAR breve
ENCODING 728
SWIDTH 418 0
DWIDTH 8 0
BBX 5 2 3 12
BITMAP
88
F0
ENDCHAR
STARTCHAR dotaccent
ENCODING 729
SWIDTH 240 0
DWIDTH 5 0
BBX 2 2 3 12
BITMAP
C0
C0
ENDCHAR
STARTCHAR ring
ENCODING 730
SWIDTH 329 0
DWIDTH 7 0
BBX 4 4 3 12
BITMAP
E0
90
B0
E0
ENDCHAR
STARTCHAR ogonek
ENCODING 731
SWIDTH 267 0
DWIDTH 5 0
BBX 4 5 -1 -4
BITMAP
30
60
C0
C0
60
ENDCHAR
STARTCHAR tilde
ENCODING 732
SWIDTH 462 0
DWIDTH 9 0
BBX 7 2 2 12
BITMAP
72
CC
ENDCHAR
STARTCHAR hungarumlaut
ENCODING 733
SWIDTH 366 0
DWIDTH 7 0
BBX 7 3 2 12
BITMAP
36
6C
D8
ENDCHAR
STARTCHAR uni02F3
ENCODING 755
SWIDTH 290 0
DWIDTH 6 0
BBX 3 3 0 -4
BITMAP
E0
A0
E0
ENDCHAR
STARTCHAR gravecomb
ENCODING 768
SWIDTH 0 0
DWIDTH 0 0
BBX 3 3 -6 12
BITMAP
C0
40
60
ENDCHAR
STARTCHAR acutecomb
ENCODING 769
SWIDTH 0 0
DWIDTH 0 0
BBX 4 3 -5 12
BITMAP
30
60
C0
ENDCHAR
STARTCHAR tildecomb
ENCODING 771
SWIDTH 0 0
DWIDTH 0 0
BBX 7 2 -7 12
BITMAP
E6
9C
ENDCHAR
STARTCHAR hookabovecomb
ENCODING 777
SWIDTH 0 0
DWIDTH 0 0
BBX 3 4 -5 12
BITMAP
C0
20
E0
80
ENDCHAR
STARTCHAR uni030F
ENCODING 783
SWIDTH 0 0
DWIDTH 0 0
BBX 7 3 -8 12
BITMAP
FC
7C
36
ENDCHAR
STARTCHAR dotbelowcomb
ENCODING 803
SWIDTH 0 0
DWIDTH 0 0
BBX 2 2 -8 -3
BITMAP
C0
C0
ENDCHAR
STARTCHAR tonos
ENCODING 900
SWIDTH 253 0
DWIDTH 5 0
BBX 3 3 3 12
BITMAP
60
C0
80
ENDCHAR
STARTCHAR dieresistonos
ENCODING 901
SWIDTH 495 0
DWIDTH 10 0
BBX 8 4 2 12
BITMAP
0C
08
5B
C3
ENDCHAR
STARTCHAR Alphatonos
ENCODING 902
SWIDTH 637 0
DWIDTH 13 0
BBX 12 15 -1 0
BITMAP
0600
0CC0
09C0
01C0
0340
0640
0660
0C60
0C60
1820
1FE0
3FF0
3030
6030
C030
ENDCHAR
STARTCHAR anoteleia
ENCODING 903
SWIDTH 258 0
DWIDTH 5 0
BBX 2 2 2 6
BITMAP
C0
C0
ENDCHAR
STARTCHAR Epsilontonos
ENCODING 904
SWIDTH 556 0
DWIDTH 11 0
BBX 13 15 -1 0
BITMAP
6000
CFF8
8FF8
0C00
1800
1800
1800
1FE0
1FE0
1000
3000
3000
3000
3FE0
3FC0
ENDCHAR
STARTCHAR Etatonos
ENCODING 905
SWIDTH 696 0
DWIDTH 14 0
BBX 15 15 -1 0
BITMAP
6000
4C06
CC04
080C
180C
180C
180C
1FFC
1FF8
1018
3018
3018
3018
3010
3030
ENDCHAR
STARTCHAR Iotatonos
ENCODING 906
SWIDTH 268 0
DWIDTH 5 0
BBX 6 15 -1 0
BITMAP
60
4C
CC
0C
08
18
18
18
18
18
10
30
30
30
30
ENDCHAR
STARTCHAR Omicrontonos
ENCODING 908
SWIDTH 681 0
DWIDTH 14 0
BBX 12 15 1 0
BITMAP
6000
CF80
9FC0
3860
7060
6030
6030
C030
C020
C060
C060
C0C0
61C0
7F80
1E00
ENDCHAR
STARTCHAR Upsilontonos
ENCODING 910
SWIDTH 636 0
DWIDTH 13 0
BBX 15 15 -1 0
BITMAP
6000
CC0E
8C0C
0418
0630
0630
0260
03C0
03C0
0180
0100
0300
0300
0300
0300
ENDCHAR
STARTCHAR Omegatonos
ENCODING 911
SWIDTH 659 0
DWIDTH 13 0
BBX 12 15 0 0
BITMAP
3000
67C0
4FE0
1C70
3830
3030
3030
2030
6030
6030
2060
3040
30C0
7BE0
FBE0
ENDCHAR
STARTCHAR iotadieresistonos
ENCODING 912
SWIDTH 318 0
DWIDTH 6 0
BBX 8 16 0 0
BITMAP
0C
08
DB
C3
00
18
30
30
30
30
30
20
20
60
38
38
ENDCHAR
STARTCHAR Alpha
ENCODING 913
SWIDTH 637 0
DWIDTH 13 0
BBX 12 14 -1 0
BITMAP
00C0
01C0
01C0
0340
0640
0660
0C60
0C60
1820
1FE0
3FF0
3030
6030
C030
ENDCHAR
STARTCHAR Beta
ENCODING 914
SWIDTH 608 0
DWIDTH 12 0
BBX 11 14 0 0
BITMAP
1FC0
1FE0
1060
3020
3060
30E0
3FC0
3FC0
60C0
6060
6060
60C0
7FC0
FF00
ENDCHAR
STARTCHAR Gamma
ENCODING 915
SWIDTH 544 0
DWIDTH 11 0
BBX 11 14 1 0
BITMAP
3FE0
3FC0
3000
2000
6000
6000
6000
6000
6000
C000
C000
C000
C000
C000
ENDCHAR
STARTCHAR uni0394
ENCODING 916
SWIDTH 688 0
DWIDTH 14 0
BBX 13 14 -1 0
BITMAP
00C0
00C0
01E0
0360
0360
0620
0430
0C30
1830
1810
3010
2018
7FF8
FFF8
ENDCHAR
STARTCHAR Epsilon
ENCODING 917
SWIDTH 556 0
DWIDTH 11 0
BBX 11 14 1 0
BITMAP
3FE0
3FE0
3000
6000
6000
6000
7F80
7F80
4000
C000
C000
C000
FF80
FF00
ENDCHAR
STARTCHAR Zeta
ENCODING 918
SWIDTH 585 0
DWIDTH 12 0
BBX 12 14 0 0
BITMAP
3FF0
3FF0
0060
00C0
0180
0300
0600
0E00
1C00
3800
3000
6000
FFC0
FFC0
ENDCHAR
STARTCHAR Eta
ENCODING 919
SWIDTH 696 0
DWIDTH 14 0
BBX 13 14 1 0
BITMAP
3018
3010
2030
6030
6030
6030
7FF0
7FE0
4060
C060
C060
C060
C040
C0C0
ENDCHAR
STARTCHAR Theta
ENCODING 920
SWIDTH 664 0
DWIDTH 13 0
BBX 11 14 1 0
BITMAP
0F80
1FC0
38E0
6060
6020
C020
DF20
DF60
C060
C060
C0C0
61C0
7F80
3E00
ENDCHAR
STARTCHAR Iota
ENCODING 921
SWIDTH 268 0
DWIDTH 5 0
BBX 4 14 1 0
BITMAP
30
30
30
20
60
60
60
60
60
40
C0
C0
C0
C0
ENDCHAR
STARTCHAR Kappa
ENCODING 922
SWIDTH 612 0
DWIDTH 12 0
BBX 12 14 1 0
BITMAP
3070
30E0
21C0
6380
6700
6C00
7C00
7400
6600
C300
C300
C180
C180
80C0
ENDCHAR
STARTCHAR Lambda
ENCODING 923
SWIDTH 640 0
DWIDTH 13 0
BBX 12 14 -1 0
BITMAP
00C0
01C0
01C0
03C0
0640
0660
0C60
0C60
1860
1860
3020
3030
6030
E030
ENDCHAR
STARTCHAR Mu
ENCODING 924
SWIDTH 851 0
DWIDTH 17 0
BBX 16 14 1 0
BITMAP
3007
3807
380E
781E
681E
6C36
6C36
6C64
444C
C4CC
C78C
C78C
C70C
8218
ENDCHAR
STARTCHAR Nu
ENCODING 925
SWIDTH 696 0
DWIDTH 14 0
BBX 13 14 1 0
BITMAP
3018
3810
3830
6C30
6C30
6C30
6630
6620
4360
C360
C1E0
C1E0
C0C0
C0C0
ENDCHAR
STARTCHAR Xi
ENCODING 926
SWIDTH 558 0
DWIDTH 11 0
BBX 11 14 0 0
BITMAP
1FE0
3FE0
0000
0000
0000
0000
3FC0
3F80
0000
0000
0000
0000
FF80
FF80
ENDCHAR
STARTCHAR Omicron
ENCODING 927
SWIDTH 671 0
DWIDTH 13 0
BBX 11 14 1 0
BITMAP
0F80
1FC0
38E0
6060
6020
C020
C060
C060
C060
C060
C0C0
61C0
7F80
3E00
ENDCHAR
STARTCHAR Pi
ENCODING 928
SWIDTH 696 0
DWIDTH 14 0
BBX 13 14 1 0
BITMAP
3FF8
3FF0
3030
2030
6030
6030
6020
6060
6060
C060
C060
C060
C040
C0C0
ENDCHAR
STARTCHAR Rho
ENCODING 929
SWIDTH 616 0
DWIDTH 12 0
BBX 12 14 0 0
BITMAP
1FC0
1FE0
3070
3030
3030
3030
3060
3FE0
7F80
6000
6000
6000
6000
C000
ENDCHAR
STARTCHAR Sigma
ENCODING 931
SWIDTH 558 0
DWIDTH 11 0
BBX 11 14 0 0
BITMAP
3FE0
3FE0
3000
1800
0C00
0C00
0600
0600
0C00
1800
3000
E000
FFC0
FF80
ENDCHAR
STARTCHAR Tau
ENCODING 932
SWIDTH 583 0
DWIDTH 12 0
BBX 11 14 2 0
BITMAP
FFE0
FFC0
0C00
0C00
0800
1800
1800
1800
1800
1800
1000
3000
3000
3000
ENDCHAR
STARTCHAR Upsilon
ENCODING 933
SWIDTH 587 0
DWIDTH 12 0
BBX 11 14 2 0
BITMAP
C0E0
C0C0
4180
6300
6300
2600
3C00
3C00
1800
1000
3000
3000
3000
3000
ENDCHAR
STARTCHAR Phi
ENCODING 934
SWIDTH 699 0
DWIDTH 14 0
BBX 13 14 1 0
BITMAP
0300
0300
0FC0
3FE0
7330
C310
C618
C610
C630
E660
7FE0
3F80
0C00
0C00
ENDCHAR
STARTCHAR Chi
ENCODING 935
SWIDTH 612 0
DWIDTH 12 0
BBX 13 14 0 0
BITMAP
3038
1830
1860
0CC0
0D80
0580
0700
0700
0F00
1980
3180
30C0
60C0
C0E0
ENDCHAR
STARTCHAR Psi
ENCODING 936
SWIDTH 675 0
DWIDTH 14 0
BBX 12 14 2 0
BITMAP
6630
C630
C630
C630
C630
CC60
CC60
CC60
EDC0
7F80
3F00
0800
1800
1800
ENDCHAR
STARTCHAR uni03A9
ENCODING 937
SWIDTH 649 0
DWIDTH 13 0
BBX 12 14 0 0
BITMAP
07C0
0FE0
1C70
3030
3030
2030
6030
6030
6020
6060
2040
3180
FBE0
FBE0
ENDCHAR
STARTCHAR Iotadieresis
ENCODING 938
SWIDTH 268 0
DWIDTH 5 0
BBX 7 17 1 0
BITMAP
44
EE
00
30
30
30
20
60
60
60
60
60
40
C0
C0
C0
C0
ENDCHAR
STARTCHAR Upsilondieresis
ENCODING 939
SWIDTH 587 0
DWIDTH 12 0
BBX 11 17 2 0
BITMAP
1980
1980
0000
C0E0
C0C0
4180
6300
6300
2600
3C00
3C00
1800
1000
3000
3000
3000
3000
ENDCHAR
STARTCHAR alphatonos
ENCODING 940
SWIDTH 552 0
DWIDTH 11 0
BBX 9 15 1 0
BITMAP
0300
0200
0600
0000
1C80
3E80
6380
C180
C180
C180
C100
C300
C700
7F80
7980
ENDCHAR
STARTCHAR epsilontonos
ENCODING 941
SWIDTH 527 0
DWIDTH 11 0
BBX 9 15 1 0
BITMAP
0200
0600
0400
0000
3E00
7F00
6180
6000
7C00
7C00
C000
8000
C300
FE00
7C00
ENDCHAR
STARTCHAR etatonos
ENCODING 942
SWIDTH 554 0
DWIDTH 11 0
BBX 10 19 0 -4
BITMAP
0180
0300
0200
0000
3700
3F80
31C0
20C0
60C0
6080
6080
6180
6180
4180
C180
0100
0300
0300
0300
ENDCHAR
STARTCHAR iotatonos
ENCODING 943
SWIDTH 318 0
DWIDTH 6 0
BBX 5 15 1 0
BITMAP
18
10
30
00
30
60
60
60
60
60
40
40
C0
70
70
ENDCHAR
STARTCHAR upsilondieresistonos
ENCODING 944
SWIDTH 533 0
DWIDTH 11 0
BBX 9 16 1 0
BITMAP
0600
0600
3580
3180
0000
6180
6180
6180
6180
4180
4180
C180
C300
E700
7E00
3C00
ENDCHAR
STARTCHAR alpha
ENCODING 945
SWIDTH 552 0
DWIDTH 11 0
BBX 9 11 1 0
BITMAP
1C80
3E80
6380
C180
C180
C180
C100
C300
C700
7F80
7980
ENDCHAR
STARTCHAR beta
ENCODING 946
SWIDTH 579 0
DWIDTH 12 0
BBX 11 18 0 -4
BITMAP
0780
0FC0
1860
1060
3060
30C0
3780
3780
20C0
2040
60C0
61C0
7F80
7F00
4000
C000
C000
C000
ENDCHAR
STARTCHAR gamma
ENCODING 947
SWIDTH 490 0
DWIDTH 10 0
BBX 9 15 1 -4
BITMAP
C180
4180
6300
6300
6600
6400
2C00
2800
3800
3000
3000
3000
3000
2000
6000
ENDCHAR
STARTCHAR delta
ENCODING 948
SWIDTH 554 0
DWIDTH 11 0
BBX 9 15 1 0
BITMAP
0F00
1F80
3080
3000
1E00
3F00
6380
C180
C180
C180
8180
C300
C700
7E00
3C00
ENDCHAR
STARTCHAR epsilon
ENCODING 949
SWIDTH 527 0
DWIDTH 11 0
BBX 9 11 1 0
BITMAP
3E00
7F00
6180
6000
7C00
7C00
C000
8000
C300
FE00
7C00
ENDCHAR
STARTCHAR zeta
ENCODING 950
SWIDTH 507 0
DWIDTH 10 0
BBX 10 18 1 -4
BITMAP
7FC0
7F80
0180
0600
0C00
1800
3000
2000
6000
4000
C000
C000
7800
3C00
0C00
0400
0C00
0800
ENDCHAR
STARTCHAR eta
ENCODING 951
SWIDTH 554 0
DWIDTH 11 0
BBX 10 15 0 -4
BITMAP
3700
3F80
31C0
20C0
60C0
6080
6080
6180
6180
4180
C180
0100
0300
0300
0300
ENDCHAR
STARTCHAR theta
ENCODING 952
SWIDTH 557 0
DWIDTH 11 0
BBX 9 14 1 0
BITMAP
0F00
3F80
3180
6180
6080
4180
FF80
FF80
C180
C180
C300
C700
7E00
3C00
ENDCHAR
STARTCHAR iota
ENCODING 953
SWIDTH 318 0
DWIDTH 6 0
BBX 4 11 1 0
BITMAP
30
60
60
60
60
60
40
40
C0
70
70
ENDCHAR
STARTCHAR kappa
ENCODING 954
SWIDTH 544 0
DWIDTH 11 0
BBX 11 11 0 0
BITMAP
30E0
3180
3300
2600
3C00
7C00
6E00
6600
6300
4300
C180
ENDCHAR
STARTCHAR lambda
ENCODING 955
SWIDTH 541 0
DWIDTH 11 0
BBX 10 15 -1 0
BITMAP
0E00
0E00
0600
0300
0300
0300
0700
0700
0D80
1980
1980
3180
3080
60C0
E0C0
ENDCHAR
STARTCHAR uni03BC
ENCODING 956
SWIDTH 554 0
DWIDTH 11 0
BBX 10 15 0 -4
BITMAP
30C0
30C0
30C0
20C0
60C0
6080
6180
6180
6380
7F80
DD80
C000
C000
C000
C000
ENDCHAR
STARTCHAR nu
ENCODING 957
SWIDTH 474 0
DWIDTH 10 0
BBX 9 11 1 0
BITMAP
C180
4300
4300
6200
6600
6400
2C00
2800
3800
3000
3000
ENDCHAR
STARTCHAR xi
ENCODING 958
SWIDTH 480 0
DWIDTH 10 0
BBX 9 18 1 -4
BITMAP
0F80
1F80
3000
3000
3000
1F00
3E00
6000
C000
C000
C000
E000
7C00
1E00
0600
0600
0C00
0800
ENDCHAR
STARTCHAR omicron
ENCODING 959
SWIDTH 558 0
DWIDTH 11 0
BBX 9 11 1 0
BITMAP
1E00
3F00
6380
C180
C180
C180
8180
C180
C300
7E00
3C00
ENDCHAR
STARTCHAR pi
ENCODING 960
SWIDTH 582 0
DWIDTH 12 0
BBX 11 11 1 0
BITMAP
FFE0
FFE0
2180
6180
6180
6100
6100
6300
4300
C3C0
C1C0
ENDCHAR
STARTCHAR rho
ENCODING 961
SWIDTH 554 0
DWIDTH 11 0
BBX 10 15 0 -4
BITMAP
0F00
1F80
39C0
30C0
60C0
60C0
60C0
6180
6180
7F00
DE00
C000
C000
C000
8000
ENDCHAR
STARTCHAR sigma1
ENCODING 962
SWIDTH 526 0
DWIDTH 11 0
BBX 9 15 1 -4
BITMAP
1E00
3F00
7180
6180
C000
C000
C000
C000
6000
7C00
1E00
0600
0600
0C00
0800
ENDCHAR
STARTCHAR sigma
ENCODING 963
SWIDTH 554 0
DWIDTH 11 0
BBX 11 11 1 0
BITMAP
1FE0
3FC0
6300
C180
C180
C180
8180
C300
C700
7E00
3C00
ENDCHAR
STARTCHAR tau
ENCODING 964
SWIDTH 510 0
DWIDTH 10 0
BBX 9 11 1 0
BITMAP
FF80
FF80
1800
1800
1800
1800
1000
1000
3000
1C00
1C00
ENDCHAR
STARTCHAR upsilon
ENCODING 965
SWIDTH 533 0
DWIDTH 11 0
BBX 9 11 1 0
BITMAP
6180
6180
6180
6180
4180
4180
C180
C300
E700
7E00
3C00
ENDCHAR
STARTCHAR phi
ENCODING 966
SWIDTH 688 0
DWIDTH 14 0
BBX 12 16 1 -5
BITMAP
13C0
33E0
6630
C630
C630
C630
C630
C460
ECE0
7FC0
3F00
0C00
0C00
0800
0800
1800
ENDCHAR
STARTCHAR chi
ENCODING 967
SWIDTH 485 0
DWIDTH 10 0
BBX 12 15 -1 -4
BITMAP
1830
1C60
0CC0
0CC0
0780
0700
0700
0600
0700
0F00
1B00
1900
3180
61C0
E0C0
ENDCHAR
STARTCHAR psi
ENCODING 968
SWIDTH 684 0
DWIDTH 14 0
BBX 12 16 1 -5
BITMAP
6330
6230
4630
C630
C630
C630
C630
C460
6CE0
7FC0
3F00
0C00
0C00
0800
0800
1800
ENDCHAR
STARTCHAR omega
ENCODING 969
SWIDTH 803 0
DWIDTH 16 0
BBX 14 11 1 0
BITMAP
3018
600C
600C
C30C
C30C
C30C
C308
C718
C518
7DF0
78E0
ENDCHAR
STARTCHAR iotadieresis
ENCODING 970
SWIDTH 318 0
DWIDTH 6 0
BBX 6 14 1 0
BITMAP
CC
CC
00
30
60
60
60
60
60
40
40
C0
70
70
ENDCHAR
STARTCHAR upsilondieresis
ENCODING 971
SWIDTH 533 0
DWIDTH 11 0
BBX 9 14 1 0
BITMAP
3100
3300
0000
6180
6180
6180
6180
4180
4180
C180
C300
E700
7E00
3C00
ENDCHAR
STARTCHAR omicrontonos
ENCODING 972
SWIDTH 558 0
DWIDTH 11 0
BBX 9 15 1 0
BITMAP
0300
0600
0400
0000
1E00
3F00
6380
C180
C180
C180
8180
C180
C300
7E00
3C00
ENDCHAR
STARTCHAR upsilontonos
ENCODING 973
SWIDTH 533 0
DWIDTH 11 0
BBX 9 15 1 0
BITMAP
0600
0600
0400
0000
6180
6180
6180
6180
4180
4180
C180
C300
E700
7E00
3C00
ENDCHAR
STARTCHAR omegatonos
ENCODING 974
SWIDTH 803 0
DWIDTH 16 0
BBX 14 15 1 0
BITMAP
00C0
0080
0180
0000
3018
600C
600C
C30C
C30C
C30C
C308
C718
C518
7DF0
78E0
ENDCHAR
STARTCHAR theta1
ENCODING 977
SWIDTH 565 0
DWIDTH 11 0
BBX 10 14 1 0
BITMAP
0700
0F80
1980
1980
1980
1980
1D80
CFC0
C7C0
C100
C300
C700
FE00
7C00
ENDCHAR
STARTCHAR Upsilon1
ENCODING 978
SWIDTH 520 0
DWIDTH 10 0
BBX 11 14 1 0
BITMAP
C0E0
E1E0
6180
2300
3300
3600
3C00
1C00
1800
1800
1800
1000
3000
3000
ENDCHAR
STARTCHAR omega1
ENCODING 982
SWIDTH 766 0
DWIDTH 15 0
BBX 15 11 1 0
BITMAP
FFFE
FFFC
6018
4018
C318
C218
C618
C610
CF30
FBF0
71E0
ENDCHAR
STARTCHAR uni0400
ENCODING 1024
SWIDTH 556 0
DWIDTH 11 0
BBX 11 18 1 0
BITMAP
0C00
0600
0200
0000
3FE0
3FE0
3000
6000
6000
6000
7F80
7F80
4000
C000
C000
C000
FF80
FF00
ENDCHAR
STARTCHAR uni0401
ENCODING 1025
SWIDTH 556 0
DWIDTH 11 0
BBX 11 17 1 0
BITMAP
0CC0
0CC0
0000
3FE0
3FE0
3000
6000
6000
6000
7F80
7F80
4000
C000
C000
C000
FF80
FF00
ENDCHAR
STARTCHAR uni0402
ENCODING 1026
SWIDTH 731 0
DWIDTH 15 0
BBX 12 14 2 0
BITMAP
FFE0
FFC0
1800
1800
1800
1FC0
1FE0
1060
3030
3030
3060
30E0
23C0
6380
ENDCHAR
STARTCHAR uni0403
ENCODING 1027
SWIDTH 544 0
DWIDTH 11 0
BBX 11 18 1 0
BITMAP
01C0
0380
0300
0000
3FE0
3FC0
3000
2000
6000
6000
6000
6000
6000
C000
C000
C000
C000
C000
ENDCHAR
STARTCHAR uni0404
ENCODING 1028
SWIDTH 658 0
DWIDTH 13 0
BBX 11 14 1 0
BITMAP
0780
1FC0
3860
7060
6020
4000
FF00
FF00
C000
C040
C0C0
61C0
7F80
1E00
ENDCHAR
STARTCHAR uni0405
ENCODING 1029
SWIDTH 580 0
DWIDTH 12 0
BBX 11 14 1 0
BITMAP
0F80
3FC0
30C0
6060
6000
3000
1E00
0F80
0180
00C0
C0C0
C180
7F80
3E00
ENDCHAR
STARTCHAR uni0406
ENCODING 1030
SWIDTH 268 0
DWIDTH 5 0
BBX 4 14 1 0
BITMAP
30
30
30
20
60
60
60
60
60
40
C0
C0
C0
C0
ENDCHAR
STARTCHAR uni0407
ENCODING 1031
SWIDTH 268 0
DWIDTH 5 0
BBX 7 17 1 0
BITMAP
44
EE
00
30
30
30
20
60
60
60
60
60
40
C0
C0
C0
C0
ENDCHAR
STARTCHAR uni0408
ENCODING 1032
SWIDTH 540 0
DWIDTH 11 0
BBX 11 14 0 0
BITMAP
0060
0040
00C0
00C0
00C0
00C0
00C0
0080
0180
0180
C180
E300
7F00
3C00
ENDCHAR
STARTCHAR uni0409
ENCODING 1033
SWIDTH 1043 0
DWIDTH 21 0
BBX 20 14 0 0
BITMAP
07FC00
07F800
041800
0C1800
0C1800
0C1FC0
0C1FE0
183070
183030
183030
383030
3020E0
E07FC0
C07F80
ENDCHAR
STARTCHAR uni040A
ENCODING 1034
SWIDTH 1052 0
DWIDTH 21 0
BBX 19 14 1 0
BITMAP
301800
303000
203000
603000
603000
603000
7FFF80
7FFFC0
6060E0
C06060
C06060
C040C0
C07FC0
C0FF00
ENDCHAR
STARTCHAR uni040B
ENCODING 1035
SWIDTH 793 0
DWIDTH 16 0
BBX 12 14 2 0
BITMAP
FFE0
FFE0
0800
1800
1800
1FC0
1FE0
1830
1030
3030
3030
3030
3020
6060
ENDCHAR
STARTCHAR uni040C
ENCODING 1036
SWIDTH 612 0
DWIDTH 12 0
BBX 12 18 1 0
BITMAP
01C0
0300
0600
0000
3070
30E0
21C0
6380
6700
6C00
7C00
7400
6600
C300
C300
C180
C180
80C0
ENDCHAR
STARTCHAR uni040D
ENCODING 1037
SWIDTH 696 0
DWIDTH 14 0
BBX 13 18 1 0
BITMAP
0600
0300
0180
0000
3038
3030
3070
20F0
61B0
6330
6220
6660
6C60
D860
D060
F060
E040
C0C0
ENDCHAR
STARTCHAR uni040E
ENCODING 1038
SWIDTH 614 0
DWIDTH 12 0
BBX 12 17 1 0
BITMAP
0CC0
0780
0000
6030
2060
30C0
30C0
3180
1180
1B00
1A00
0E00
0C00
1C00
1800
F000
E000
ENDCHAR
STARTCHAR uni040F
ENCODING 1039
SWIDTH 696 0
DWIDTH 14 0
BBX 13 18 1 -4
BITMAP
3018
3030
2030
6030
6030
6030
6020
6060
4060
C060
C060
C060
FFC0
FFC0
0C00
0C00
0800
1800
ENDCHAR
STARTCHAR uni0410
ENCODING 1040
SWIDTH 637 0
DWIDTH 13 0
BBX 12 14 -1 0
BITMAP
00C0
01C0
01C0
0340
0640
0660
0C60
0C60
1820
1FE0
3FF0
3030
6030
C030
ENDCHAR
STARTCHAR uni0411
ENCODING 1041
SWIDTH 616 0
DWIDTH 12 0
BBX 11 14 0 0
BITMAP
1FE0
1FE0
3000
3000
3000
3000
3F80
3FC0
6060
6060
6060
60C0
7FC0
FF00
ENDCHAR
STARTCHAR uni0412
ENCODING 1042
SWIDTH 608 0
DWIDTH 12 0
BBX 11 14 0 0
BITMAP
1FC0
1FE0
1060
3020
3060
30E0
3FC0
3FC0
60C0
6060
6060
60C0
7FC0
FF00
ENDCHAR
STARTCHAR uni0413
ENCODING 1043
SWIDTH 544 0
DWIDTH 11 0
BBX 11 14 1 0
BITMAP
3FE0
3FC0
3000
2000
6000
6000
6000
6000
6000
C000
C000
C000
C000
C000
ENDCHAR
STARTCHAR uni0414
ENCODING 1044
SWIDTH 734 0
DWIDTH 15 0
BBX 15 18 -1 -4
BITMAP
03FE
03FE
0304
030C
020C
060C
060C
0608
0C18
0C18
1818
3818
7FFC
7FFC
C00C
C00C
C00C
C00C
ENDCHAR
STARTCHAR uni0415
ENCODING 1045
SWIDTH 556 0
DWIDTH 11 0
BBX 11 14 1 0
BITMAP
3FE0
3FE0
3000
6000
6000
6000
7F80
7F80
4000
C000
C000
C000
FF80
FF00
ENDCHAR
STARTCHAR uni0416
ENCODING 1046
SWIDTH 885 0
DWIDTH 18 0
BBX 20 14 -1 0
BITMAP
183070
0C30C0
0C31C0
063180
062300
036600
03FC00
07FC00
066600
0C6600
1C4300
38C300
70C180
E0C180
ENDCHAR
STARTCHAR uni0417
ENCODING 1047
SWIDTH 580 0
DWIDTH 12 0
BBX 11 14 0 0
BITMAP
0F80
1FE0
3860
3020
0060
00E0
07C0
0F80
00C0
0040
C0C0
61C0
7F80
1F00
ENDCHAR
STARTCHAR uni0418
ENCODING 1048
SWIDTH 696 0
DWIDTH 14 0
BBX 13 14 1 0
BITMAP
3038
3030
3070
20F0
61B0
6330
6220
6660
6C60
D860
D060
F060
E040
C0C0
ENDCHAR
STARTCHAR uni0419
ENCODING 1049
SWIDTH 696 0
DWIDTH 14 0
BBX 13 17 1 0
BITMAP
0660
03C0
0000
3038
3030
3070
20F0
61B0
6330
6220
6660
6C60
D860
D060
F060
E040
C0C0
ENDCHAR
STARTCHAR uni041A
ENCODING 1050
SWIDTH 628 0
DWIDTH 13 0
BBX 13 14 1 0
BITMAP
3038
3060
30C0
3180
2380
6700
7E00
7E00
6600
6300
4300
C180
C1C0
C0E0
ENDCHAR
STARTCHAR uni041B
ENCODING 1051
SWIDTH 691 0
DWIDTH 14 0
BBX 14 14 0 0
BITMAP
07FC
07F8
0C18
0C18
0C18
0C18
0C10
1830
1830
1830
3830
3030
E020
C060
ENDCHAR
STARTCHAR uni041C
ENCODING 1052
SWIDTH 851 0
DWIDTH 17 0
BBX 16 14 1 0
BITMAP
3007
3807
380E
781E
681E
6C36
6C36
6C64
444C
C4CC
C78C
C78C
C70C
8218
ENDCHAR
STARTCHAR uni041D
ENCODING 1053
SWIDTH 696 0
DWIDTH 14 0
BBX 13 14 1 0
BITMAP
3018
3010
2030
6030
6030
6030
7FF0
7FE0
4060
C060
C060
C060
C040
C0C0
ENDCHAR
STARTCHAR uni041E
ENCODING 1054
SWIDTH 671 0
DWIDTH 13 0
BBX 11 14 1 0
BITMAP
0F80
1FC0
38E0
6060
6020
C020
C060
C060
C060
C060
C0C0
61C0
7F80
3E00
ENDCHAR
STARTCHAR uni041F
ENCODING 1055
SWIDTH 696 0
DWIDTH 14 0
BBX 13 14 1 0
BITMAP
3FF8
3FF0
3030
2030
6030
6030
6020
6060
6060
C060
C060
C060
C040
C0C0
ENDCHAR
STARTCHAR uni0420
ENCODING 1056
SWIDTH 616 0
DWIDTH 12 0
BBX 12 14 0 0
BITMAP
1FC0
1FE0
3070
3030
3030
3030
3060
3FE0
7F80
6000
6000
6000
6000
C000
ENDCHAR
STARTCHAR uni0421
ENCODING 1057
SWIDTH 636 0
DWIDTH 13 0
BBX 12 14 1 0
BITMAP
0780
1FE0
3860
7020
6030
6000
4000
C000
C000
C060
C0C0
61C0
7F80
1E00
ENDCHAR
STARTCHAR uni0422
ENCODING 1058
SWIDTH 583 0
DWIDTH 12 0
BBX 11 14 2 0
BITMAP
FFE0
FFC0
0C00
0C00
0800
1800
1800
1800
1800
1800
1000
3000
3000
3000
ENDCHAR
STARTCHAR uni0423
ENCODING 1059
SWIDTH 614 0
DWIDTH 12 0
BBX 12 14 1 0
BITMAP
6030
2060
30C0
30C0
3180
1180
1B00
1A00
0E00
0C00
1C00
1800
F000
E000
ENDCHAR
STARTCHAR uni0424
ENCODING 1060
SWIDTH 753 0
DWIDTH 15 0
BBX 14 16 1 -1
BITMAP
0180
0180
0FE0
3FF0
7138
6318
C308
C30C
C308
C218
C618
6670
7FE0
1F80
0600
0400
ENDCHAR
STARTCHAR uni0425
ENCODING 1061
SWIDTH 612 0
DWIDTH 12 0
BBX 13 14 0 0
BITMAP
3038
1830
1860
0CC0
0D80
0580
0700
0700
0F00
1980
3180
30C0
60C0
C0E0
ENDCHAR
STARTCHAR uni0426
ENCODING 1062
SWIDTH 713 0
DWIDTH 14 0
BBX 13 17 1 -3
BITMAP
3018
3030
2030
6030
6030
6030
6020
6060
4060
C060
C060
C040
FFF0
FFF0
0020
0060
0060
ENDCHAR
STARTCHAR uni0427
ENCODING 1063
SWIDTH 668 0
DWIDTH 13 0
BBX 11 14 2 0
BITMAP
6060
4060
C060
C0C0
C0C0
C0C0
C0C0
7FC0
3F80
0080
0180
0180
0180
0180
ENDCHAR
STARTCHAR uni0428
ENCODING 1064
SWIDTH 917 0
DWIDTH 18 0
BBX 17 14 1 0
BITMAP
306180
30C180
20C180
60C100
60C300
60C300
618300
618300
418300
C18600
C18600
C10600
FFFE00
FFFE00
ENDCHAR
STARTCHAR uni0429
ENCODING 1065
SWIDTH 944 0
DWIDTH 19 0
BBX 17 17 1 -3
BITMAP
306180
30C180
20C180
60C100
60C300
60C300
618300
618300
418200
C18600
C18600
C10600
FFFF00
FFFF00
000300
000300
000200
ENDCHAR
STARTCHAR uni042A
ENCODING 1066
SWIDTH 740 0
DWIDTH 15 0
BBX 13 14 1 0
BITMAP
7C00
7C00
8C00
0C00
0C00
0800
1FE0
1FF0
1838
1818
1818
1030
3FF0
3FC0
ENDCHAR
STARTCHAR uni042B
ENCODING 1067
SWIDTH 843 0
DWIDTH 17 0
BBX 16 14 1 0
BITMAP
3003
3006
3006
2006
6006
6006
7F04
7FCC
60CC
40CC
C0CC
C1CC
FF98
FF18
ENDCHAR
STARTCHAR uni042C
ENCODING 1068
SWIDTH 613 0
DWIDTH 12 0
BBX 11 14 0 0
BITMAP
1800
1000
3000
3000
3000
3000
3F80
3FC0
6060
6060
6060
60E0
7FC0
FF00
ENDCHAR
STARTCHAR uni042D
ENCODING 1069
SWIDTH 658 0
DWIDTH 13 0
BBX 11 14 1 0
BITMAP
0F80
1FC0
38E0
7060
6020
0020
0FE0
0FE0
0060
C060
C0C0
61C0
7F80
1E00
ENDCHAR
STARTCHAR uni042E
ENCODING 1070
SWIDTH 872 0
DWIDTH 17 0
BBX 17 14 0 0
BITMAP
183C00
18FF00
11C300
338180
330180
330180
3E0180
3E0180
660300
660300
630700
630E00
61FC00
C0F800
ENDCHAR
STARTCHAR uni042F
ENCODING 1071
SWIDTH 622 0
DWIDTH 12 0
BBX 12 14 0 0
BITMAP
07F0
1FF0
3820
3060
3060
3060
3060
1FE0
0FC0
18C0
30C0
70C0
60C0
C080
ENDCHAR
STARTCHAR uni0430
ENCODING 1072
SWIDTH 532 0
DWIDTH 11 0
BBX 9 11 1 0
BITMAP
1E00
7F00
6100
0180
3F00
7F00
C300
C300
C700
FF00
7B00
ENDCHAR
STARTCHAR uni0431
ENCODING 1073
SWIDTH 541 0
DWIDTH 11 0
BBX 10 15 1 0
BITMAP
00C0
0380
1F00
3800
2000
5E00
7F00
E180
C180
C180
C180
C180
C300
7E00
3C00
ENDCHAR
STARTCHAR uni0432
ENCODING 1074
SWIDTH 559 0
DWIDTH 11 0
BBX 10 11 0 0
BITMAP
3F80
3FC0
30C0
20C0
3F80
7F80
6080
60C0
6180
7F80
FF00
ENDCHAR
STARTCHAR uni0433
ENCODING 1075
SWIDTH 411 0
DWIDTH 8 0
BBX 9 11 0 0
BITMAP
3F80
3F80
3000
3000
2000
6000
6000
6000
6000
4000
C000
ENDCHAR
STARTCHAR uni0434
ENCODING 1076
SWIDTH 590 0
DWIDTH 12 0
BBX 12 14 -1 -3
BITMAP
07F0
07E0
0420
0C60
0C60
0C60
1860
1840
30C0
7FE0
7FE0
C060
C060
C060
ENDCHAR
STARTCHAR uni0435
ENCODING 1077
SWIDTH 518 0
DWIDTH 10 0
BBX 8 11 1 0
BITMAP
1E
7F
63
C1
FF
FF
80
C0
C2
7F
3C
ENDCHAR
STARTCHAR uni0436
ENCODING 1078
SWIDTH 747 0
DWIDTH 15 0
BBX 16 11 -1 0
BITMAP
38C7
18C6
0CCC
0C98
07F0
0FF0
0D98
1998
3198
718C
E30E
ENDCHAR
STARTCHAR uni0437
ENCODING 1079
SWIDTH 497 0
DWIDTH 10 0
BBX 9 11 0 0
BITMAP
1F00
3F80
7180
0180
1F00
1F00
0300
0100
C300
7F00
3C00
ENDCHAR
STARTCHAR uni0438
ENCODING 1080
SWIDTH 564 0
DWIDTH 11 0
BBX 11 11 0 0
BITMAP
30E0
30C0
31C0
23C0
26C0
64C0
6C80
7880
7180
6180
E180
ENDCHAR
STARTCHAR uni0439
ENCODING 1081
SWIDTH 564 0
DWIDTH 11 0
BBX 11 14 0 0
BITMAP
0CC0
0780
0000
30E0
30C0
31C0
23C0
26C0
64C0
6C80
7880
7180
6180
E180
ENDCHAR
STARTCHAR uni043A
ENCODING 1082
SWIDTH 528 0
DWIDTH 11 0
BBX 11 11 0 0
BITMAP
30E0
3180
3300
2600
3C00
7C00
6600
6600
6300
4300
C180
ENDCHAR
STARTCHAR uni043B
ENCODING 1083
SWIDTH 565 0
DWIDTH 11 0
BBX 11 11 -1 0
BITMAP
0FE0
0FE0
0C60
0C60
0860
1860
1840
18C0
30C0
F0C0
E0C0
ENDCHAR
STARTCHAR uni043C
ENCODING 1084
SWIDTH 724 0
DWIDTH 14 0
BBX 14 11 0 0
BITMAP
381C
3818
3838
2878
2C78
6CD8
6498
6590
6710
4730
C230
ENDCHAR
STARTCHAR uni043D
ENCODING 1085
SWIDTH 564 0
DWIDTH 11 0
BBX 11 11 0 0
BITMAP
3060
30C0
30C0
20C0
3FC0
7FC0
6080
6180
6180
4180
C180
ENDCHAR
STARTCHAR uni043E
ENCODING 1086
SWIDTH 558 0
DWIDTH 11 0
BBX 9 11 1 0
BITMAP
1E00
3F00
6380
C180
C180
C180
8180
C180
C300
7E00
3C00
ENDCHAR
STARTCHAR uni043F
ENCODING 1087
SWIDTH 564 0
DWIDTH 11 0
BBX 11 11 0 0
BITMAP
3FE0
3FC0
30C0
30C0
20C0
60C0
6080
6080
6180
4180
C180
ENDCHAR
STARTCHAR uni0440
ENCODING 1088
SWIDTH 549 0
DWIDTH 11 0
BBX 10 15 0 -4
BITMAP
3700
3F80
31C0
20C0
60C0
60C0
60C0
6180
6380
7F00
DE00
C000
C000
C000
8000
ENDCHAR
STARTCHAR uni0441
ENCODING 1089
SWIDTH 512 0
DWIDTH 10 0
BBX 9 11 1 0
BITMAP
1E00
7F00
6300
C180
C000
8000
8000
C300
C700
7E00
3C00
ENDCHAR
STARTCHAR uni0442
ENCODING 1090
SWIDTH 470 0
DWIDTH 9 0
BBX 9 11 1 0
BITMAP
FF80
FF80
1800
1800
1800
1000
1000
3000
3000
3000
3000
ENDCHAR
STARTCHAR uni0443
ENCODING 1091
SWIDTH 463 0
DWIDTH 9 0
BBX 11 15 -1 -4
BITMAP
30E0
30C0
3080
1180
1100
1B00
1A00
1E00
1C00
0C00
0800
1800
3000
F000
E000
ENDCHAR
STARTCHAR uni0444
ENCODING 1092
SWIDTH 708 0
DWIDTH 14 0
BBX 12 19 1 -4
BITMAP
0300
0300
0300
0300
3FE0
7FE0
6230
C630
C630
C630
8430
8C30
CC60
FFE0
7F80
0C00
0C00
0800
1800
ENDCHAR
STARTCHAR uni0445
ENCODING 1093
SWIDTH 485 0
DWIDTH 10 0
BBX 11 11 -1 0
BITMAP
30E0
18C0
1980
0F00
0E00
0600
0E00
1B00
3300
3180
E180
ENDCHAR
STARTCHAR uni0446
ENCODING 1094
SWIDTH 579 0
DWIDTH 12 0
BBX 11 14 0 -3
BITMAP
3060
3040
30C0
20C0
20C0
60C0
6080
6180
6180
7FC0
7FC0
80C0
0080
0080
ENDCHAR
STARTCHAR uni0447
ENCODING 1095
SWIDTH 532 0
DWIDTH 11 0
BBX 8 11 2 0
BITMAP
C3
C3
83
83
C6
FE
7E
06
06
06
04
ENDCHAR
STARTCHAR uni0448
ENCODING 1096
SWIDTH 789 0
DWIDTH 16 0
BBX 15 11 0 0
BITMAP
30C6
3086
3186
2184
2184
618C
610C
630C
630C
7FF8
FFF8
ENDCHAR
STARTCHAR uni0449
ENCODING 1097
SWIDTH 807 0
DWIDTH 16 0
BBX 15 14 0 -3
BITMAP
3086
3186
3186
2184
618C
618C
610C
630C
4308
7FFE
FFFE
0004
0004
000C
ENDCHAR
STARTCHAR uni044A
ENCODING 1098
SWIDTH 606 0
DWIDTH 12 0
BBX 10 11 1 0
BITMAP
F800
F800
1000
1000
3F80
3FC0
30C0
30C0
20C0
3F80
7F00
ENDCHAR
STARTCHAR uni044B
ENCODING 1099
SWIDTH 757 0
DWIDTH 15 0
BBX 14 11 0 0
BITMAP
300C
300C
300C
300C
3F08
7F98
6198
6198
6198
7F18
FE10
ENDCHAR
STARTCHAR uni044C
ENCODING 1100
SWIDTH 531 0
DWIDTH 11 0
BBX 8 11 1 0
BITMAP
60
60
60
60
7E
7F
C3
C1
C3
FF
FC
ENDCHAR
STARTCHAR uni044D
ENCODING 1101
SWIDTH 526 0
DWIDTH 11 0
BBX 8 11 1 0
BITMAP
1C
7F
63
C1
1F
1F
03
83
C6
FE
78
ENDCHAR
STARTCHAR uni044E
ENCODING 1102
SWIDTH 796 0
DWIDTH 16 0
BBX 15 11 0 0
BITMAP
3078
31FC
338E
2306
3F06
7E06
6206
620C
631C
43F8
C0F0
ENDCHAR
STARTCHAR uni044F
ENCODING 1103
SWIDTH 537 0
DWIDTH 11 0
BBX 11 11 -1 0
BITMAP
0FE0
1FE0
1860
3060
3040
1FC0
0FC0
18C0
30C0
30C0
E080
ENDCHAR
STARTCHAR uni0450
ENCODING 1104
SWIDTH 518 0
DWIDTH 10 0
BBX 8 15 1 0
BITMAP
18
0C
04
00
1E
7F
63
C1
FF
FF
80
C0
C2
7F
3C
ENDCHAR
STARTCHAR uni0451
ENCODING 1105
SWIDTH 518 0
DWIDTH 10 0
BBX 9 14 1 0
BITMAP
1180
3980
0000
1E00
7F00
6300
C100
FF00
FF00
8000
C000
C200
7F00
3C00
ENDCHAR
STARTCHAR uni0452
ENCODING 1106
SWIDTH 539 0
DWIDTH 11 0
BBX 10 20 0 -4
BITMAP
1800
1000
7E00
7E00
3000
3700
3F80
31C0
20C0
6080
6080
6180
6180
6180
4180
C100
0300
0300
0F00
0E00
ENDCHAR
STARTCHAR uni0453
ENCODING 1107
SWIDTH 411 0
DWIDTH 8 0
BBX 9 15 0 0
BITMAP
0380
0600
0C00
0000
3F80
3F80
3000
3000
2000
6000
6000
6000
6000
4000
C000
ENDCHAR
STARTCHAR uni0454
ENCODING 1108
SWIDTH 526 0
DWIDTH 11 0
BBX 9 11 1 0
BITMAP
1E00
3F00
6180
C180
FC00
FC00
C000
C100
C300
7E00
3C00
ENDCHAR
STARTCHAR uni0455
ENCODING 1109
SWIDTH 504 0
DWIDTH 10 0
BBX 9 11 0 0
BITMAP
1F00
3F80
3180
6000
3C00
1F00
0300
0180
E300
7F00
3E00
ENDCHAR
STARTCHAR uni0456
ENCODING 1110
SWIDTH 240 0
DWIDTH 5 0
BBX 5 15 0 0
BITMAP
18
18
00
00
30
30
30
20
20
60
60
60
60
40
C0
ENDCHAR
STARTCHAR uni0457
ENCODING 1111
SWIDTH 244 0
DWIDTH 5 0
BBX 7 14 0 0
BITMAP
66
66
00
30
30
30
20
20
60
60
60
60
40
C0
ENDCHAR
STARTCHAR uni0458
ENCODING 1112
SWIDTH 236 0
DWIDTH 5 0
BBX 7 19 -2 -4
BITMAP
04
0E
00
00
0C
0C
0C
08
18
18
18
18
18
10
30
30
30
E0
E0
ENDCHAR
STARTCHAR uni0459
ENCODING 1113
SWIDTH 827 0
DWIDTH 17 0
BBX 16 11 0 0
BITMAP
0FC0
1FC0
18C0
18C0
18FC
10FE
3083
3183
7186
E1FE
C1FC
ENDCHAR
STARTCHAR uni045A
ENCODING 1114
SWIDTH 840 0
DWIDTH 17 0
BBX 15 11 1 0
BITMAP
60C0
6080
6180
6180
7FF8
FFFC
C186
C106
C30E
C3FC
83F8
ENDCHAR
STARTCHAR uni045B
ENCODING 1115
SWIDTH 554 0
DWIDTH 11 0
BBX 10 16 0 0
BITMAP
1800
1000
7E00
7E00
3000
3700
3F80
3180
20C0
6080
6080
6180
6180
4180
4180
C100
ENDCHAR
STARTCHAR uni045C
ENCODING 1116
SWIDTH 528 0
DWIDTH 11 0
BBX 11 15 0 0
BITMAP
01C0
0300
0600
0000
30E0
3180
3300
2600
3C00
7C00
6600
6600
6300
4300
C180
ENDCHAR
STARTCHAR uni045D
ENCODING 1117
SWIDTH 564 0
DWIDTH 11 0
BBX 11 15 0 0
BITMAP
0C00
0600
0300
0000
30E0
30C0
31C0
23C0
26C0
64C0
6C80
7880
7180
6180
E180
ENDCHAR
STARTCHAR uni045E
ENCODING 1118
SWIDTH 463 0
DWIDTH 9 0
BBX 11 18 -1 -4
BITMAP
0CC0
0780
0000
30E0
30C0
3080
1180
1100
1B00
1A00
1E00
1C00
0C00
0800
1800
3000
F000
E000
ENDCHAR
STARTCHAR uni045F
ENCODING 1119
SWIDTH 564 0
DWIDTH 11 0
BBX 11 14 0 -3
BITMAP
3060
3040
30C0
20C0
20C0
60C0
6080
6180
6180
7F80
7F80
8800
1800
1800
ENDCHAR
STARTCHAR uni0460
ENCODING 1120
SWIDTH 857 0
DWIDTH 17 0
BBX 16 14 1 0
BITMAP
30C3
30C3
20C3
6183
6186
6186
6186
4186
C106
C304
C30C
C78C
7DF8
38F0
ENDCHAR
STARTCHAR uni0461
ENCODING 1121
SWIDTH 752 0
DWIDTH 15 0
BBX 14 11 1 0
BITMAP
630C
6308
4318
4318
C318
C218
C618
C610
CE30
FFF0
79E0
ENDCHAR
STARTCHAR uni0462
ENCODING 1122
SWIDTH 613 0
DWIDTH 12 0
BBX 11 14 0 0
BITMAP
1800
1000
FE00
FC00
3000
3000
3F80
3FC0
6060
6060
6060
60E0
7FC0
FF00
ENDCHAR
STARTCHAR uni0463
ENCODING 1123
SWIDTH 530 0
DWIDTH 11 0
BBX 8 15 1 0
BITMAP
30
30
30
FE
FC
60
60
60
7E
7F
C3
C1
C3
FF
FC
ENDCHAR
STARTCHAR uni0464
ENCODING 1124
SWIDTH 874 0
DWIDTH 17 0
BBX 17 14 0 0
BITMAP
187C00
18FE00
31C300
338300
330100
330080
3FF800
3FF000
660000
660300
660600
630E00
63FC00
C0F000
ENDCHAR
STARTCHAR uni0465
ENCODING 1125
SWIDTH 728 0
DWIDTH 15 0
BBX 13 11 1 0
BITMAP
61F0
63F8
6618
6C00
7FC0
7FC0
CC00
CC10
CE30
C7E0
C3C0
ENDCHAR
STARTCHAR uni0466
ENCODING 1126
SWIDTH 589 0
DWIDTH 12 0
BBX 12 14 -1 0
BITMAP
0180
01C0
03C0
03C0
06C0
0640
0C60
0C60
1FE0
1FE0
3360
3220
6630
E630
ENDCHAR
STARTCHAR uni0467
ENCODING 1127
SWIDTH 522 0
DWIDTH 10 0
BBX 10 11 -1 0
BITMAP
0300
0700
0500
0D00
0980
1980
1F80
3F80
6480
6CC0
CCC0
ENDCHAR
STARTCHAR uni0468
ENCODING 1128
SWIDTH 858 0
DWIDTH 17 0
BBX 15 14 1 0
BITMAP
3010
3038
3078
3078
20C8
60C8
618C
618C
7FFC
7FFC
C66C
C644
CCC6
DCC6
ENDCHAR
STARTCHAR uni0469
ENCODING 1129
SWIDTH 737 0
DWIDTH 15 0
BBX 12 11 1 0
BITMAP
20C0
61C0
61C0
6360
6360
4660
7FE0
FFE0
CDB0
D930
F330
ENDCHAR
STARTCHAR uni046A
ENCODING 1130
SWIDTH 831 0
DWIDTH 17 0
BBX 15 14 1 0
BITMAP
1FFE
0FF8
0C18
0630
0660
02C0
1FF0
7FF8
610C
C30C
C30C
C30C
C30C
8218
ENDCHAR
STARTCHAR uni046B
ENCODING 1131
SWIDTH 717 0
DWIDTH 14 0
BBX 13 11 0 0
BITMAP
0FF8
0FF0
0C60
06C0
0680
1FE0
3FF0
7330
6330
4230
C630
ENDCHAR
STARTCHAR uni046C
ENCODING 1132
SWIDTH 1098 0
DWIDTH 22 0
BBX 20 14 1 0
BITMAP
30FFF0
307FE0
3020C0
203180
603300
601E00
7FFF80
7FFFE0
630C60
430860
C61860
C61860
C61860
C61860
ENDCHAR
STARTCHAR uni046D
ENCODING 1133
SWIDTH 952 0
DWIDTH 19 0
BBX 17 11 0 0
BITMAP
30FF80
307F00
306300
202600
203C00
7FFE00
7FFF00
631180
623180
663180
C63180
ENDCHAR
STARTCHAR uni046E
ENCODING 1134
SWIDTH 506 0
DWIDTH 10 0
BBX 10 23 0 -4
BITMAP
0CC0
0780
0300
0000
0000
1F00
1F80
2180
0080
0080
0180
1F00
1E00
0300
0180
0100
0300
7E00
FC00
8000
8000
C000
4000
ENDCHAR
STARTCHAR uni046F
ENCODING 1135
SWIDTH 472 0
DWIDTH 9 0
BBX 9 20 0 -4
BITMAP
1980
0F00
0600
0000
0000
3E00
3F00
0180
0300
1E00
3E00
0300
0300
0700
7E00
FC00
8000
8000
C000
4000
ENDCHAR
STARTCHAR uni0470
ENCODING 1136
SWIDTH 675 0
DWIDTH 14 0
BBX 12 14 2 0
BITMAP
6630
C630
C630
C630
C630
CC60
CC60
CC60
EDC0
7F80
3F00
0800
1800
1800
ENDCHAR
STARTCHAR uni0471
ENCODING 1137
SWIDTH 684 0
DWIDTH 14 0
BBX 12 16 1 -5
BITMAP
6330
6230
4630
C630
C630
C630
C630
C460
6CE0
7FC0
3F00
0C00
0C00
0800
0800
1800
ENDCHAR
STARTCHAR uni0472
ENCODING 1138
SWIDTH 664 0
DWIDTH 13 0
BBX 11 14 1 0
BITMAP
0F80
1FC0
30E0
6060
6060
C060
FFE0
FFE0
C060
C060
C0C0
6180
7F80
3E00
ENDCHAR
STARTCHAR uni0473
ENCODING 1139
SWIDTH 555 0
DWIDTH 11 0
BBX 9 11 1 0
BITMAP
1E00
3F00
6180
C180
FF80
FF80
8180
C180
C300
7E00
3C00
ENDCHAR
STARTCHAR uni0474
ENCODING 1140
SWIDTH 615 0
DWIDTH 12 0
BBX 11 14 2 0
BITMAP
C060
C0E0
C0C0
C180
C180
4300
6300
6600
6600
6C00
6800
3800
3000
3000
ENDCHAR
STARTCHAR uni0475
ENCODING 1141
SWIDTH 491 0
DWIDTH 10 0
BBX 10 11 1 0
BITMAP
C1C0
4380
4300
6600
6600
6400
6C00
2800
3800
3000
3000
ENDCHAR
STARTCHAR uni0476
ENCODING 1142
SWIDTH 615 0
DWIDTH 12 0
BBX 11 18 2 0
BITMAP
6C00
3600
1A00
0000
C060
C0E0
C0C0
C180
C180
4300
6300
6600
6600
6C00
6800
3800
3000
3000
ENDCHAR
STARTCHAR uni0477
ENCODING 1143
SWIDTH 491 0
DWIDTH 10 0
BBX 10 15 1 0
BITMAP
EC00
3400
3E00
0000
C1C0
4380
4300
6600
6600
6400
6C00
2800
3800
3000
3000
ENDCHAR
STARTCHAR uni0478
ENCODING 1144
SWIDTH 1135 0
DWIDTH 23 0
BBX 22 18 1 -4
BITMAP
0F8000
1FC000
38E000
60660C
602218
C02318
C06310
C06330
C06320
C06160
C0C140
61C1C0
7F8180
3E0180
000300
000300
000E00
001C00
ENDCHAR
STARTCHAR uni0479
ENCODING 1145
SWIDTH 1021 0
DWIDTH 20 0
BBX 20 15 1 -4
BITMAP
1E1830
3F1860
638860
C188C0
C18CC0
C18D80
818D80
C18F00
C30700
7E0600
3C0600
000C00
001C00
007800
007000
ENDCHAR
STARTCHAR uni047A
ENCODING 1146
SWIDTH 664 0
DWIDTH 13 0
BBX 11 16 1 -1
BITMAP
0300
0F80
1FC0
3B60
6060
6020
C020
C020
C060
C060
C060
C0C0
6DC0
7F80
3E00
1800
ENDCHAR
STARTCHAR uni047B
ENCODING 1147
SWIDTH 554 0
DWIDTH 11 0
BBX 9 13 1 -1
BITMAP
0600
1E00
3F00
6D80
C180
C080
C180
C180
C180
DB00
7E00
3C00
1000
ENDCHAR
STARTCHAR uni047C
ENCODING 1148
SWIDTH 854 0
DWIDTH 17 0
BBX 15 19 1 0
BITMAP
01E0
01FC
031C
0040
0040
0C8C
3C0E
3006
6006
6006
6006
6186
4186
C106
C304
C30C
C78C
7FF8
3CF0
ENDCHAR
STARTCHAR uni047D
ENCODING 1149
SWIDTH 749 0
DWIDTH 15 0
BBX 13 16 1 0
BITMAP
03C0
07F0
0430
0180
0180
1B30
7038
6018
4018
C018
C218
C618
C610
C630
FFF0
79E0
ENDCHAR
STARTCHAR uni047E
ENCODING 1150
SWIDTH 857 0
DWIDTH 17 0
BBX 16 17 1 0
BITMAP
03FC
0040
0080
30C3
30C3
20C3
6083
6182
6186
6186
4186
4186
C306
C30C
E78C
7FF8
3CF0
ENDCHAR
STARTCHAR uni047F
ENCODING 1151
SWIDTH 752 0
DWIDTH 15 0
BBX 14 14 1 0
BITMAP
0FF0
0180
0000
630C
6308
4318
4318
C318
C218
C618
C610
CE30
FFF0
79E0
ENDCHAR
STARTCHAR uni0480
ENCODING 1152
SWIDTH 634 0
DWIDTH 13 0
BBX 11 18 1 -4
BITMAP
0F80
1FC0
3860
7060
6060
6000
C000
C000
C000
C000
C000
6000
7C00
3C00
0800
1800
1800
1800
ENDCHAR
STARTCHAR uni0481
ENCODING 1153
SWIDTH 523 0
DWIDTH 10 0
BBX 9 15 1 -4
BITMAP
1E00
3F00
6380
C180
C000
C000
C000
C000
C000
4000
3800
1000
3000
3000
3000
ENDCHAR
STARTCHAR uni0482
ENCODING 1154
SWIDTH 609 0
DWIDTH 12 0
BBX 11 13 1 0
BITMAP
0060
00C0
0D80
1700
0380
06C0
8C40
E800
3800
3C00
6600
4400
C000
ENDCHAR
STARTCHAR uni0483
ENCODING 1155
SWIDTH 0 0
DWIDTH 0 0
BBX 8 3 -8 12
BITMAP
03
7E
C0
ENDCHAR
STARTCHAR uni0484
ENCODING 1156
SWIDTH 0 0
DWIDTH 0 0
BBX 7 3 -7 13
BITMAP
3C
FE
C2
ENDCHAR
STARTCHAR uni0485
ENCODING 1157
SWIDTH 0 0
DWIDTH 0 0
BBX 2 3 -5 13
BITMAP
C0
40
40
ENDCHAR
STARTCHAR uni0486
ENCODING 1158
SWIDTH 0 0
DWIDTH 0 0
BBX 2 3 -4 13
BITMAP
C0
C0
80
ENDCHAR
STARTCHAR uni0488
ENCODING 1160
SWIDTH 0 0
DWIDTH 0 0
BBX 18 17 -14 -3
BITMAP
006000
009000
180300
240480
000000
000000
000000
E00180
A00240
000000
000000
000000
700E00
D01A00
000000
038000
068000
ENDCHAR
STARTCHAR uni0489
ENCODING 1161
SWIDTH 0 0
DWIDTH 0 0
BBX 17 18 -14 -4
BITMAP
002000
006000
104000
080100
080600
0C0400
000000
000000
C00300
600380
000000
000000
100800
301800
400800
018800
030000
020000
ENDCHAR
STARTCHAR uni048A
ENCODING 1162
SWIDTH 736 0
DWIDTH 15 0
BBX 13 21 1 -4
BITMAP
0660
03C0
0000
3038
3030
3070
20F0
61B0
6330
6220
6660
6C60
D860
D060
F060
E040
C0F0
0030
0030
0060
0040
ENDCHAR
STARTCHAR uni048B
ENCODING 1163
SWIDTH 602 0
DWIDTH 12 0
BBX 11 18 0 -4
BITMAP
0CC0
0780
0000
30E0
30C0
31C0
23C0
26C0
64C0
6C80
7880
7180
6180
61E0
8040
00C0
00C0
0180
ENDCHAR
STARTCHAR uni048C
ENCODING 1164
SWIDTH 613 0
DWIDTH 12 0
BBX 11 14 0 0
BITMAP
1800
1000
FE00
FC00
3000
3000
3F80
3FC0
6060
6060
6060
60E0
7FC0
FF00
ENDCHAR
STARTCHAR uni048D
ENCODING 1165
SWIDTH 530 0
DWIDTH 11 0
BBX 8 16 1 0
BITMAP
30
30
FE
FE
30
20
60
60
60
7E
7F
C3
C1
C3
FF
FC
ENDCHAR
STARTCHAR uni048E
ENCODING 1166
SWIDTH 624 0
DWIDTH 12 0
BBX 12 14 0 0
BITMAP
1FC0
1FE0
3070
3030
3030
30B0
21E0
7FE0
7FE0
6020
6000
6000
4000
C000
ENDCHAR
STARTCHAR uni048F
ENCODING 1167
SWIDTH 554 0
DWIDTH 11 0
BBX 10 15 0 -4
BITMAP
3700
3F80
31C0
60C0
60C0
60C0
60C0
6780
6380
FF00
DF80
C100
C000
C000
8000
ENDCHAR
STARTCHAR uni0490
ENCODING 1168
SWIDTH 536 0
DWIDTH 11 0
BBX 11 18 1 0
BITMAP
0060
0060
0060
0060
3FE0
3FC0
3000
6000
6000
6000
6000
6000
4000
C000
C000
C000
C000
C000
ENDCHAR
STARTCHAR uni0491
ENCODING 1169
SWIDTH 437 0
DWIDTH 9 0
BBX 9 14 0 0
BITMAP
0180
0180
0180
3F80
3F80
3000
2000
6000
6000
6000
6000
6000
4000
C000
ENDCHAR
STARTCHAR uni0492
ENCODING 1170
SWIDTH 544 0
DWIDTH 11 0
BBX 12 14 0 0
BITMAP
1FF0
1FE0
1800
1000
3000
3000
FE00
FC00
3000
2000
6000
6000
6000
6000
ENDCHAR
STARTCHAR uni0493
ENCODING 1171
SWIDTH 411 0
DWIDTH 8 0
BBX 9 11 0 0
BITMAP
3F80
3F00
3000
2000
6000
FC00
FC00
6000
6000
4000
C000
ENDCHAR
STARTCHAR uni0494
ENCODING 1172
SWIDTH 593 0
DWIDTH 12 0
BBX 11 17 1 -3
BITMAP
3FE0
3FC0
3000
2000
6000
6000
7E00
7F00
6380
C180
C080
C080
C180
C180
0100
0300
0C00
ENDCHAR
STARTCHAR uni0495
ENCODING 1173
SWIDTH 492 0
DWIDTH 10 0
BBX 9 14 0 -3
BITMAP
3F80
3F80
3000
2000
3C00
7E00
6300
6100
6100
4100
4300
8700
0E00
0800
ENDCHAR
STARTCHAR uni0496
ENCODING 1174
SWIDTH 930 0
DWIDTH 19 0
BBX 20 17 -1 -3
BITMAP
183070
0C30C0
0C31C0
063180
062300
036600
03FC00
07FC00
066600
0C6600
1C4300
38C300
70C1C0
60C1C0
8000C0
0000C0
0000C0
ENDCHAR
STARTCHAR uni0497
ENCODING 1175
SWIDTH 778 0
DWIDTH 16 0
BBX 16 14 -1 -3
BITMAP
38C7
18C6
0CCC
0C98
07F0
0FF0
0D98
1998
3198
718E
E10E
0206
0006
0006
ENDCHAR
STARTCHAR uni0498
ENCODING 1176
SWIDTH 580 0
DWIDTH 12 0
BBX 11 18 0 -4
BITMAP
0F80
1FE0
3860
3020
0060
00E0
07C0
0F80
00C0
0040
C0C0
61C0
7F80
1F00
0C00
0800
1800
1800
ENDCHAR
STARTCHAR uni0499
ENCODING 1177
SWIDTH 497 0
DWIDTH 10 0
BBX 9 15 0 -4
BITMAP
1F00
3F80
7180
0180
1F00
1F00
0300
0100
C300
7F00
3C00
1800
1800
1000
3000
ENDCHAR
STARTCHAR uni049A
ENCODING 1178
SWIDTH 684 0
DWIDTH 14 0
BBX 13 17 1 -3
BITMAP
3038
3060
30C0
3180
2380
6700
7E00
7E00
6600
6300
4300
C180
C1E0
C0E0
0060
0040
00C0
ENDCHAR
STARTCHAR uni049B
ENCODING 1179
SWIDTH 577 0
DWIDTH 12 0
BBX 11 14 0 -3
BITMAP
30E0
3180
3300
2600
3C00
7C00
6600
6600
6300
43C0
41C0
80C0
00C0
0080
ENDCHAR
STARTCHAR uni049C
ENCODING 1180
SWIDTH 615 0
DWIDTH 12 0
BBX 12 14 1 0
BITMAP
3030
3060
20C0
6CC0
6980
6B00
7E00
7E00
DB00
DB00
C180
C180
C180
80C0
ENDCHAR
STARTCHAR uni049D
ENCODING 1181
SWIDTH 549 0
DWIDTH 11 0
BBX 11 11 0 0
BITMAP
3060
30C0
3D80
2F00
3F00
7F00
6B00
6B00
6180
4180
C0C0
ENDCHAR
STARTCHAR uni049E
ENCODING 1182
SWIDTH 638 0
DWIDTH 13 0
BBX 13 14 1 0
BITMAP
3038
3060
FCC0
FD80
2300
6700
7E00
7E00
6600
6300
C300
C180
C1C0
C0E0
ENDCHAR
STARTCHAR uni049F
ENCODING 1183
SWIDTH 508 0
DWIDTH 10 0
BBX 10 15 0 0
BITMAP
1800
1800
7E00
FE00
10C0
3180
3380
3300
3600
3C00
7C00
6600
6700
6300
4180
ENDCHAR
STARTCHAR uni04A0
ENCODING 1184
SWIDTH 798 0
DWIDTH 16 0
BBX 15 14 2 0
BITMAP
FC0E
FC1C
0C38
0C70
0CE0
09C0
0F80
1F80
1980
18C0
18E0
1060
3030
3038
ENDCHAR
STARTCHAR uni04A1
ENCODING 1185
SWIDTH 673 0
DWIDTH 13 0
BBX 13 11 1 0
BITMAP
FC38
FC60
0CC0
0980
0F00
1F00
1980
1980
18C0
10C0
3060
ENDCHAR
STARTCHAR uni04A2
ENCODING 1186
SWIDTH 731 0
DWIDTH 15 0
BBX 13 17 1 -3
BITMAP
3018
3010
2030
6030
6030
6030
7FF0
7FE0
4060
C060
C060
C060
C070
C0F0
0030
0020
0060
ENDCHAR
STARTCHAR uni04A3
ENCODING 1187
SWIDTH 592 0
DWIDTH 12 0
BBX 11 14 0 -3
BITMAP
3060
30C0
30C0
20C0
3FC0
7FC0
6080
6180
6180
41E0
41C0
80C0
00C0
00C0
ENDCHAR
STARTCHAR uni04A4
ENCODING 1188
SWIDTH 951 0
DWIDTH 19 0
BBX 19 14 1 0
BITMAP
301FE0
301FC0
203000
603000
603000
603000
7FF000
7FE000
406000
C06000
C06000
C06000
C04000
C0C000
ENDCHAR
STARTCHAR uni04A5
ENCODING 1189
SWIDTH 696 0
DWIDTH 14 0
BBX 14 11 0 0
BITMAP
307C
30FC
20C0
20C0
7FC0
7FC0
6080
6180
6180
4180
C180
ENDCHAR
STARTCHAR uni04A6
ENCODING 1190
SWIDTH 998 0
DWIDTH 20 0
BBX 17 17 1 -3
BITMAP
3FF800
3FF000
303000
203000
603000
603000
603E00
607F00
606380
C06180
C06080
C06080
C04180
C0C180
000300
000F00
000C00
ENDCHAR
STARTCHAR uni04A7
ENCODING 1191
SWIDTH 848 0
DWIDTH 17 0
BBX 16 14 0 -3
BITMAP
3FC0
3FC0
30C0
20C0
60F8
60FE
6086
6182
6183
4182
C186
000E
001C
0018
ENDCHAR
STARTCHAR uni04A8
ENCODING 1192
SWIDTH 723 0
DWIDTH 14 0
BBX 13 14 1 0
BITMAP
0CF0
3DF8
3318
6318
6618
4618
C618
C618
C630
C630
C360
63C0
3FF0
1E70
ENDCHAR
STARTCHAR uni04A9
ENCODING 1193
SWIDTH 589 0
DWIDTH 12 0
BBX 10 11 1 0
BITMAP
3380
77C0
6CC0
CCC0
CCC0
C8C0
CC80
CD80
E700
7F80
3D80
ENDCHAR
STARTCHAR uni04AA
ENCODING 1194
SWIDTH 636 0
DWIDTH 13 0
BBX 12 18 1 -4
BITMAP
0780
1FE0
3860
7020
6030
6000
4000
C000
C000
C060
C0C0
61C0
7F80
1E00
1800
1800
1800
1800
ENDCHAR
STARTCHAR uni04AB
ENCODING 1195
SWIDTH 512 0
DWIDTH 10 0
BBX 9 15 1 -4
BITMAP
1E00
7F00
6300
C180
C000
8000
8000
C300
C700
7E00
3C00
3000
3000
3000
2000
ENDCHAR
STARTCHAR uni04AC
ENCODING 1196
SWIDTH 583 0
DWIDTH 12 0
BBX 11 17 2 -3
BITMAP
FFE0
FFC0
0C00
0C00
0800
1800
1800
1800
1800
1800
1000
3000
3800
3800
1800
1800
1800
ENDCHAR
STARTCHAR uni04AD
ENCODING 1197
SWIDTH 470 0
DWIDTH 9 0
BBX 9 14 1 -3
BITMAP
FF80
FF80
1800
1800
1800
1000
1000
3000
3000
3800
3800
1800
1800
1800
ENDCHAR
STARTCHAR uni04AE
ENCODING 1198
SWIDTH 587 0
DWIDTH 12 0
BBX 11 14 2 0
BITMAP
C0E0
C0C0
4180
6300
6300
2600
3C00
3C00
1800
1000
3000
3000
3000
3000
ENDCHAR
STARTCHAR uni04AF
ENCODING 1199
SWIDTH 490 0
DWIDTH 10 0
BBX 9 15 1 -4
BITMAP
C180
4180
6300
6300
6600
6400
2C00
2800
3800
3000
3000
3000
3000
2000
6000
ENDCHAR
STARTCHAR uni04B0
ENCODING 1200
SWIDTH 587 0
DWIDTH 12 0
BBX 11 14 2 0
BITMAP
C060
C0C0
6180
6180
6300
3600
3E00
3C00
7E00
7E00
1800
1000
3000
3000
ENDCHAR
STARTCHAR uni04B1
ENCODING 1201
SWIDTH 490 0
DWIDTH 10 0
BBX 9 15 1 -4
BITMAP
C180
4180
6300
6200
6600
6400
2C00
2800
3800
FC00
FC00
3000
3000
2000
6000
ENDCHAR
STARTCHAR uni04B2
ENCODING 1202
SWIDTH 622 0
DWIDTH 12 0
BBX 13 17 0 -3
BITMAP
3038
1830
1860
0CC0
0D80
0580
0700
0700
0F00
1980
3180
30C0
60E0
C0E0
0060
0060
0060
ENDCHAR
STARTCHAR uni04B3
ENCODING 1203
SWIDTH 509 0
DWIDTH 10 0
BBX 11 14 -1 -3
BITMAP
30E0
18C0
1980
0F00
0E00
0600
0E00
1B00
3300
31C0
61C0
80C0
0080
0180
ENDCHAR
STARTCHAR uni04B4
ENCODING 1204
SWIDTH 874 0
DWIDTH 17 0
BBX 14 17 2 -3
BITMAP
FF8C
FF8C
180C
1818
1818
1018
3018
3018
3010
3030
2030
6030
7FF8
7FF8
0018
0010
0010
ENDCHAR
STARTCHAR uni04B5
ENCODING 1205
SWIDTH 654 0
DWIDTH 13 0
BBX 11 14 1 -3
BITMAP
FE60
FE60
3060
3040
30C0
30C0
20C0
60C0
6080
7FE0
7FC0
00C0
00C0
00C0
ENDCHAR
STARTCHAR uni04B6
ENCODING 1206
SWIDTH 700 0
DWIDTH 14 0
BBX 11 17 2 -3
BITMAP
6060
4060
C060
C0C0
C0C0
C0C0
C0C0
7FC0
3F80
0080
0180
0180
01C0
01C0
00C0
00C0
00C0
ENDCHAR
STARTCHAR uni04B7
ENCODING 1207
SWIDTH 561 0
DWIDTH 11 0
BBX 8 14 2 -3
BITMAP
C3
C3
83
83
C6
FE
7E
06
06
07
07
02
06
06
ENDCHAR
STARTCHAR uni04B8
ENCODING 1208
SWIDTH 663 0
DWIDTH 13 0
BBX 11 14 2 0
BITMAP
6060
C060
C040
C0C0
C4C0
CCC0
CCC0
7FC0
3F80
0980
0980
1180
0180
0180
ENDCHAR
STARTCHAR uni04B9
ENCODING 1209
SWIDTH 540 0
DWIDTH 11 0
BBX 8 11 2 0
BITMAP
C3
C3
9B
93
D3
FE
7E
36
06
06
06
ENDCHAR
STARTCHAR uni04BA
ENCODING 1210
SWIDTH 663 0
DWIDTH 13 0
BBX 11 14 0 0
BITMAP
1000
3000
3000
3000
3000
3F80
7FC0
6060
6060
6060
6060
4060
C060
C0C0
ENDCHAR
STARTCHAR uni04BB
ENCODING 1211
SWIDTH 539 0
DWIDTH 11 0
BBX 10 15 0 0
BITMAP
1800
1000
1000
3000
3780
3F80
38C0
30C0
20C0
6080
6180
6180
6180
4180
C180
ENDCHAR
STARTCHAR uni04BC
ENCODING 1212
SWIDTH 754 0
DWIDTH 15 0
BBX 13 14 1 0
BITMAP
01E0
07F0
0E18
0C18
D808
5808
7FF8
3FF8
1800
1000
1800
1C20
0FE0
07C0
ENDCHAR
STARTCHAR uni04BD
ENCODING 1213
SWIDTH 579 0
DWIDTH 12 0
BBX 11 11 0 0
BITMAP
0780
0FC0
D840
F060
7FE0
3FE0
3000
3000
30C0
1F80
0F00
ENDCHAR
STARTCHAR uni04BE
ENCODING 1214
SWIDTH 754 0
DWIDTH 15 0
BBX 13 18 1 -4
BITMAP
01E0
07F0
0E18
0C18
D808
5808
7FF8
3FF8
1800
1000
1800
1C20
0FE0
07C0
0300
0300
0300
0200
ENDCHAR
STARTCHAR uni04BF
ENCODING 1215
SWIDTH 579 0
DWIDTH 12 0
BBX 11 15 0 -4
BITMAP
0780
0FC0
D840
F060
7FE0
3FE0
3000
3000
30C0
1F80
0F00
0400
0400
0C00
0C00
ENDCHAR
STARTCHAR uni04C0
ENCODING 1216
SWIDTH 268 0
DWIDTH 5 0
BBX 4 14 1 0
BITMAP
30
30
30
20
60
60
60
60
60
40
C0
C0
C0
C0
ENDCHAR
STARTCHAR uni04C1
ENCODING 1217
SWIDTH 885 0
DWIDTH 18 0
BBX 20 17 -1 0
BITMAP
006600
003C00
000000
183070
0C30C0
0C31C0
063180
062300
036600
03FC00
07FC00
066600
0C6600
1C4300
38C300
70C180
E0C180
ENDCHAR
STARTCHAR uni04C2
ENCODING 1218
SWIDTH 747 0
DWIDTH 15 0
BBX 16 14 -1 0
BITMAP
0198
00F0
0000
38C7
18C6
0CCC
0C98
07F0
0FF0
0D98
1998
3198
718C
E30E
ENDCHAR
STARTCHAR uni04C3
ENCODING 1219
SWIDTH 615 0
DWIDTH 12 0
BBX 13 17 0 -3
BITMAP
1838
1070
30E0
31C0
3380
3700
3F00
3FC0
60C0
6060
6060
6060
4060
C0C0
01C0
0380
0700
ENDCHAR
STARTCHAR uni04C4
ENCODING 1220
SWIDTH 532 0
DWIDTH 11 0
BBX 11 14 0 -3
BITMAP
30E0
3180
3300
2600
3E00
7F00
6380
6180
6180
4180
4180
8300
0700
0400
ENDCHAR
STARTCHAR uni04C5
ENCODING 1221
SWIDTH 731 0
DWIDTH 15 0
BBX 14 18 0 -4
BITMAP
07FC
07F8
0C18
0C18
0C18
0C18
0C10
1830
1830
1830
3830
3030
E020
C078
0018
0010
0030
0020
ENDCHAR
STARTCHAR uni04C6
ENCODING 1222
SWIDTH 603 0
DWIDTH 12 0
BBX 12 15 -1 -4
BITMAP
0FE0
0FE0
0C60
0C60
0860
1860
1840
18C0
30C0
F0C0
E0F0
0020
0060
0060
00C0
ENDCHAR
STARTCHAR uni04C7
ENCODING 1223
SWIDTH 695 0
DWIDTH 14 0
BBX 13 18 1 -4
BITMAP
3018
3030
3030
2030
6030
6030
7FE0
7FE0
4060
C060
C060
C060
C040
C0C0
00C0
00C0
0780
0700
ENDCHAR
STARTCHAR uni04C8
ENCODING 1224
SWIDTH 554 0
DWIDTH 11 0
BBX 10 15 0 -4
BITMAP
3040
30C0
20C0
20C0
7FC0
7F80
6080
6180
6180
4180
C180
0100
0300
0F00
0E00
ENDCHAR
STARTCHAR uni04C9
ENCODING 1225
SWIDTH 740 0
DWIDTH 15 0
BBX 13 18 1 -4
BITMAP
3018
3010
2030
6030
6030
6030
7FF0
7FE0
4060
C060
C060
C060
C040
C0F0
0030
0030
0060
0040
ENDCHAR
STARTCHAR uni04CA
ENCODING 1226
SWIDTH 601 0
DWIDTH 12 0
BBX 11 15 0 -4
BITMAP
3060
30C0
30C0
20C0
3FC0
7FC0
6080
6180
6180
4180
41E0
8040
00C0
00C0
0180
ENDCHAR
STARTCHAR uni04CB
ENCODING 1227
SWIDTH 668 0
DWIDTH 13 0
BBX 11 17 2 -3
BITMAP
6060
4060
C060
C0C0
C0C0
C0C0
C0C0
7FC0
3F80
0080
0180
0180
0780
0780
0600
0600
0400
ENDCHAR
STARTCHAR uni04CC
ENCODING 1228
SWIDTH 532 0
DWIDTH 11 0
BBX 8 14 2 -3
BITMAP
C3
C3
83
83
C6
FE
7E
06
06
1E
14
10
30
30
ENDCHAR
STARTCHAR uni04CD
ENCODING 1229
SWIDTH 891 0
DWIDTH 18 0
BBX 16 18 1 -4
BITMAP
3007
3807
380E
781E
681E
6C36
6C36
6C64
444C
C4CC
C78C
C78C
C70C
820E
0016
0006
000C
0008
ENDCHAR
STARTCHAR uni04CE
ENCODING 1230
SWIDTH 761 0
DWIDTH 15 0
BBX 14 15 0 -4
BITMAP
381C
3818
3838
2878
2C78
6CD8
6498
6590
6710
4730
423C
800C
0008
0018
0030
ENDCHAR
STARTCHAR uni04CF
ENCODING 1231
SWIDTH 268 0
DWIDTH 5 0
BBX 4 14 1 0
BITMAP
30
30
30
20
60
60
60
60
60
40
C0
C0
C0
C0
ENDCHAR
STARTCHAR uni04D0
ENCODING 1232
SWIDTH 637 0
DWIDTH 13 0
BBX 12 17 -1 0
BITMAP
0110
01E0
0000
00C0
01C0
01C0
0340
0640
0660
0C60
0C60
1820
1FE0
3FF0
3030
6030
C030
ENDCHAR
STARTCHAR uni04D1
ENCODING 1233
SWIDTH 532 0
DWIDTH 11 0
BBX 9 14 1 0
BITMAP
1980
0F00
0000
1E00
7F00
6100
0180
3F00
7F00
C300
C300
C700
FF00
7B00
ENDCHAR
STARTCHAR uni04D2
ENCODING 1234
SWIDTH 637 0
DWIDTH 13 0
BBX 12 17 -1 0
BITMAP
0330
0330
0000
00C0
01C0
01C0
0340
0640
0660
0C60
0C60
1820
1FE0
3FF0
3030
6030
C030
ENDCHAR
STARTCHAR uni04D3
ENCODING 1235
SWIDTH 532 0
DWIDTH 11 0
BBX 9 14 1 0
BITMAP
1980
1980
0000
1E00
7F00
6100
0180
3F00
7F00
C300
C300
C700
FF00
7B00
ENDCHAR
STARTCHAR uni04D4
ENCODING 1236
SWIDTH 911 0
DWIDTH 18 0
BBX 20 14 -1 0
BITMAP
003FF0
007FE0
007800
00D800
019000
031000
033FC0
063FC0
0C3000
1FF000
3FF000
302000
603FC0
C07FC0
ENDCHAR
STARTCHAR uni04D5
ENCODING 1237
SWIDTH 823 0
DWIDTH 16 0
BBX 16 11 0 0
BITMAP
1F3C
3FFE
61C2
0183
3FFF
7FFE
E100
C380
C784
FEFC
7C7E
ENDCHAR
STARTCHAR uni04D6
ENCODING 1238
SWIDTH 556 0
DWIDTH 11 0
BBX 11 17 1 0
BITMAP
0CC0
0780
0000
3FE0
3FE0
3000
6000
6000
6000
7F80
7F80
4000
C000
C000
C000
FF80
FF00
ENDCHAR
STARTCHAR uni04D7
ENCODING 1239
SWIDTH 518 0
DWIDTH 10 0
BBX 9 14 1 0
BITMAP
1180
0F00
0000
1E00
7F00
6300
C100
FF00
FF00
8000
C000
C200
7F00
3C00
ENDCHAR
STARTCHAR uni04D8
ENCODING 1240
SWIDTH 675 0
DWIDTH 14 0
BBX 12 14 1 0
BITMAP
0F80
1FE0
1060
0030
0030
0030
0030
FFF0
C030
C060
C0E0
61C0
7F80
1E00
ENDCHAR
STARTCHAR uni04D9
ENCODING 1241
SWIDTH 516 0
DWIDTH 10 0
BBX 9 11 1 0
BITMAP
3E00
7F00
4300
0100
0180
FF80
FF00
C300
C700
FE00
7800
ENDCHAR
STARTCHAR uni04DA
ENCODING 1242
SWIDTH 675 0
DWIDTH 14 0
BBX 12 17 1 0
BITMAP
0CC0
0CC0
0000
0F80
1FE0
1060
0030
0030
0030
0030
FFF0
C030
C060
C0E0
61C0
7F80
1E00
ENDCHAR
STARTCHAR uni04DB
ENCODING 1243
SWIDTH 516 0
DWIDTH 10 0
BBX 9 14 1 0
BITMAP
1180
1980
0000
3E00
7F00
4300
0100
0180
FF80
FF00
C300
C700
FE00
7800
ENDCHAR
STARTCHAR uni04DC
ENCODING 1244
SWIDTH 885 0
DWIDTH 18 0
BBX 20 17 -1 0
BITMAP
006600
006600
000000
183070
0C30C0
0C31C0
063180
062300
036600
03FC00
07FC00
066600
0C6600
1C4300
38C300
70C180
E0C180
ENDCHAR
STARTCHAR uni04DD
ENCODING 1245
SWIDTH 747 0
DWIDTH 15 0
BBX 16 14 -1 0
BITMAP
0198
0198
0000
38C7
18C6
0CCC
0C98
07F0
0FF0
0D98
1998
3198
718C
E30E
ENDCHAR
STARTCHAR uni04DE
ENCODING 1246
SWIDTH 580 0
DWIDTH 12 0
BBX 11 17 0 0
BITMAP
0660
0460
0000
0F80
1FE0
3860
3020
0060
00E0
07C0
0F80
00C0
0040
C0C0
61C0
7F80
1F00
ENDCHAR
STARTCHAR uni04DF
ENCODING 1247
SWIDTH 497 0
DWIDTH 10 0
BBX 9 14 0 0
BITMAP
1980
1980
0000
1F00
3F80
7180
0180
1F00
1F00
0300
0100
C300
7F00
3C00
ENDCHAR
STARTCHAR uni04E0
ENCODING 1248
SWIDTH 569 0
DWIDTH 11 0
BBX 10 14 1 0
BITMAP
3FC0
3FC0
4180
0300
0600
1C00
1E00
0300
0180
0180
8180
C300
FF00
7C00
ENDCHAR
STARTCHAR uni04E1
ENCODING 1249
SWIDTH 569 0
DWIDTH 11 0
BBX 10 15 0 -4
BITMAP
3FC0
3FC0
0180
0300
0600
0C00
1E00
1F00
0180
0180
0180
C180
C300
7F00
3C00
ENDCHAR
STARTCHAR uni04E2
ENCODING 1250
SWIDTH 696 0
DWIDTH 14 0
BBX 13 17 1 0
BITMAP
07E0
07E0
0000
3038
3030
3070
20F0
61B0
6330
6220
6660
6C60
D860
D060
F060
E040
C0C0
ENDCHAR
STARTCHAR uni04E3
ENCODING 1251
SWIDTH 564 0
DWIDTH 11 0
BBX 11 14 0 0
BITMAP
0FC0
0FC0
0000
30E0
30C0
31C0
23C0
26C0
64C0
6C80
7880
7180
6180
E180
ENDCHAR
STARTCHAR uni04E4
ENCODING 1252
SWIDTH 696 0
DWIDTH 14 0
BBX 13 17 1 0
BITMAP
0660
0660
0000
3038
3030
3070
20F0
61B0
6330
6220
6660
6C60
D860
D060
F060
E040
C0C0
ENDCHAR
STARTCHAR uni04E5
ENCODING 1253
SWIDTH 564 0
DWIDTH 11 0
BBX 11 14 0 0
BITMAP
0CC0
0CC0
0000
30E0
30C0
31C0
23C0
26C0
64C0
6C80
7880
7180
6180
E180
ENDCHAR
STARTCHAR uni04E6
ENCODING 1254
SWIDTH 671 0
DWIDTH 13 0
BBX 11 17 1 0
BITMAP
0460
0E40
0000
0F80
1FC0
38E0
6060
6020
C020
C060
C060
C060
C060
C0C0
61C0
7F80
3E00
ENDCHAR
STARTCHAR uni04E7
ENCODING 1255
SWIDTH 558 0
DWIDTH 11 0
BBX 9 14 1 0
BITMAP
1980
1980
0000
1E00
3F00
6380
C180
C180
C180
8180
C180
C300
7E00
3C00
ENDCHAR
STARTCHAR uni04E8
ENCODING 1256
SWIDTH 664 0
DWIDTH 13 0
BBX 11 14 1 0
BITMAP
0F80
1FC0
30E0
6060
6060
C060
FFE0
FFE0
C060
C060
C0C0
6180
7F80
3E00
ENDCHAR
STARTCHAR uni04E9
ENCODING 1257
SWIDTH 555 0
DWIDTH 11 0
BBX 9 11 1 0
BITMAP
1E00
3F00
6180
C180
FF80
FF80
8180
C180
C300
7E00
3C00
ENDCHAR
STARTCHAR uni04EA
ENCODING 1258
SWIDTH 664 0
DWIDTH 13 0
BBX 11 17 1 0
BITMAP
0660
0660
0000
0F80
1FC0
30E0
6060
6060
C060
FFE0
FFE0
C060
C060
C0C0
6180
7F80
3E00
ENDCHAR
STARTCHAR uni04EB
ENCODING 1259
SWIDTH 555 0
DWIDTH 11 0
BBX 9 14 1 0
BITMAP
1980
1180
0000
1E00
3F00
6180
C180
FF80
FF80
8180
C180
C300
7E00
3C00
ENDCHAR
STARTCHAR uni04EC
ENCODING 1260
SWIDTH 658 0
DWIDTH 13 0
BBX 11 17 1 0
BITMAP
0440
0CE0
0000
0F80
1FC0
38E0
7060
6020
0020
0FE0
0FE0
0060
C060
C0C0
61C0
7F80
1E00
ENDCHAR
STARTCHAR uni04ED
ENCODING 1261
SWIDTH 526 0
DWIDTH 11 0
BBX 9 14 1 0
BITMAP
1100
3B80
0000
1C00
7F00
6300
C100
1F00
1F00
0300
8300
C600
FE00
7800
ENDCHAR
STARTCHAR uni04EE
ENCODING 1262
SWIDTH 614 0
DWIDTH 12 0
BBX 12 17 1 0
BITMAP
0FC0
0FC0
0000
6030
2060
30C0
30C0
3180
1180
1B00
1A00
0E00
0C00
1C00
1800
F000
E000
ENDCHAR
STARTCHAR uni04EF
ENCODING 1263
SWIDTH 463 0
DWIDTH 9 0
BBX 11 18 -1 -4
BITMAP
0FC0
0FC0
0000
30E0
30C0
3080
1180
1100
1B00
1A00
1E00
1C00
0C00
0800
1800
3000
F000
E000
ENDCHAR
STARTCHAR uni04F0
ENCODING 1264
SWIDTH 614 0
DWIDTH 12 0
BBX 12 17 1 0
BITMAP
0CC0
0CC0
0000
6030
2060
30C0
30C0
3180
1180
1B00
1A00
0E00
0C00
1C00
1800
F000
E000
ENDCHAR
STARTCHAR uni04F1
ENCODING 1265
SWIDTH 463 0
DWIDTH 9 0
BBX 11 18 -1 -4
BITMAP
0CC0
0CC0
0000
30E0
30C0
3080
1180
1100
1B00
1A00
1E00
1C00
0C00
0800
1800
3000
F000
E000
ENDCHAR
STARTCHAR uni04F2
ENCODING 1266
SWIDTH 614 0
DWIDTH 12 0
BBX 12 18 1 0
BITMAP
0370
06C0
0D80
0000
6030
2060
30C0
30C0
3180
1180
1B00
1A00
0E00
0C00
1C00
1800
F000
E000
ENDCHAR
STARTCHAR uni04F3
ENCODING 1267
SWIDTH 463 0
DWIDTH 9 0
BBX 12 19 -1 -4
BITMAP
03F0
06C0
0D80
0000
30E0
30C0
3080
1180
1100
1B00
1A00
1E00
1C00
0C00
0800
1800
3000
F000
E000
ENDCHAR
STARTCHAR uni04F4
ENCODING 1268
SWIDTH 668 0
DWIDTH 13 0
BBX 11 17 2 0
BITMAP
1880
1980
0000
6060
4060
C060
C0C0
C0C0
C0C0
C0C0
7FC0
3F80
0080
0180
0180
0180
0180
ENDCHAR
STARTCHAR uni04F5
ENCODING 1269
SWIDTH 532 0
DWIDTH 11 0
BBX 8 14 2 0
BITMAP
66
66
00
C3
C3
83
83
C6
FE
7E
06
06
06
04
ENDCHAR
STARTCHAR uni04F6
ENCODING 1270
SWIDTH 544 0
DWIDTH 11 0
BBX 11 17 1 -3
BITMAP
3FE0
3FC0
3000
2000
6000
6000
6000
6000
6000
C000
C000
C000
E000
E000
6000
6000
4000
ENDCHAR
STARTCHAR uni04F7
ENCODING 1271
SWIDTH 411 0
DWIDTH 8 0
BBX 9 14 0 -3
BITMAP
3F80
3F80
3000
3000
2000
6000
6000
6000
6000
7000
7000
B000
2000
6000
ENDCHAR
STARTCHAR uni04F8
ENCODING 1272
SWIDTH 843 0
DWIDTH 17 0
BBX 15 17 1 0
BITMAP
0330
0330
0000
3002
3006
2006
6006
6006
6004
7F0C
7FCC
40CC
C0CC
C0CC
C1C8
FF98
FE18
ENDCHAR
STARTCHAR uni04F9
ENCODING 1273
SWIDTH 757 0
DWIDTH 15 0
BBX 13 14 1 0
BITMAP
0660
0660
0000
6018
6018
6018
6018
7E10
7F30
C330
C130
C330
FF30
FC20
ENDCHAR
STARTCHAR uni04FA
ENCODING 1274
SWIDTH 576 0
DWIDTH 12 0
BBX 12 18 0 -4
BITMAP
0FF0
0FF0
1800
1800
1800
7E00
7E00
3000
3000
3000
3000
3000
2000
7800
1800
3000
F000
E000
ENDCHAR
STARTCHAR uni04FB
ENCODING 1275
SWIDTH 449 0
DWIDTH 9 0
BBX 10 15 0 -4
BITMAP
1FC0
1F80
1000
3000
7E00
7E00
B000
3000
2000
6000
7800
1800
3000
F000
E000
ENDCHAR
STARTCHAR uni04FC
ENCODING 1276
SWIDTH 632 0
DWIDTH 13 0
BBX 13 18 0 -4
BITMAP
3038
1830
1860
0CC0
0D80
0580
0700
0700
0F00
1980
3180
30C0
60C0
C0F0
0060
0060
01E0
03C0
ENDCHAR
STARTCHAR uni04FD
ENCODING 1277
SWIDTH 520 0
DWIDTH 10 0
BBX 11 15 -1 -4
BITMAP
30E0
18C0
1980
0F00
0E00
0600
0E00
1B00
3300
3180
61C0
80C0
00C0
0780
0700
ENDCHAR
STARTCHAR uni04FE
ENCODING 1278
SWIDTH 612 0
DWIDTH 12 0
BBX 13 14 0 0
BITMAP
3038
1870
1860
0CC0
0D80
0780
1FC0
1F80
0F00
1900
1980
3180
60C0
C0E0
ENDCHAR
STARTCHAR uni04FF
ENCODING 1279
SWIDTH 485 0
DWIDTH 10 0
BBX 11 11 -1 0
BITMAP
30E0
18C0
0980
0F00
1F80
1F80
0E00
1B00
3300
3180
E180
ENDCHAR
STARTCHAR uni0500
ENCODING 1280
SWIDTH 606 0
DWIDTH 12 0
BBX 11 14 1 0
BITMAP
0060
0060
0060
0060
0040
00C0
3FC0
7FC0
E0C0
C080
8180
C180
FF80
7F80
ENDCHAR
STARTCHAR uni0501
ENCODING 1281
SWIDTH 551 0
DWIDTH 11 0
BBX 10 15 1 0
BITMAP
00C0
00C0
00C0
00C0
1D80
7F80
6380
C180
C180
C100
8300
C300
C700
FF00
7B00
ENDCHAR
STARTCHAR uni0502
ENCODING 1282
SWIDTH 802 0
DWIDTH 16 0
BBX 14 14 1 0
BITMAP
0060
0060
0060
0060
00C0
3FC0
7FCC
E0C4
C0C4
808C
C18C
C19C
FFF8
3FF0
ENDCHAR
STARTCHAR uni0503
ENCODING 1283
SWIDTH 840 0
DWIDTH 17 0
BBX 15 15 1 0
BITMAP
00C0
00C0
00C0
00C0
1C80
3F80
6186
C186
C186
C106
C304
C30C
C71C
FDF8
79E0
ENDCHAR
STARTCHAR uni0504
ENCODING 1284
SWIDTH 772 0
DWIDTH 15 0
BBX 12 14 2 0
BITMAP
FC00
FE00
0600
0200
0600
0E30
7C30
7830
8C30
0C30
0C30
0C60
0FC0
0780
ENDCHAR
STARTCHAR uni0505
ENCODING 1285
SWIDTH 631 0
DWIDTH 13 0
BBX 11 11 1 0
BITMAP
F800
FC00
0C00
0440
0C60
F860
F860
0CC0
08C0
0F80
0F00
ENDCHAR
STARTCHAR uni0506
ENCODING 1286
SWIDTH 524 0
DWIDTH 10 0
BBX 7 17 2 -3
BITMAP
F8
FC
06
06
06
0C
F8
F8
18
0C
0C
08
0E
0E
04
0C
08
ENDCHAR
STARTCHAR uni0507
ENCODING 1287
SWIDTH 493 0
DWIDTH 10 0
BBX 7 14 2 -3
BITMAP
F8
FC
0C
0C
0C
F8
F8
18
08
1E
1C
0C
0C
18
ENDCHAR
STARTCHAR uni0508
ENCODING 1288
SWIDTH 944 0
DWIDTH 19 0
BBX 18 14 0 0
BITMAP
07F800
07F800
061800
0C1800
0C1800
0C10C0
0C30C0
0830C0
1830C0
1830C0
183180
303180
F03F00
C01E00
ENDCHAR
STARTCHAR uni0509
ENCODING 1289
SWIDTH 787 0
DWIDTH 16 0
BBX 15 11 0 0
BITMAP
0FC0
0FC0
18C6
18C6
18C6
1886
1086
3186
31CC
E0FC
C070
ENDCHAR
STARTCHAR uni050A
ENCODING 1290
SWIDTH 972 0
DWIDTH 19 0
BBX 17 14 1 0
BITMAP
303000
303000
203000
603000
603000
606180
7FE180
7FE180
406180
C06180
C06300
C06700
C07E00
C03C00
ENDCHAR
STARTCHAR uni050B
ENCODING 1291
SWIDTH 808 0
DWIDTH 16 0
BBX 15 11 0 0
BITMAP
3040
30C0
20C6
20C6
7FC6
7FC6
6086
6186
60CC
40FC
C070
ENDCHAR
STARTCHAR uni050C
ENCODING 1292
SWIDTH 606 0
DWIDTH 12 0
BBX 10 14 1 0
BITMAP
0F80
1FC0
3840
7000
6000
4000
C0C0
C0C0
C0C0
C0C0
C0C0
6180
7F80
1E00
ENDCHAR
STARTCHAR uni050D
ENCODING 1293
SWIDTH 503 0
DWIDTH 10 0
BBX 8 11 1 0
BITMAP
1E
3F
62
C0
C0
C0
C3
C3
C3
7E
3C
ENDCHAR
STARTCHAR uni050E
ENCODING 1294
SWIDTH 692 0
DWIDTH 14 0
BBX 12 14 1 0
BITMAP
7FF0
7FF0
8600
0600
0400
0C30
0C30
0C30
0C30
0820
1860
1CE0
0FC0
0780
ENDCHAR
STARTCHAR uni050F
ENCODING 1295
SWIDTH 626 0
DWIDTH 13 0
BBX 10 11 1 0
BITMAP
7F80
7F80
8C00
0840
1840
1840
1840
18C0
19C0
1F80
0F00
ENDCHAR
STARTCHAR uni0510
ENCODING 1296
SWIDTH 658 0
DWIDTH 13 0
BBX 12 14 1 0
BITMAP
0FC0
1FE0
3870
6030
6000
3000
1F00
3F00
6000
C000
C060
E0C0
7F80
3F00
ENDCHAR
STARTCHAR uni0511
ENCODING 1297
SWIDTH 527 0
DWIDTH 11 0
BBX 9 11 1 0
BITMAP
3E00
7F00
6180
6000
7C00
7C00
C000
8000
C300
FE00
7C00
ENDCHAR
STARTCHAR uni0512
ENCODING 1298
SWIDTH 733 0
DWIDTH 15 0
BBX 14 18 0 -4
BITMAP
07FC
07F8
0C18
0C18
0C18
0C18
0C10
1830
1830
1830
3830
3030
E020
C078
0018
0038
00F0
00E0
ENDCHAR
STARTCHAR uni0513
ENCODING 1299
SWIDTH 604 0
DWIDTH 12 0
BBX 12 15 -1 -4
BITMAP
0FE0
0FE0
0C60
0C60
0860
1860
1840
18C0
30C0
F0C0
E0F0
0020
0060
01E0
01C0
ENDCHAR
STARTCHAR uni1E00
ENCODING 7680
SWIDTH 637 0
DWIDTH 13 0
BBX 12 18 -1 -4
BITMAP
00C0
01C0
01C0
0340
0640
0660
0C60
0C60
1820
1FE0
3FF0
3030
6030
C030
0000
0600
0900
0600
ENDCHAR
STARTCHAR uni1E01
ENCODING 7681
SWIDTH 532 0
DWIDTH 11 0
BBX 9 15 1 -4
BITMAP
1E00
7F00
6100
0180
3F00
7F00
C300
C300
C700
FF00
7B00
0000
7000
9000
6000
ENDCHAR
STARTCHAR uni1E3E
ENCODING 7742
SWIDTH 851 0
DWIDTH 17 0
BBX 16 18 1 0
BITMAP
0038
0060
00C0
0000
3007
3807
380E
781E
681E
6C36
6C36
6C64
444C
C4CC
C78C
C78C
C70C
8218
ENDCHAR
STARTCHAR uni1E3F
ENCODING 7743
SWIDTH 854 0
DWIDTH 17 0
BBX 16 15 0 0
BITMAP
0018
0030
0060
0000
371E
3FBE
31E3
60C3
6083
6183
6182
6186
4186
C186
C106
ENDCHAR
STARTCHAR Wgrave
ENCODING 7808
SWIDTH 865 0
DWIDTH 17 0
BBX 16 18 2 0
BITMAP
0300
0180
0180
0000
C183
C183
C386
C286
C684
C48C
CCCC
4CD8
48D8
58D0
50F0
7070
6060
6060
ENDCHAR
STARTCHAR wgrave
ENCODING 7809
SWIDTH 733 0
DWIDTH 15 0
BBX 14 15 1 0
BITMAP
0600
0300
0100
0000
C30C
4308
4718
4518
4D10
6DB0
69A0
79E0
70C0
70C0
60C0
ENDCHAR
STARTCHAR Wacute
ENCODING 7810
SWIDTH 865 0
DWIDTH 17 0
BBX 16 18 2 0
BITMAP
0070
00C0
0180
0000
C183
C183
C386
C286
C684
C48C
CCCC
4CD8
48D8
58D0
50F0
7070
6060
6060
ENDCHAR
STARTCHAR wacute
ENCODING 7811
SWIDTH 733 0
DWIDTH 15 0
BBX 14 15 1 0
BITMAP
00E0
0180
0300
0000
C30C
4308
4718
4518
4D10
6DB0
69A0
79E0
70C0
70C0
60C0
ENDCHAR
STARTCHAR Wdieresis
ENCODING 7812
SWIDTH 865 0
DWIDTH 17 0
BBX 16 17 2 0
BITMAP
0620
0670
0000
C183
C183
C386
C286
C684
C48C
CCCC
4CD8
48D8
58D0
50F0
7070
6060
6060
ENDCHAR
STARTCHAR wdieresis
ENCODING 7813
SWIDTH 733 0
DWIDTH 15 0
BBX 14 14 1 0
BITMAP
0460
0E40
0000
C30C
4308
4718
4518
4D10
6DB0
69A0
79E0
70C0
70C0
60C0
ENDCHAR
STARTCHAR uni1EA0
ENCODING 7840
SWIDTH 637 0
DWIDTH 13 0
BBX 12 17 -1 -3
BITMAP
00C0
01C0
01C0
0340
0640
0660
0C60
0C60
1820
1FE0
3FF0
3030
6030
C030
0000
0600
0600
ENDCHAR
STARTCHAR uni1EA1
ENCODING 7841
SWIDTH 532 0
DWIDTH 11 0
BBX 9 14 1 -3
BITMAP
1E00
7F00
6100
0180
3F00
7F00
C300
C300
C700
FF00
7B00
0000
6000
6000
ENDCHAR
STARTCHAR uni1EA2
ENCODING 7842
SWIDTH 637 0
DWIDTH 13 0
BBX 12 19 -1 0
BITMAP
0060
0030
0060
00C0
0000
00C0
01C0
01C0
0340
0640
0660
0C60
0C60
1820
1FE0
3FF0
3030
6030
C030
ENDCHAR
STARTCHAR uni1EA3
ENCODING 7843
SWIDTH 532 0
DWIDTH 11 0
BBX 9 16 1 0
BITMAP
0600
0100
0700
0400
0000
1E00
7F00
6100
0180
3F00
7F00
C300
C300
C700
FF00
7B00
ENDCHAR
STARTCHAR uni1EA4
ENCODING 7844
SWIDTH 637 0
DWIDTH 13 0
BBX 16 20 -1 0
BITMAP
0007
0006
00EC
01A0
0730
0000
00C0
01C0
01C0
0340
0640
0660
0C60
0C60
1820
1FE0
3FF0
3030
6030
C030
ENDCHAR
STARTCHAR uni1EA5
ENCODING 7845
SWIDTH 532 0
DWIDTH 11 0
BBX 12 17 1 0
BITMAP
0030
0060
0640
1F00
3980
0000
1E00
7F00
6100
0180
3F00
7F00
C300
C300
C700
FF00
7B00
ENDCHAR
STARTCHAR uni1EA6
ENCODING 7846
SWIDTH 637 0
DWIDTH 13 0
BBX 12 20 -1 0
BITMAP
0C00
0C00
04C0
01A0
0730
0000
00C0
01C0
01C0
0340
0640
0660
0C60
0C60
1820
1FE0
3FF0
3030
6030
C030
ENDCHAR
STARTCHAR uni1EA7
ENCODING 7847
SWIDTH 532 0
DWIDTH 11 0
BBX 9 17 1 0
BITMAP
C000
6000
2600
1B00
3980
0000
1E00
7F00
6100
0180
3F00
7F00
C300
C300
C700
FF00
7B00
ENDCHAR
STARTCHAR uni1EA8
ENCODING 7848
SWIDTH 637 0
DWIDTH 13 0
BBX 15 21 -1 0
BITMAP
000C
0006
0008
00E0
01A0
0710
0000
00C0
01C0
01C0
0340
0640
0660
0C60
0C60
1820
1FE0
3FF0
3030
6030
C030
ENDCHAR
STARTCHAR uni1EA9
ENCODING 7849
SWIDTH 532 0
DWIDTH 11 0
BBX 11 18 1 0
BITMAP
0060
0020
0040
0E80
1B00
3180
0000
1E00
7F00
6100
0180
3F00
7F00
C300
C300
C700
FF00
7B00
ENDCHAR
STARTCHAR uni1EAA
ENCODING 7850
SWIDTH 637 0
DWIDTH 13 0
BBX 12 20 -1 0
BITMAP
00D0
0130
0000
00E0
0730
0000
00C0
01C0
01C0
0340
0640
0660
0C60
0C60
1820
1FE0
3FF0
3030
6030
C030
ENDCHAR
STARTCHAR uni1EAB
ENCODING 7851
SWIDTH 532 0
DWIDTH 11 0
BBX 9 17 1 0
BITMAP
0C80
0B00
0000
0E00
3980
0000
1E00
7F00
6100
0180
3F00
7F00
C300
C300
C700
FF00
7B00
ENDCHAR
STARTCHAR uni1EAC
ENCODING 7852
SWIDTH 637 0
DWIDTH 13 0
BBX 12 21 -1 -3
BITMAP
00C0
01A0
0330
0000
00C0
01C0
01C0
0340
0640
0660
0C60
0C60
1820
1FE0
3FF0
3030
6030
C030
0000
0600
0600
ENDCHAR
STARTCHAR uni1EAD
ENCODING 7853
SWIDTH 532 0
DWIDTH 11 0
BBX 9 18 1 -3
BITMAP
0600
1F00
1980
0000
1E00
7F00
6100
0180
3F00
7F00
C300
C300
C700
FF00
7B00
0000
6000
6000
ENDCHAR
STARTCHAR uni1EAE
ENCODING 7854
SWIDTH 637 0
DWIDTH 13 0
BBX 12 20 -1 0
BITMAP
0030
0040
0080
0330
01E0
0000
00C0
01C0
01C0
0340
0640
0660
0C60
0C60
1820
1FE0
3FF0
3030
6030
C030
ENDCHAR
STARTCHAR uni1EAF
ENCODING 7855
SWIDTH 532 0
DWIDTH 11 0
BBX 9 17 1 0
BITMAP
0300
0200
0C00
1980
0F00
0000
1E00
7F00
6100
0180
3F00
7F00
C300
C300
C700
FF00
7B00
ENDCHAR
STARTCHAR uni1EB0
ENCODING 7856
SWIDTH 637 0
DWIDTH 13 0
BBX 12 19 -1 0
BITMAP
0080
0040
0330
01E0
0000
00C0
01C0
01C0
0340
0640
0660
0C60
0C60
1820
1FE0
3FF0
3030
6030
C030
ENDCHAR
STARTCHAR uni1EB1
ENCODING 7857
SWIDTH 532 0
DWIDTH 11 0
BBX 9 16 1 0
BITMAP
0C00
0600
1980
0F00
0000
1E00
7F00
6100
0180
3F00
7F00
C300
C300
C700
FF00
7B00
ENDCHAR
STARTCHAR uni1EB2
ENCODING 7858
SWIDTH 637 0
DWIDTH 13 0
BBX 12 20 -1 0
BITMAP
0060
0030
0040
0330
01E0
0000
00C0
01C0
01C0
0340
0640
0660
0C60
0C60
1820
1FE0
3FF0
3030
6030
C030
ENDCHAR
STARTCHAR uni1EB3
ENCODING 7859
SWIDTH 532 0
DWIDTH 11 0
BBX 9 17 1 0
BITMAP
0300
0100
0600
1980
0F00
0000
1E00
7F00
6100
0180
3F00
7F00
C300
C300
C700
FF00
7B00
ENDCHAR
STARTCHAR uni1EB4
ENCODING 7860
SWIDTH 637 0
DWIDTH 13 0
BBX 12 20 -1 0
BITMAP
00D0
0130
0000
0330
01E0
0000
00C0
01C0
01C0
0340
0640
0660
0C60
0C60
1820
1FE0
3FF0
3030
6030
C030
ENDCHAR
STARTCHAR uni1EB5
ENCODING 7861
SWIDTH 532 0
DWIDTH 11 0
BBX 9 17 1 0
BITMAP
0C80
0B00
0000
1980
0F00
0000
1E00
7F00
6100
0180
3F00
7F00
C300
C300
C700
FF00
7B00
ENDCHAR
STARTCHAR uni1EB6
ENCODING 7862
SWIDTH 637 0
DWIDTH 13 0
BBX 12 20 -1 -3
BITMAP
0110
01E0
0000
00C0
01C0
01C0
0340
0640
0660
0C60
0C60
1820
1FE0
3FF0
3030
6030
C030
0000
0600
0600
ENDCHAR
STARTCHAR uni1EB7
ENCODING 7863
SWIDTH 532 0
DWIDTH 11 0
BBX 9 17 1 -3
BITMAP
1980
0F00
0000
1E00
7F00
6100
0180
3F00
7F00
C300
C300
C700
FF00
7B00
0000
6000
6000
ENDCHAR
STARTCHAR uni1EB8
ENCODING 7864
SWIDTH 556 0
DWIDTH 11 0
BBX 11 17 1 -3
BITMAP
3FE0
3FE0
3000
6000
6000
6000
7F80
7F80
4000
C000
C000
C000
FF80
FF00
0000
3000
3000
ENDCHAR
STARTCHAR uni1EB9
ENCODING 7865
SWIDTH 518 0
DWIDTH 10 0
BBX 8 14 1 -3
BITMAP
1E
7F
63
C1
FF
FF
80
C0
C2
7F
3C
00
30
30
ENDCHAR
STARTCHAR uni1EBA
ENCODING 7866
SWIDTH 556 0
DWIDTH 11 0
BBX 11 19 1 0
BITMAP
0300
0080
0380
0200
0000
3FE0
3FE0
3000
6000
6000
6000
7F80
7F80
4000
C000
C000
C000
FF80
FF00
ENDCHAR
STARTCHAR uni1EBB
ENCODING 7867
SWIDTH 518 0
DWIDTH 10 0
BBX 8 16 1 0
BITMAP
06
01
07
04
00
1E
7F
63
C1
FF
FF
80
C0
C2
7F
3C
ENDCHAR
STARTCHAR uni1EBC
ENCODING 7868
SWIDTH 556 0
DWIDTH 11 0
BBX 11 17 1 0
BITMAP
0E40
1980
0000
3FE0
3FE0
3000
6000
6000
6000
7F80
7F80
4000
C000
C000
C000
FF80
FF00
ENDCHAR
STARTCHAR uni1EBD
ENCODING 7869
SWIDTH 518 0
DWIDTH 10 0
BBX 9 14 1 0
BITMAP
1C80
2300
0000
1E00
7F00
6300
C100
FF00
FF00
8000
C000
C200
7F00
3C00
ENDCHAR
STARTCHAR uni1EBE
ENCODING 7870
SWIDTH 556 0
DWIDTH 11 0
BBX 13 20 1 0
BITMAP
0018
0030
0720
0D80
18C0
0000
3FE0
3FE0
3000
6000
6000
6000
7F80
7F80
4000
C000
C000
C000
FF80
FF00
ENDCHAR
STARTCHAR uni1EBF
ENCODING 7871
SWIDTH 518 0
DWIDTH 10 0
BBX 12 17 1 0
BITMAP
0030
0060
0EC0
1B00
3180
0000
1E00
7F00
6300
C100
FF00
FF00
8000
C000
C200
7F00
3C00
ENDCHAR
STARTCHAR uni1EC0
ENCODING 7872
SWIDTH 556 0
DWIDTH 11 0
BBX 11 20 1 0
BITMAP
6000
3000
3700
0D80
18C0
0000
3FE0
3FE0
3000
6000
6000
6000
7F80
7F80
4000
C000
C000
C000
FF80
FF00
ENDCHAR
STARTCHAR uni1EC1
ENCODING 7873
SWIDTH 518 0
DWIDTH 10 0
BBX 9 17 1 0
BITMAP
C000
4000
6E00
1B00
3180
0000
1E00
7F00
6300
C100
FF00
FF00
8000
C000
C200
7F00
3C00
ENDCHAR
STARTCHAR uni1EC2
ENCODING 7874
SWIDTH 556 0
DWIDTH 11 0
BBX 12 21 1 0
BITMAP
0030
0010
0060
0700
0D80
18C0
0000
3FE0
3FE0
3000
6000
6000
6000
7F80
7F80
4000
C000
C000
C000
FF80
FF00
ENDCHAR
STARTCHAR uni1EC3
ENCODING 7875
SWIDTH 518 0
DWIDTH 10 0
BBX 11 18 1 0
BITMAP
0040
0020
00C0
0E00
1B00
3180
0000
1E00
7F00
6300
C100
FF00
FF00
8000
C000
C200
7F00
3C00
ENDCHAR
STARTCHAR uni1EC4
ENCODING 7876
SWIDTH 556 0
DWIDTH 11 0
BBX 11 20 1 0
BITMAP
0640
0980
0000
0700
1CC0
0000
3FE0
3FE0
3000
6000
6000
6000
7F80
7F80
4000
C000
C000
C000
FF80
FF00
ENDCHAR
STARTCHAR uni1EC5
ENCODING 7877
SWIDTH 518 0
DWIDTH 10 0
BBX 9 17 1 0
BITMAP
0D80
1300
0000
0E00
3180
0000
1E00
7F00
6300
C100
FF00
FF00
8000
C000
C200
7F00
3C00
ENDCHAR
STARTCHAR uni1EC6
ENCODING 7878
SWIDTH 556 0
DWIDTH 11 0
BBX 11 21 1 -3
BITMAP
0300
0F80
0C80
0000
3FE0
3FE0
3000
6000
6000
6000
7F80
7F80
4000
C000
C000
C000
FF80
FF00
0000
3000
3000
ENDCHAR
STARTCHAR uni1EC7
ENCODING 7879
SWIDTH 518 0
DWIDTH 10 0
BBX 8 18 1 -3
BITMAP
06
1B
31
00
1E
7F
63
C1
FF
FF
80
C0
C2
7F
3C
00
30
30
ENDCHAR
STARTCHAR uni1EC8
ENCODING 7880
SWIDTH 268 0
DWIDTH 5 0
BBX 6 19 1 0
BITMAP
18
0C
1C
10
00
30
30
30
20
60
60
60
60
60
40
C0
C0
C0
C0
ENDCHAR
STARTCHAR uni1EC9
ENCODING 7881
SWIDTH 244 0
DWIDTH 5 0
BBX 6 16 0 0
BITMAP
18
04
1C
10
00
30
30
30
20
20
60
60
60
60
40
C0
ENDCHAR
STARTCHAR uni1ECA
ENCODING 7882
SWIDTH 268 0
DWIDTH 5 0
BBX 5 17 0 -3
BITMAP
18
18
18
10
30
30
30
30
30
20
60
60
60
60
00
C0
C0
ENDCHAR
STARTCHAR uni1ECB
ENCODING 7883
SWIDTH 240 0
DWIDTH 5 0
BBX 5 18 0 -3
BITMAP
18
18
00
00
30
30
30
20
20
60
60
60
60
40
40
80
C0
C0
ENDCHAR
STARTCHAR uni1ECC
ENCODING 7884
SWIDTH 671 0
DWIDTH 13 0
BBX 11 17 1 -3
BITMAP
0F80
1FC0
38E0
6060
6020
C020
C060
C060
C060
C060
C0C0
61C0
7F80
3E00
0000
1800
1800
ENDCHAR
STARTCHAR uni1ECD
ENCODING 7885
SWIDTH 558 0
DWIDTH 11 0
BBX 9 14 1 -3
BITMAP
1E00
3F00
6380
C180
C180
C180
8180
C180
C300
7E00
3C00
0000
3000
3000
ENDCHAR
STARTCHAR uni1ECE
ENCODING 7886
SWIDTH 671 0
DWIDTH 13 0
BBX 11 19 1 0
BITMAP
0180
00C0
01C0
0100
0000
0F80
1FC0
38E0
6060
6020
C020
C060
C060
C060
C060
C0C0
61C0
7F80
3E00
ENDCHAR
STARTCHAR uni1ECF
ENCODING 7887
SWIDTH 558 0
DWIDTH 11 0
BBX 9 16 1 0
BITMAP
0600
0100
0700
0400
0000
1E00
3F00
6380
C180
C180
C180
8180
C180
C300
7E00
3C00
ENDCHAR
STARTCHAR uni1ED0
ENCODING 7888
SWIDTH 671 0
DWIDTH 13 0
BBX 14 20 1 0
BITMAP
000C
0018
03B0
06C0
0C60
0000
0F80
1FC0
38E0
6060
6020
C020
C060
C060
C060
C060
C0C0
61C0
7F80
3E00
ENDCHAR
STARTCHAR uni1ED1
ENCODING 7889
SWIDTH 558 0
DWIDTH 11 0
BBX 12 17 1 0
BITMAP
0030
0060
0EC0
1B00
3180
0000
1E00
3F00
6380
C180
C180
C180
8180
C180
C300
7E00
3C00
ENDCHAR
STARTCHAR uni1ED2
ENCODING 7890
SWIDTH 671 0
DWIDTH 13 0
BBX 11 20 1 0
BITMAP
3000
1000
1B80
06C0
0C60
0000
0F80
1FC0
38E0
6060
6020
C020
C060
C060
C060
C060
C0C0
61C0
7F80
3E00
ENDCHAR
STARTCHAR uni1ED3
ENCODING 7891
SWIDTH 558 0
DWIDTH 11 0
BBX 9 17 1 0
BITMAP
C000
6000
6E00
1B00
3180
0000
1E00
3F00
6380
C180
C180
C180
8180
C180
C300
7E00
3C00
ENDCHAR
STARTCHAR uni1ED4
ENCODING 7892
SWIDTH 671 0
DWIDTH 13 0
BBX 13 21 1 0
BITMAP
0010
0028
0030
0380
06C0
0C60
0000
0F80
1FC0
38E0
6060
6020
C020
C060
C060
C060
C060
C0C0
61C0
7F80
3E00
ENDCHAR
STARTCHAR uni1ED5
ENCODING 7893
SWIDTH 558 0
DWIDTH 11 0
BBX 11 18 1 0
BITMAP
0060
0020
00C0
0E00
1B00
3180
0000
1E00
3F00
6380
C180
C180
C180
8180
C180
C300
7E00
3C00
ENDCHAR
STARTCHAR uni1ED6
ENCODING 7894
SWIDTH 671 0
DWIDTH 13 0
BBX 11 20 1 0
BITMAP
0340
04C0
0000
0380
0CE0
0000
0F80
1FC0
38E0
6060
6020
C020
C060
C060
C060
C060
C0C0
61C0
7F80
3E00
ENDCHAR
STARTCHAR uni1ED7
ENCODING 7895
SWIDTH 558 0
DWIDTH 11 0
BBX 9 17 1 0
BITMAP
0C80
1300
0000
0E00
3180
0000
1E00
3F00
6380
C180
C180
C180
8180
C180
C300
7E00
3C00
ENDCHAR
STARTCHAR uni1ED8
ENCODING 7896
SWIDTH 671 0
DWIDTH 13 0
BBX 11 21 1 -3
BITMAP
0180
06C0
0C40
0000
0F80
1FC0
38E0
6060
6020
C020
C060
C060
C060
C060
C0C0
61C0
7F80
3E00
0000
1800
1800
ENDCHAR
STARTCHAR uni1ED9
ENCODING 7897
SWIDTH 558 0
DWIDTH 11 0
BBX 9 18 1 -3
BITMAP
0600
1B00
1900
0000
1E00
3F00
6380
C180
C180
C180
8180
C180
C300
7E00
3C00
0000
3000
3000
ENDCHAR
STARTCHAR uni1EDA
ENCODING 7898
SWIDTH 670 0
DWIDTH 13 0
BBX 14 18 1 0
BITMAP
00E0
0180
0304
000C
0FCC
1FF8
38F0
6060
6020
C020
C020
C060
C060
C060
C0C0
61C0
7F80
1E00
ENDCHAR
STARTCHAR uni1EDB
ENCODING 7899
SWIDTH 559 0
DWIDTH 11 0
BBX 11 15 1 0
BITMAP
0380
0700
0600
0020
1F60
3FE0
61C0
C180
C180
C180
C180
C180
C300
7E00
3C00
ENDCHAR
STARTCHAR uni1EDC
ENCODING 7900
SWIDTH 670 0
DWIDTH 13 0
BBX 14 18 1 0
BITMAP
0600
0300
0304
000C
0FCC
1FF8
38F0
6060
6020
C020
C020
C060
C060
C060
C0C0
61C0
7F80
1E00
ENDCHAR
STARTCHAR uni1EDD
ENCODING 7901
SWIDTH 559 0
DWIDTH 11 0
BBX 11 15 1 0
BITMAP
1800
0C00
0600
0020
1F60
3FE0
61C0
C180
C180
C180
C180
C180
C300
7E00
3C00
ENDCHAR
STARTCHAR uni1EDE
ENCODING 7902
SWIDTH 670 0
DWIDTH 13 0
BBX 14 19 1 0
BITMAP
0180
00C0
01C0
0104
000C
0FCC
1FF8
38F0
6060
6020
C020
C020
C060
C060
C060
C0C0
61C0
7F80
1E00
ENDCHAR
STARTCHAR uni1EDF
ENCODING 7903
SWIDTH 559 0
DWIDTH 11 0
BBX 11 16 1 0
BITMAP
0600
0100
0700
0400
0020
1F60
3FE0
61C0
C180
C180
C180
C180
C180
C300
7E00
3C00
ENDCHAR
STARTCHAR uni1EE0
ENCODING 7904
SWIDTH 670 0
DWIDTH 13 0
BBX 14 17 1 0
BITMAP
0620
09C4
000C
0FCC
1FF8
38F0
6060
6020
C020
C020
C060
C060
C060
C0C0
61C0
7F80
1E00
ENDCHAR
STARTCHAR uni1EE1
ENCODING 7905
SWIDTH 559 0
DWIDTH 11 0
BBX 11 14 1 0
BITMAP
1C80
3380
0020
1F60
3FE0
61C0
C180
C180
C180
C180
C180
C300
7E00
3C00
ENDCHAR
STARTCHAR uni1EE2
ENCODING 7906
SWIDTH 670 0
DWIDTH 13 0
BBX 14 19 1 -3
BITMAP
0004
000C
0FCC
1FF8
38F0
6060
6020
C020
C020
C060
C060
C060
C0C0
61C0
7F80
1E00
0000
1800
1800
ENDCHAR
STARTCHAR uni1EE3
ENCODING 7907
SWIDTH 559 0
DWIDTH 11 0
BBX 11 15 1 -3
BITMAP
0020
1F60
3FE0
61C0
C180
C180
C180
C180
C180
C300
7E00
3C00
0000
3000
3000
ENDCHAR
STARTCHAR uni1EE4
ENCODING 7908
SWIDTH 633 0
DWIDTH 13 0
BBX 12 17 1 -3
BITMAP
3030
3030
2030
6020
6060
6060
6060
4060
4060
C0C0
C0C0
61C0
7F80
3E00
0000
1800
1800
ENDCHAR
STARTCHAR uni1EE5
ENCODING 7909
SWIDTH 539 0
DWIDTH 11 0
BBX 9 14 1 -3
BITMAP
6080
6180
6180
4180
4180
C180
C100
C300
C700
7F00
7B00
0000
6000
6000
ENDCHAR
STARTCHAR uni1EE6
ENCODING 7910
SWIDTH 633 0
DWIDTH 13 0
BBX 12 19 1 0
BITMAP
0180
0080
0180
0300
0000
3030
3030
2030
6020
6060
6060
6060
4060
4060
C0C0
C0C0
61C0
7F80
3E00
ENDCHAR
STARTCHAR uni1EE7
ENCODING 7911
SWIDTH 539 0
DWIDTH 11 0
BBX 9 16 1 0
BITMAP
0600
0100
0700
0400
0000
6080
6180
6180
4180
4180
C180
C100
C300
C700
7F00
7B00
ENDCHAR
STARTCHAR uni1EE8
ENCODING 7912
SWIDTH 679 0
DWIDTH 14 0
BBX 16 18 1 0
BITMAP
00E0
0180
0300
0003
3032
2036
603C
6078
6060
6060
6060
4060
C0C0
C0C0
C0C0
E1C0
7F80
3E00
ENDCHAR
STARTCHAR uni1EE9
ENCODING 7913
SWIDTH 604 0
DWIDTH 12 0
BBX 12 15 1 0
BITMAP
0380
0700
0600
0010
61B0
61E0
61E0
4180
C180
C100
C300
C300
C700
FF00
7B00
ENDCHAR
STARTCHAR uni1EEA
ENCODING 7914
SWIDTH 679 0
DWIDTH 14 0
BBX 16 18 1 0
BITMAP
0600
0300
0300
0003
3032
2036
603C
6078
6060
6060
6060
4060
C0C0
C0C0
C0C0
E1C0
7F80
3E00
ENDCHAR
STARTCHAR uni1EEB
ENCODING 7915
SWIDTH 604 0
DWIDTH 12 0
BBX 12 15 1 0
BITMAP
1800
0C00
0600
0010
61B0
61E0
61E0
4180
C180
C100
C300
C300
C700
FF00
7B00
ENDCHAR
STARTCHAR uni1EEC
ENCODING 7916
SWIDTH 679 0
DWIDTH 14 0
BBX 16 19 1 0
BITMAP
0180
00C0
0180
0100
0003
3032
2036
603C
6078
6060
6060
6060
4060
C0C0
C0C0
C0C0
E1C0
7F80
3E00
ENDCHAR
STARTCHAR uni1EED
ENCODING 7917
SWIDTH 604 0
DWIDTH 12 0
BBX 12 16 1 0
BITMAP
0600
0100
0700
0400
0010
61B0
61E0
61E0
4180
C180
C100
C300
C300
C700
FF00
7B00
ENDCHAR
STARTCHAR uni1EEE
ENCODING 7918
SWIDTH 679 0
DWIDTH 14 0
BBX 16 17 1 0
BITMAP
0620
09C0
0003
3032
2036
603C
6078
6060
6060
6060
4060
C0C0
C0C0
C0C0
E1C0
7F80
3E00
ENDCHAR
STARTCHAR uni1EEF
ENCODING 7919
SWIDTH 604 0
DWIDTH 12 0
BBX 12 14 1 0
BITMAP
1C80
3300
0010
61B0
61E0
61E0
4180
C180
C100
C300
C300
C700
FF00
7B00
ENDCHAR
STARTCHAR uni1EF0
ENCODING 7920
SWIDTH 679 0
DWIDTH 14 0
BBX 16 18 1 -3
BITMAP
0003
3032
2036
603C
6078
6060
6060
6060
4060
C0C0
C0C0
C0C0
E1C0
7F80
3E00
0000
1800
1800
ENDCHAR
STARTCHAR uni1EF1
ENCODING 7921
SWIDTH 604 0
DWIDTH 12 0
BBX 12 15 1 -3
BITMAP
0010
61B0
61E0
61E0
4180
C180
C100
C300
C300
C700
FF00
7B00
0000
3000
3000
ENDCHAR
STARTCHAR Ygrave
ENCODING 7922
SWIDTH 587 0
DWIDTH 12 0
BBX 11 18 2 0
BITMAP
1800
0C00
0400
0000
C0E0
C0C0
4180
6300
6300
2600
3C00
3C00
1800
1000
3000
3000
3000
3000
ENDCHAR
STARTCHAR ygrave
ENCODING 7923
SWIDTH 463 0
DWIDTH 9 0
BBX 11 19 -1 -4
BITMAP
0E00
0600
0300
0000
30E0
30C0
3080
1180
1100
1B00
1A00
1E00
1C00
0C00
0800
1800
3000
F000
E000
ENDCHAR
STARTCHAR uni1EF4
ENCODING 7924
SWIDTH 587 0
DWIDTH 12 0
BBX 11 17 2 -3
BITMAP
C0E0
C0C0
4180
6300
6300
2600
3C00
3C00
1800
1000
3000
3000
3000
3000
0000
6000
6000
ENDCHAR
STARTCHAR uni1EF5
ENCODING 7925
SWIDTH 463 0
DWIDTH 9 0
BBX 11 16 -1 -5
BITMAP
30E0
30C0
3080
1180
1100
1B00
1A00
1E00
1C00
0C00
0800
1800
3000
F000
E600
0600
ENDCHAR
STARTCHAR uni1EF6
ENCODING 7926
SWIDTH 587 0
DWIDTH 12 0
BBX 11 19 2 0
BITMAP
0600
0100
0700
0400
0000
C0E0
C0C0
4180
6300
6300
2600
3C00
3C00
1800
1000
3000
3000
3000
3000
ENDCHAR
STARTCHAR uni1EF7
ENCODING 7927
SWIDTH 463 0
DWIDTH 9 0
BBX 11 20 -1 -4
BITMAP
0180
0080
0180
0300
0000
30E0
30C0
3080
1180
1100
1B00
1A00
1E00
1C00
0C00
0800
1800
3000
F000
E000
ENDCHAR
STARTCHAR uni1EF8
ENCODING 7928
SWIDTH 587 0
DWIDTH 12 0
BBX 11 17 2 0
BITMAP
1C80
3300
0000
C0E0
C0C0
4180
6300
6300
2600
3C00
3C00
1800
1000
3000
3000
3000
3000
ENDCHAR
STARTCHAR uni1EF9
ENCODING 7929
SWIDTH 463 0
DWIDTH 9 0
BBX 11 18 -1 -4
BITMAP
0E60
09C0
0000
30E0
30C0
3080
1180
1100
1B00
1A00
1E00
1C00
0C00
0800
1800
3000
F000
E000
ENDCHAR
STARTCHAR uni1F4D
ENCODING 8013
SWIDTH 706 0
DWIDTH 14 0
BBX 16 14 -3 0
BITMAP
CC7C
D9FE
5187
2303
0603
0603
0603
0603
0403
0606
0606
070C
03F8
01F0
ENDCHAR
STARTCHAR uni2000
ENCODING 8192
SWIDTH 499 0
DWIDTH 10 0
BBX 1 1 0 0
BITMAP
00
ENDCHAR
STARTCHAR uni2001
ENCODING 8193
SWIDTH 994 0
DWIDTH 20 0
BBX 1 1 0 0
BITMAP
00
ENDCHAR
STARTCHAR uni2002
ENCODING 8194
SWIDTH 499 0
DWIDTH 10 0
BBX 1 1 0 0
BITMAP
00
ENDCHAR
STARTCHAR uni2003
ENCODING 8195
SWIDTH 994 0
DWIDTH 20 0
BBX 1 1 0 0
BITMAP
00
ENDCHAR
STARTCHAR uni2004
ENCODING 8196
SWIDTH 334 0
DWIDTH 7 0
BBX 1 1 0 0
BITMAP
00
ENDCHAR
STARTCHAR uni2005
ENCODING 8197
SWIDTH 251 0
DWIDTH 5 0
BBX 1 1 0 0
BITMAP
00
ENDCHAR
STARTCHAR uni2006
ENCODING 8198
SWIDTH 169 0
DWIDTH 3 0
BBX 1 1 0 0
BITMAP
00
ENDCHAR
STARTCHAR uni2007
ENCODING 8199
SWIDTH 549 0
DWIDTH 11 0
BBX 1 1 0 0
BITMAP
00
ENDCHAR
STARTCHAR uni2008
ENCODING 8200
SWIDTH 270 0
DWIDTH 5 0
BBX 1 1 0 0
BITMAP
00
ENDCHAR
STARTCHAR uni2009
ENCODING 8201
SWIDTH 202 0
DWIDTH 4 0
BBX 1 1 0 0
BITMAP
00
ENDCHAR
STARTCHAR uni200A
ENCODING 8202
SWIDTH 104 0
DWIDTH 2 0
BBX 1 1 0 0
BITMAP
00
ENDCHAR
STARTCHAR uni200B
ENCODING 8203
SWIDTH 0 0
DWIDTH 0 0
BBX 1 1 0 0
BITMAP
00
ENDCHAR
STARTCHAR uni2010
ENCODING 8208
SWIDTH 271 0
DWIDTH 5 0
BBX 5 2 0 5
BITMAP
F8
F8
ENDCHAR
STARTCHAR uni2011
ENCODING 8209
SWIDTH 271 0
DWIDTH 5 0
BBX 5 2 0 5
BITMAP
F8
F8
ENDCHAR
STARTCHAR endash
ENCODING 8211
SWIDTH 641 0
DWIDTH 13 0
BBX 9 2 2 6
BITMAP
FF80
FF80
ENDCHAR
STARTCHAR emdash
ENCODING 8212
SWIDTH 762 0
DWIDTH 15 0
BBX 14 2 1 6
BITMAP
7FFC
FFF8
ENDCHAR
STARTCHAR uni2015
ENCODING 8213
SWIDTH 762 0
DWIDTH 15 0
BBX 14 2 1 6
BITMAP
7FFC
FFF8
ENDCHAR
STARTCHAR underscoredbl
ENCODING 8215
SWIDTH 446 0
DWIDTH 9 0
BBX 10 5 -2 -5
BITMAP
7FC0
7FC0
0000
7F80
FF80
ENDCHAR
STARTCHAR quoteleft
ENCODING 8216
SWIDTH 198 0
DWIDTH 4 0
BBX 3 5 2 10
BITMAP
20
60
C0
C0
C0
ENDCHAR
STARTCHAR quoteright
ENCODING 8217
SWIDTH 198 0
DWIDTH 4 0
BBX 4 5 1 10
BITMAP
30
20
60
60
C0
ENDCHAR
STARTCHAR quotesinglbase
ENCODING 8218
SWIDTH 197 0
DWIDTH 4 0
BBX 3 5 -1 -3
BITMAP
60
60
60
C0
80
ENDCHAR
STARTCHAR quotereversed
ENCODING 8219
SWIDTH 198 0
DWIDTH 4 0
BBX 2 5 2 10
BITMAP
C0
C0
C0
C0
40
ENDCHAR
STARTCHAR quotedblleft
ENCODING 8220
SWIDTH 347 0
DWIDTH 7 0
BBX 6 5 2 10
BITMAP
24
6C
D8
D8
D8
ENDCHAR
STARTCHAR quotedblright
ENCODING 8221
SWIDTH 351 0
DWIDTH 7 0
BBX 7 5 1 10
BITMAP
36
34
2C
6C
D8
ENDCHAR
STARTCHAR quotedblbase
ENCODING 8222
SWIDTH 338 0
DWIDTH 7 0
BBX 6 5 -1 -3
BITMAP
2C
6C
6C
58
D0
ENDCHAR
STARTCHAR dagger
ENCODING 8224
SWIDTH 539 0
DWIDTH 11 0
BBX 10 14 1 0
BITMAP
0600
0C00
0C00
FFC0
FFC0
0C00
0800
0800
1800
1800
1800
1800
1800
1000
ENDCHAR
STARTCHAR daggerdbl
ENCODING 8225
SWIDTH 557 0
DWIDTH 11 0
BBX 11 18 0 -4
BITMAP
0300
0200
0600
7FE0
7FE0
0600
0600
0400
0C00
0C00
0C00
0C00
FFC0
FF80
0800
1800
1800
1800
ENDCHAR
STARTCHAR bullet
ENCODING 8226
SWIDTH 331 0
DWIDTH 7 0
BBX 4 4 2 6
BITMAP
E0
F0
F0
E0
ENDCHAR
STARTCHAR twodotenleader
ENCODING 8229
SWIDTH 461 0
DWIDTH 9 0
BBX 7 2 0 0
BITMAP
66
C6
ENDCHAR
STARTCHAR ellipsis
ENCODING 8230
SWIDTH 653 0
DWIDTH 13 0
BBX 11 2 0 0
BITMAP
6660
C660
ENDCHAR
STARTCHAR uni2027
ENCODING 8231
SWIDTH 186 0
DWIDTH 4 0
BBX 2 2 1 5
BITMAP
C0
C0
ENDCHAR
STARTCHAR perthousand
ENCODING 8240
SWIDTH 934 0
DWIDTH 19 0
BBX 15 14 2 0
BITMAP
7000
C840
8880
8980
8B00
9A00
7400
0DDC
1A72
1622
2622
4622
C266
039C
ENDCHAR
STARTCHAR minute
ENCODING 8242
SWIDTH 173 0
DWIDTH 3 0
BBX 2 5 2 10
BITMAP
C0
C0
80
80
80
ENDCHAR
STARTCHAR second
ENCODING 8243
SWIDTH 314 0
DWIDTH 6 0
BBX 5 5 2 10
BITMAP
58
D0
D0
90
90
ENDCHAR
STARTCHAR guilsinglleft
ENCODING 8249
SWIDTH 295 0
DWIDTH 6 0
BBX 5 8 1 1
BITMAP
18
30
60
C0
C0
40
60
20
ENDCHAR
STARTCHAR guilsinglright
ENCODING 8250
SWIDTH 295 0
DWIDTH 6 0
BBX 5 8 0 1
BITMAP
60
30
10
18
18
30
60
C0
ENDCHAR
STARTCHAR exclamdbl
ENCODING 8252
SWIDTH 508 0
DWIDTH 10 0
BBX 9 14 1 0
BITMAP
3180
3180
2100
6300
6300
6300
6300
4300
4200
C200
0400
0000
C600
C600
ENDCHAR
STARTCHAR fraction
ENCODING 8260
SWIDTH 445 0
DWIDTH 9 0
BBX 9 12 0 1
BITMAP
0080
0180
0100
0200
0600
0C00
1800
1000
2000
6000
C000
8000
ENDCHAR
STARTCHAR uni2074
ENCODING 8308
SWIDTH 360 0
DWIDTH 7 0
BBX 6 8 1 6
BITMAP
0C
1C
3C
28
48
FC
FC
18
ENDCHAR
STARTCHAR uni207F
ENCODING 8319
SWIDTH 414 0
DWIDTH 8 0
BBX 7 7 1 7
BITMAP
7C
66
66
66
46
46
C4
ENDCHAR
STARTCHAR franc
ENCODING 8355
SWIDTH 541 0
DWIDTH 11 0
BBX 12 14 0 0
BITMAP
1FF0
1FE0
1800
3000
3000
3000
3FC0
3F80
2000
6000
FC00
FC00
6000
4000
ENDCHAR
STARTCHAR lira
ENCODING 8356
SWIDTH 568 0
DWIDTH 11 0
BBX 11 14 0 0
BITMAP
07C0
0FE0
1C60
1860
1800
7F00
7F00
1000
7E00
7E00
3000
3000
FFC0
FFC0
ENDCHAR
STARTCHAR uni20A6
ENCODING 8358
SWIDTH 772 0
DWIDTH 15 0
BBX 16 14 0 0
BITMAP
0C04
0C0C
1E0C
1E0C
1B0C
7FFF
7FFE
1198
FFFE
FFFE
30D8
3070
2070
6030
ENDCHAR
STARTCHAR peseta
ENCODING 8359
SWIDTH 800 0
DWIDTH 16 0
BBX 14 14 1 0
BITMAP
3F18
3F98
2198
61FC
61FC
61B0
63B0
7F30
7E30
C020
C060
C060
C078
8038
ENDCHAR
STARTCHAR uni20A8
ENCODING 8360
SWIDTH 1030 0
DWIDTH 21 0
BBX 19 14 1 0
BITMAP
3F8000
3FC000
30C000
606780
606FC0
60F860
61D800
7F9F00
7F0F80
C300C0
C300C0
C1B0C0
C19F80
81CF00
ENDCHAR
STARTCHAR uni20A9
ENCODING 8361
SWIDTH 722 0
DWIDTH 14 0
BBX 15 14 0 0
BITMAP
3186
3184
318C
338C
3388
7FFC
7FFC
B690
FFFC
FFFC
38A0
38E0
38C0
30C0
ENDCHAR
STARTCHAR uni20AA
ENCODING 8362
SWIDTH 752 0
DWIDTH 15 0
BBX 14 11 0 0
BITMAP
3F84
3FCC
30CC
20CC
66CC
66CC
66C8
6418
6C18
4FF0
CFE0
ENDCHAR
STARTCHAR dong
ENCODING 8363
SWIDTH 566 0
DWIDTH 11 0
BBX 13 19 0 -4
BITMAP
0060
01F8
03F0
0060
0EC0
3FC0
31C0
60C0
60C0
6080
4180
6180
6380
7F80
3D80
0000
0000
FF80
FF80
ENDCHAR
STARTCHAR Euro
ENCODING 8364
SWIDTH 549 0
DWIDTH 11 0
BBX 10 14 1 0
BITMAP
07C0
0FC0
1C00
1800
3000
FF00
FE00
3000
FE00
FE00
6000
3000
3F00
1F00
ENDCHAR
STARTCHAR uni20B1
ENCODING 8369
SWIDTH 714 0
DWIDTH 14 0
BBX 14 14 1 0
BITMAP
1FC0
3FE0
3060
FFFC
FFFC
3030
FFFC
FFF8
60E0
7FC0
7F80
6000
C000
C000
ENDCHAR
STARTCHAR uni20B9
ENCODING 8377
SWIDTH 505 0
DWIDTH 10 0
BBX 10 14 1 0
BITMAP
7FC0
7FC0
0600
0200
FFC0
FF80
0600
0E00
FC00
F800
6000
3000
1800
1C00
ENDCHAR
STARTCHAR uni20BA
ENCODING 8378
SWIDTH 544 0
DWIDTH 11 0
BBX 10 14 0 0
BITMAP
0C00
0D00
0F00
3E00
7A00
5E00
3CC0
F8C0
90C0
3180
3180
3300
3E00
3C00
ENDCHAR
STARTCHAR uni20BC
ENCODING 8380
SWIDTH 645 0
DWIDTH 13 0
BBX 11 11 0 0
BITMAP
0300
0300
0F80
1FC0
3AE0
6660
6660
4620
C620
C660
CC60
ENDCHAR
STARTCHAR uni20BD
ENCODING 8381
SWIDTH 648 0
DWIDTH 13 0
BBX 13 14 0 0
BITMAP
0FE0
1FF0
1838
1818
1818
1818
1030
FFF0
FFC0
3000
FE00
FE00
2000
6000
ENDCHAR
STARTCHAR uni2105
ENCODING 8453
SWIDTH 720 0
DWIDTH 14 0
BBX 11 14 2 0
BITMAP
3800
4840
CCC0
8180
8B00
DA00
7400
0DC0
1A60
1620
2620
6660
4240
0380
ENDCHAR
STARTCHAR uni2113
ENCODING 8467
SWIDTH 466 0
DWIDTH 9 0
BBX 8 15 1 0
BITMAP
0E
0F
19
19
1B
13
36
3E
3C
F0
F0
20
30
38
18
ENDCHAR
STARTCHAR uni2116
ENCODING 8470
SWIDTH 1002 0
DWIDTH 20 0
BBX 19 14 1 0
BITMAP
3063C0
306640
386C60
786C60
686C60
6C4C40
6CCCC0
44C780
C6C000
C6DF80
C28000
C38000
C38000
818000
ENDCHAR
STARTCHAR trademark
ENCODING 8482
SWIDTH 611 0
DWIDTH 12 0
BBX 10 5 2 9
BITMAP
F4C0
4C80
4D80
4E80
4A80
ENDCHAR
STARTCHAR uni03A9.dup2
ENCODING 8486
SWIDTH 649 0
DWIDTH 13 0
BBX 12 14 0 0
BITMAP
07C0
0FE0
1C70
3030
3030
2030
6030
6030
6020
6060
2040
3180
FBE0
FBE0
ENDCHAR
STARTCHAR estimated
ENCODING 8494
SWIDTH 622 0
DWIDTH 12 0
BBX 10 11 1 0
BITMAP
0F00
3080
6080
60C0
E0C0
FFC0
C000
C000
4000
6100
3E00
ENDCHAR
STARTCHAR oneeighth
ENCODING 8539
SWIDTH 750 0
DWIDTH 15 0
BBX 12 14 2 0
BITMAP
3000
E080
E1C0
2100
2200
6600
6DE0
49F0
1330
31E0
63E0
4220
83E0
03C0
ENDCHAR
STARTCHAR threeeighths
ENCODING 8540
SWIDTH 833 0
DWIDTH 17 0
BBX 14 14 1 0
BITMAP
3C00
3E10
6630
1C20
1C40
C480
7DB8
3B7C
0244
0478
0C78
18CC
10FC
0078
ENDCHAR
STARTCHAR fiveeighths
ENCODING 8541
SWIDTH 830 0
DWIDTH 17 0
BBX 14 14 1 0
BITMAP
3E00
3C10
6020
7860
3CC0
0480
FD38
7B7C
0644
0478
0878
18CC
30F8
0078
ENDCHAR
STARTCHAR seveneighths
ENCODING 8542
SWIDTH 782 0
DWIDTH 16 0
BBX 12 14 2 0
BITMAP
FC00
FC40
08C0
1980
3300
2200
64F0
CDF0
1990
11F0
21F0
6330
43F0
01E0
ENDCHAR
STARTCHAR partialdiff
ENCODING 8706
SWIDTH 557 0
DWIDTH 11 0
BBX 9 15 1 0
BITMAP
1E00
3F00
2180
0180
0080
1E80
7F80
6180
C180
C180
C180
C100
C300
7E00
3C00
ENDCHAR
STARTCHAR uni0394.dup3
ENCODING 8710
SWIDTH 688 0
DWIDTH 14 0
BBX 13 14 -1 0
BITMAP
00C0
00C0
01E0
0360
0360
0620
0430
0C30
1830
1810
3010
2018
7FF8
FFF8
ENDCHAR
STARTCHAR product
ENCODING 8719
SWIDTH 678 0
DWIDTH 14 0
BBX 13 16 0 -2
BITMAP
1FF8
1FF8
1018
3018
3010
3010
3030
3030
2030
6030
6030
6020
6060
6060
4060
C060
ENDCHAR
STARTCHAR summation
ENCODING 8721
SWIDTH 572 0
DWIDTH 11 0
BBX 13 17 -1 -3
BITMAP
1FF8
1FF8
1800
0C00
0600
0600
0300
0180
0180
0300
0600
0C00
1800
3000
6000
FFE0
FFE0
ENDCHAR
STARTCHAR minus
ENCODING 8722
SWIDTH 559 0
DWIDTH 11 0
BBX 8 2 2 6
BITMAP
FF
FF
ENDCHAR
STARTCHAR radical
ENCODING 8730
SWIDTH 583 0
DWIDTH 12 0
BBX 12 14 1 0
BITMAP
0030
0060
0040
00C0
0180
0180
E300
E300
2600
3600
3C00
3C00
1800
1000
ENDCHAR
STARTCHAR infinity
ENCODING 8734
SWIDTH 1002 0
DWIDTH 20 0
BBX 18 11 1 0
BITMAP
1E0F00
3F1F80
61B1C0
C0E0C0
C0C0C0
C0C0C0
C0C0C0
C1C180
C36380
7E3F00
3C1E00
ENDCHAR
STARTCHAR integral
ENCODING 8747
SWIDTH 252 0
DWIDTH 5 0
BBX 10 19 -2 -4
BITMAP
03C0
0780
0600
0C00
0C00
0C00
0C00
0C00
0C00
0800
1800
1800
1800
1800
1800
1000
3000
F000
E000
ENDCHAR
STARTCHAR approxequal
ENCODING 8776
SWIDTH 551 0
DWIDTH 11 0
BBX 10 7 0 3
BITMAP
3C40
7FC0
43C0
0000
7840
7FC0
8780
ENDCHAR
STARTCHAR notequal
ENCODING 8800
SWIDTH 537 0
DWIDTH 11 0
BBX 9 11 1 1
BITMAP
0100
0180
0300
7F80
7F80
0C00
1800
FF00
FF00
6000
C000
ENDCHAR
STARTCHAR lessequal
ENCODING 8804
SWIDTH 498 0
DWIDTH 10 0
BBX 9 11 0 0
BITMAP
0080
0380
0F00
7800
6000
3C00
0F00
0300
0000
FF00
FF00
ENDCHAR
STARTCHAR greaterequal
ENCODING 8805
SWIDTH 512 0
DWIDTH 10 0
BBX 10 11 0 0
BITMAP
2000
3800
0F00
03C0
01C0
0F00
7800
6000
0000
FF00
FF00
ENDCHAR
STARTCHAR lozenge
ENCODING 9674
SWIDTH 493 0
DWIDTH 10 0
BBX 9 14 1 0
BITMAP
0C00
0E00
1E00
3200
6300
6300
C100
C380
C300
4600
6C00
6800
3800
3000
ENDCHAR
STARTCHAR uniEE01
ENCODING 60929
SWIDTH 283 0
DWIDTH 6 0
BBX 4 10 1 2
BITMAP
30
30
00
00
00
00
00
00
C0
C0
ENDCHAR
STARTCHAR uniEE02
ENCODING 60930
SWIDTH 314 0
DWIDTH 6 0
BBX 5 4 1 7
BITMAP
48
48
D8
D0
ENDCHAR
STARTCHAR uniF6C3
ENCODING 63171
SWIDTH 249 0
DWIDTH 5 0
BBX 3 4 0 -2
BITMAP
60
40
C0
80
ENDCHAR
STARTCHAR uniFB01
ENCODING 64257
SWIDTH 541 0
DWIDTH 11 0
BBX 9 15 1 0
BITMAP
0F00
1F80
3100
3000
FD80
F980
6180
6100
6100
6300
4300
4300
C300
C200
C600
ENDCHAR
STARTCHAR uniFB02
ENCODING 64258
SWIDTH 555 0
DWIDTH 11 0
BBX 10 15 1 0
BITMAP
0F80
1FC0
30C0
3080
FC80
FD80
2180
6180
6180
6100
6100
6300
4300
C300
C300
ENDCHAR
STARTCHAR uniFB03
ENCODING 64259
SWIDTH 833 0
DWIDTH 17 0
BBX 15 15 1 0
BITMAP
0E3C
1EFE
30C4
3080
FFE6
FFE6
2184
618C
618C
610C
630C
630C
4308
C318
C318
ENDCHAR
STARTCHAR uniFB04
ENCODING 64260
SWIDTH 833 0
DWIDTH 17 0
BBX 16 15 1 0
BITMAP
0E7E
1EFF
30C2
3086
FFF6
FFE6
2184
6184
618C
610C
630C
630C
4308
C308
C318
ENDCHAR
STARTCHAR uniFEFF
ENCODING 65279
SWIDTH 0 0
DWIDTH 0 0
BBX 1 1 0 0
BITMAP
00
ENDCHAR
STARTCHAR uniFFFC
ENCODING 65532
SWIDTH 999 0
DWIDTH 20 0
BBX 22 18 -1 -4
BITMAP
1DDDDC
100008
100008
000000
100008
200008
073850
2CC850
28F050
29CA50
077B80
400010
400020
400020
000000
400020
C00020
EEEEE0
ENDCHAR
STARTCHAR uniFFFD
ENCODING 65533
SWIDTH 1025 0
DWIDTH 21 0
BBX 19 19 1 -3
BITMAP
004000
00E000
01F000
03F800
07FC00
0E1E00
1C0F00
3CCF80
7FCFC0
FFCFE0
7F1FC0
3F3F80
1FFF00
0F3E00
073C00
03F800
01F000
00E000
004000
ENDCHAR
STARTCHAR .notdef
ENCODING -1
SWIDTH 448 0
DWIDTH 9 0
BBX 7 14 1 0
BITMAP
FE
82
C6
CA
AA
B2
92
92
B2
AA
CA
C6
82
FE
ENDCHAR
STARTCHAR glyph369
ENCODING -1
SWIDTH 383 0
DWIDTH 8 0
BBX 6 3 2 11
BITMAP
CC
C8
50
ENDCHAR
STARTCHAR uni2009.locl
ENCODING -1
SWIDTH 125 0
DWIDTH 3 0
BBX 1 1 0 0
BITMAP
00
ENDCHAR
STARTCHAR f_f.dlig
ENCODING -1
SWIDTH 604 0
DWIDTH 12 0
BBX 13 15 1 0
BITMAP
0E78
1EF0
38C0
3180
FFE0
FFE0
3180
2180
6100
6300
6300
6300
4300
4300
C200
ENDCHAR
STARTCHAR longs_t.dlig
ENCODING -1
SWIDTH 602 0
DWIDTH 12 0
BBX 11 15 1 0
BITMAP
0F80
1FC0
3880
3180
F7E0
F7E0
2180
6180
6100
6300
6300
6300
4300
C380
C180
ENDCHAR
STARTCHAR s_t.dlig
ENCODING -1
SWIDTH 805 0
DWIDTH 16 0
BBX 16 15 0 0
BITMAP
0078
00FC
01CC
0184
0F9F
3FBF
318C
200C
3C0C
1F08
0318
0198
E318
7F1E
3E0C
ENDCHAR
STARTCHAR two.dnom
ENCODING -1
SWIDTH 360 0
DWIDTH 7 0
BBX 6 8 0 0
BITMAP
38
7C
44
18
30
60
FC
FC
ENDCHAR
STARTCHAR one.dnom
ENCODING -1
SWIDTH 360 0
DWIDTH 7 0
BBX 4 8 1 0
BITMAP
30
F0
F0
20
20
20
60
60
ENDCHAR
STARTCHAR zero.dnom
ENCODING -1
SWIDTH 360 0
DWIDTH 7 0
BBX 6 8 0 0
BITMAP
38
7C
4C
C4
CC
CC
78
70
ENDCHAR
STARTCHAR nine.c2sc
ENCODING -1
SWIDTH 497 0
DWIDTH 10 0
BBX 8 11 1 0
BITMAP
3C
7E
E3
C3
C3
7F
7B
06
0E
7C
70
ENDCHAR
STARTCHAR eight.c2sc
ENCODING -1
SWIDTH 497 0
DWIDTH 10 0
BBX 9 11 0 0
BITMAP
1F00
3F80
3180
3180
3F00
3F00
6300
4100
E300
7F00
3E00
ENDCHAR
STARTCHAR seven.c2sc
ENCODING -1
SWIDTH 497 0
DWIDTH 10 0
BBX 9 11 1 0
BITMAP
7F80
FF80
0300
0200
0600
0C00
1800
1800
3000
6000
C000
ENDCHAR
STARTCHAR six.c2sc
ENCODING -1
SWIDTH 496 0
DWIDTH 10 0
BBX 8 11 1 0
BITMAP
0E
3E
70
60
DC
FE
C3
C3
C6
FE
7C
ENDCHAR
STARTCHAR five.c2sc
ENCODING -1
SWIDTH 497 0
DWIDTH 10 0
BBX 9 11 1 0
BITMAP
3F80
3F00
6000
6000
7C00
7E00
C300
0300
C700
FE00
7C00
ENDCHAR
STARTCHAR four.c2sc
ENCODING -1
SWIDTH 497 0
DWIDTH 10 0
BBX 9 11 0 0
BITMAP
0380
0700
0700
0F00
1B00
3300
6300
FF80
FF80
0600
0600
ENDCHAR
STARTCHAR three.c2sc
ENCODING -1
SWIDTH 497 0
DWIDTH 10 0
BBX 9 11 0 0
BITMAP
1F00
3F80
7180
0180
1F00
1F00
0300
0100
C300
7F00
3C00
ENDCHAR
STARTCHAR two.c2sc
ENCODING -1
SWIDTH 497 0
DWIDTH 10 0
BBX 9 11 0 0
BITMAP
1F00
3F80
7180
6180
0300
0600
0C00
3800
6000
FF00
FF00
ENDCHAR
STARTCHAR one.c2sc
ENCODING -1
SWIDTH 497 0
DWIDTH 10 0
BBX 5 11 2 0
BITMAP
08
78
F8
D8
10
10
30
30
30
30
20
ENDCHAR
STARTCHAR zero.c2sc
ENCODING -1
SWIDTH 497 0
DWIDTH 10 0
BBX 8 11 1 0
BITMAP
1E
7F
63
C3
C3
C3
C3
C3
C6
FE
78
ENDCHAR
STARTCHAR Z.c2sc
ENCODING -1
SWIDTH 506 0
DWIDTH 10 0
BBX 10 11 0 0
BITMAP
3FC0
7FC0
0180
0300
0600
0C00
1800
3000
6000
FF80
FF00
ENDCHAR
STARTCHAR Y.c2sc
ENCODING -1
SWIDTH 510 0
DWIDTH 10 0
BBX 10 11 1 0
BITMAP
C1C0
4180
6300
6600
3600
3C00
1800
1000
3000
3000
3000
ENDCHAR
STARTCHAR X.c2sc
ENCODING -1
SWIDTH 529 0
DWIDTH 11 0
BBX 12 11 -1 0
BITMAP
1830
1860
0CC0
0D80
0700
0700
0F00
0D00
1980
30C0
E0C0
ENDCHAR
STARTCHAR W.c2sc
ENCODING -1
SWIDTH 742 0
DWIDTH 15 0
BBX 14 11 1 0
BITMAP
C30C
430C
4708
4598
4590
4DB0
49B0
78A0
70E0
70C0
60C0
ENDCHAR
STARTCHAR V.c2sc
ENCODING -1
SWIDTH 538 0
DWIDTH 11 0
BBX 11 11 1 0
BITMAP
C0E0
40C0
6180
6180
6300
6200
2600
3400
3C00
3800
1800
ENDCHAR
STARTCHAR U.c2sc
ENCODING -1
SWIDTH 548 0
DWIDTH 11 0
BBX 10 11 1 0
BITMAP
60C0
60C0
4080
4180
C180
C180
C180
C180
C300
FF00
7C00
ENDCHAR
STARTCHAR T.c2sc
ENCODING -1
SWIDTH 507 0
DWIDTH 10 0
BBX 10 11 1 0
BITMAP
FFC0
FF80
0C00
0800
1800
1800
1800
1800
1000
3000
3000
ENDCHAR
STARTCHAR S.c2sc
ENCODING -1
SWIDTH 504 0
DWIDTH 10 0
BBX 10 11 0 0
BITMAP
1F00
3F80
31C0
60C0
3C00
1F00
0380
C180
E180
7F00
3E00
ENDCHAR
STARTCHAR R.c2sc
ENCODING -1
SWIDTH 524 0
DWIDTH 11 0
BBX 10 11 0 0
BITMAP
3F00
3F80
30C0
20C0
61C0
7F80
7E00
6300
6300
4100
C180
ENDCHAR
STARTCHAR Q.c2sc
ENCODING -1
SWIDTH 578 0
DWIDTH 12 0
BBX 10 13 1 -2
BITMAP
1F00
3F80
6180
C0C0
C0C0
C0C0
C080
C180
C380
7F00
3E00
0300
0100
ENDCHAR
STARTCHAR P.c2sc
ENCODING -1
SWIDTH 533 0
DWIDTH 11 0
BBX 10 11 0 0
BITMAP
3F80
3FC0
30C0
3040
20C0
7FC0
7F00
6000
6000
4000
C000
ENDCHAR
STARTCHAR O.c2sc
ENCODING -1
SWIDTH 578 0
DWIDTH 12 0
BBX 10 11 1 0
BITMAP
1F00
3F80
71C0
60C0
C0C0
C0C0
C0C0
C180
E380
7F00
3E00
ENDCHAR
STARTCHAR N.c2sc
ENCODING -1
SWIDTH 597 0
DWIDTH 12 0
BBX 12 11 0 0
BITMAP
3030
3820
3860
2C60
2460
6660
6240
63C0
61C0
41C0
C0C0
ENDCHAR
STARTCHAR M.c2sc
ENCODING -1
SWIDTH 733 0
DWIDTH 15 0
BBX 14 11 0 0
BITMAP
380C
381C
381C
2C3C
2C6C
6C48
64D8
6798
6798
4718
C210
ENDCHAR
STARTCHAR L.c2sc
ENCODING -1
SWIDTH 454 0
DWIDTH 9 0
BBX 8 11 0 0
BITMAP
30
30
30
20
60
60
60
60
40
7F
FF
ENDCHAR
STARTCHAR K.c2sc
ENCODING -1
SWIDTH 529 0
DWIDTH 11 0
BBX 11 11 0 0
BITMAP
3060
31C0
3380
3700
2C00
7C00
7600
6700
6300
6180
C1C0
ENDCHAR
STARTCHAR J.c2sc
ENCODING -1
SWIDTH 466 0
DWIDTH 9 0
BBX 9 11 0 0
BITMAP
0180
0180
0100
0300
0300
0300
0300
C300
C600
FE00
3C00
ENDCHAR
STARTCHAR I.c2sc
ENCODING -1
SWIDTH 235 0
DWIDTH 5 0
BBX 3 11 1 0
BITMAP
60
60
60
60
40
40
C0
C0
C0
C0
80
ENDCHAR
STARTCHAR H.c2sc
ENCODING -1
SWIDTH 597 0
DWIDTH 12 0
BBX 12 11 0 0
BITMAP
3030
3060
3060
2060
7FE0
7FE0
6040
60C0
60C0
40C0
C0C0
ENDCHAR
STARTCHAR G.c2sc
ENCODING -1
SWIDTH 571 0
DWIDTH 11 0
BBX 9 11 1 0
BITMAP
1F00
7F80
6180
C000
C000
C780
8F80
C180
C180
7F00
3E00
ENDCHAR
STARTCHAR F.c2sc
ENCODING -1
SWIDTH 464 0
DWIDTH 9 0
BBX 10 11 0 0
BITMAP
3FC0
3F80
3000
2000
6000
7F00
7F00
6000
4000
C000
C000
ENDCHAR
STARTCHAR dollar.c2sc
ENCODING -1
SWIDTH 504 0
DWIDTH 10 0
BBX 10 15 0 -2
BITMAP
0200
0200
1F00
3F80
30C0
6000
3C00
1F00
0380
C180
C180
7F00
3E00
1800
1800
ENDCHAR
STARTCHAR sterling.c2sc
ENCODING -1
SWIDTH 514 0
DWIDTH 10 0
BBX 9 11 0 0
BITMAP
0F00
1F80
3980
3080
3000
FE00
2000
6000
6000
FF80
FF00
ENDCHAR
STARTCHAR yen.c2sc
ENCODING -1
SWIDTH 444 0
DWIDTH 9 0
BBX 10 11 0 0
BITMAP
61C0
2180
3300
3200
1600
1C00
7F00
1800
FE00
1800
1000
ENDCHAR
STARTCHAR Gamma.c2sc
ENCODING -1
SWIDTH 451 0
DWIDTH 9 0
BBX 9 11 0 0
BITMAP
3F80
3F80
3000
2000
6000
6000
6000
6000
6000
4000
C000
ENDCHAR
STARTCHAR uni0394.c2sc
ENCODING -1
SWIDTH 538 0
DWIDTH 11 0
BBX 11 11 -1 0
BITMAP
0300
0380
0780
0580
0C80
1880
10C0
30C0
20C0
7FC0
FFE0
ENDCHAR
STARTCHAR Theta.c2sc
ENCODING -1
SWIDTH 578 0
DWIDTH 12 0
BBX 10 11 1 0
BITMAP
1F00
3F80
71C0
60C0
DFC0
DEC0
C0C0
C180
E380
7F00
3E00
ENDCHAR
STARTCHAR Lambda.c2sc
ENCODING -1
SWIDTH 538 0
DWIDTH 11 0
BBX 11 11 -1 0
BITMAP
0300
0380
0780
0580
0D80
1880
18C0
30C0
20C0
60C0
C060
ENDCHAR
STARTCHAR Xi.c2sc
ENCODING -1
SWIDTH 433 0
DWIDTH 9 0
BBX 9 11 0 0
BITMAP
3F80
3F80
0000
0000
3F00
7F00
0000
0000
0000
FF00
FE00
ENDCHAR
STARTCHAR Pi.c2sc
ENCODING -1
SWIDTH 587 0
DWIDTH 12 0
BBX 11 11 0 0
BITMAP
3FE0
3FE0
3060
3060
2060
6040
6040
60C0
60C0
40C0
C0C0
ENDCHAR
STARTCHAR Sigma.c2sc
ENCODING -1
SWIDTH 481 0
DWIDTH 10 0
BBX 10 11 0 0
BITMAP
3FC0
7FC0
3000
1800
1800
0C00
1800
3000
6000
FF80
FF00
ENDCHAR
STARTCHAR Phi.c2sc
ENCODING -1
SWIDTH 660 0
DWIDTH 13 0
BBX 11 11 1 0
BITMAP
0600
1F80
7FC0
6660
C660
C460
CC60
CCC0
7FC0
3F00
0C00
ENDCHAR
STARTCHAR Psi.c2sc
ENCODING -1
SWIDTH 622 0
DWIDTH 12 0
BBX 11 11 1 0
BITMAP
4660
C660
C460
CC60
CCC0
CCC0
EDC0
7F80
3E00
1800
1800
ENDCHAR
STARTCHAR uni03A9.c2sc
ENCODING -1
SWIDTH 604 0
DWIDTH 12 0
BBX 11 11 0 0
BITMAP
0F80
1FC0
38E0
6060
6060
6060
6040
60C0
3180
FBC0
F3C0
ENDCHAR
STARTCHAR uni0402.c2sc
ENCODING -1
SWIDTH 665 0
DWIDTH 13 0
BBX 11 11 1 0
BITMAP
FF80
FF80
1800
1800
1FC0
1FE0
3060
3060
3060
33C0
2380
ENDCHAR
STARTCHAR uni0404.c2sc
ENCODING -1
SWIDTH 548 0
DWIDTH 11 0
BBX 10 11 1 0
BITMAP
1F00
3F80
6180
C0C0
FC00
FC00
C000
C180
C300
7F00
3C00
ENDCHAR
STARTCHAR uni0409.c2sc
ENCODING -1
SWIDTH 884 0
DWIDTH 18 0
BBX 17 11 0 0
BITMAP
0FE000
0FE000
186000
186000
187E00
187F00
10C180
30C180
70C300
E0FF00
C0FE00
ENDCHAR
STARTCHAR uni040A.c2sc
ENCODING -1
SWIDTH 891 0
DWIDTH 18 0
BBX 17 11 0 0
BITMAP
302000
306000
306000
206000
3FFE00
7FFF00
60C180
60C180
60C380
40FF00
C0FE00
ENDCHAR
STARTCHAR uni040B.c2sc
ENCODING -1
SWIDTH 666 0
DWIDTH 13 0
BBX 11 11 1 0
BITMAP
FF80
FF80
1800
1800
1FC0
1FE0
3060
3060
3060
3060
2040
ENDCHAR
STARTCHAR uni040F.c2sc
ENCODING -1
SWIDTH 586 0
DWIDTH 12 0
BBX 11 14 0 -3
BITMAP
3020
3060
3060
2060
2060
6040
60C0
60C0
60C0
7FC0
FFC0
0C00
0C00
1800
ENDCHAR
STARTCHAR uni0411.c2sc
ENCODING -1
SWIDTH 532 0
DWIDTH 11 0
BBX 10 11 0 0
BITMAP
3FC0
3FC0
3000
3000
3F00
7F80
61C0
60C0
6180
7F80
FE00
ENDCHAR
STARTCHAR uni0414.c2sc
ENCODING -1
SWIDTH 628 0
DWIDTH 13 0
BBX 13 14 -1 -3
BITMAP
07F8
07F0
0610
0430
0C30
0C30
0C20
1820
3060
7FF0
7FF0
C030
C030
C030
ENDCHAR
STARTCHAR uni0416.c2sc
ENCODING -1
SWIDTH 737 0
DWIDTH 15 0
BBX 16 11 -1 0
BITMAP
18C7
0CC6
0CCC
06D8
07F0
07F0
0DB0
1998
3998
718C
E10C
ENDCHAR
STARTCHAR uni0417.c2sc
ENCODING -1
SWIDTH 519 0
DWIDTH 10 0
BBX 9 11 0 0
BITMAP
1F00
3F80
6180
0180
1F00
1F00
0100
0180
C300
FF00
3E00
ENDCHAR
STARTCHAR uni0418.c2sc
ENCODING -1
SWIDTH 601 0
DWIDTH 12 0
BBX 12 11 0 0
BITMAP
3070
3060
30E0
21E0
6360
6660
6C40
78C0
70C0
60C0
C0C0
ENDCHAR
STARTCHAR uni041A.c2sc
ENCODING -1
SWIDTH 526 0
DWIDTH 11 0
BBX 10 11 1 0
BITMAP
61C0
6300
6600
6C00
7800
7800
DC00
CC00
C600
C600
8300
ENDCHAR
STARTCHAR uni041B.c2sc
ENCODING -1
SWIDTH 581 0
DWIDTH 12 0
BBX 11 11 0 0
BITMAP
0FE0
0FE0
1860
1860
1860
1840
10C0
30C0
70C0
E0C0
C080
ENDCHAR
STARTCHAR uni0423.c2sc
ENCODING -1
SWIDTH 504 0
DWIDTH 10 0
BBX 10 11 1 0
BITMAP
C1C0
6180
6300
6300
2600
3400
3C00
3800
3000
F000
E000
ENDCHAR
STARTCHAR uni0426.c2sc
ENCODING -1
SWIDTH 629 0
DWIDTH 13 0
BBX 11 14 1 -3
BITMAP
6060
6040
60C0
60C0
40C0
40C0
C080
C180
C180
FFC0
FFC0
00C0
00C0
00C0
ENDCHAR
STARTCHAR uni0427.c2sc
ENCODING -1
SWIDTH 540 0
DWIDTH 11 0
BBX 10 11 1 0
BITMAP
60C0
C180
C180
C180
C180
7F80
3F00
0300
0300
0300
0300
ENDCHAR
STARTCHAR uni0428.c2sc
ENCODING -1
SWIDTH 770 0
DWIDTH 15 0
BBX 15 11 0 0
BITMAP
3186
3184
2184
618C
610C
630C
630C
4308
4318
FFF8
FFF8
ENDCHAR
STARTCHAR uni0429.c2sc
ENCODING -1
SWIDTH 813 0
DWIDTH 16 0
BBX 15 14 0 -3
BITMAP
3186
3186
2184
218C
618C
610C
630C
4308
4318
FFFE
FFFC
0004
000C
000C
ENDCHAR
STARTCHAR uni042A.c2sc
ENCODING -1
SWIDTH 625 0
DWIDTH 13 0
BBX 11 11 1 0
BITMAP
F800
F800
1800
1800
1F80
1FC0
30E0
3060
30C0
3FC0
7F00
ENDCHAR
STARTCHAR uni042B.c2sc
ENCODING -1
SWIDTH 725 0
DWIDTH 15 0
BBX 13 11 1 0
BITMAP
6018
6018
6018
6018
7E10
7F30
C3B0
C1B0
C330
FF30
FC60
ENDCHAR
STARTCHAR uni042C.c2sc
ENCODING -1
SWIDTH 526 0
DWIDTH 11 0
BBX 9 11 1 0
BITMAP
6000
6000
6000
6000
7E00
7F00
C380
C180
C300
FF00
FC00
ENDCHAR
STARTCHAR uni042D.c2sc
ENCODING -1
SWIDTH 548 0
DWIDTH 11 0
BBX 10 11 0 0
BITMAP
0F00
3F80
30C0
60C0
0FC0
0FC0
00C0
C180
6380
7F00
3E00
ENDCHAR
STARTCHAR uni042E.c2sc
ENCODING -1
SWIDTH 788 0
DWIDTH 16 0
BBX 15 11 0 0
BITMAP
30F8
31FC
338E
2706
3E06
7E06
6606
660C
671C
43F8
C1F0
ENDCHAR
STARTCHAR uni042F.c2sc
ENCODING -1
SWIDTH 553 0
DWIDTH 11 0
BBX 11 11 0 0
BITMAP
0FE0
3FC0
30C0
20C0
30C0
3FC0
1F80
3080
3180
6180
C180
ENDCHAR
STARTCHAR uni0492.c2sc
ENCODING -1
SWIDTH 498 0
DWIDTH 10 0
BBX 10 11 0 0
BITMAP
1FC0
1FC0
1800
3000
FC00
FC00
3000
3000
2000
6000
6000
ENDCHAR
STARTCHAR uni0496.c2sc
ENCODING -1
SWIDTH 766 0
DWIDTH 15 0
BBX 16 14 -1 -3
BITMAP
38C7
18CE
0C9C
0DB8
07F0
0FF0
1DB0
1998
3118
711E
E30E
0006
0004
0004
ENDCHAR
STARTCHAR uni049A.c2sc
ENCODING -1
SWIDTH 547 0
DWIDTH 11 0
BBX 11 14 0 -3
BITMAP
30E0
3180
3300
2600
7C00
7C00
6C00
6600
6700
43C0
C180
0080
0080
0180
ENDCHAR
STARTCHAR uni049C.c2sc
ENCODING -1
SWIDTH 615 0
DWIDTH 12 0
BBX 12 11 0 0
BITMAP
3030
3060
2DC0
2B80
7F00
7E00
7B00
7B80
4180
C0C0
C0E0
ENDCHAR
STARTCHAR uni04A0.c2sc
ENCODING -1
SWIDTH 637 0
DWIDTH 13 0
BBX 12 11 1 0
BITMAP
F870
F8E0
1980
1B00
1E00
1E00
3300
3300
3180
3180
20C0
ENDCHAR
STARTCHAR uni04A8.c2sc
ENCODING -1
SWIDTH 703 0
DWIDTH 14 0
BBX 12 11 1 0
BITMAP
19E0
3BF0
6630
C630
C430
C430
C420
C660
E3C0
7FE0
3E60
ENDCHAR
STARTCHAR uni04B0.c2sc
ENCODING -1
SWIDTH 534 0
DWIDTH 11 0
BBX 10 11 1 0
BITMAP
C1C0
4180
6300
6600
3600
3C00
7E00
7E00
3000
3000
3000
ENDCHAR
STARTCHAR uni04B2.c2sc
ENCODING -1
SWIDTH 569 0
DWIDTH 11 0
BBX 12 14 -1 -3
BITMAP
3070
18C0
08C0
0D80
0700
0600
0F00
1B00
3180
71E0
60E0
8040
0040
00C0
ENDCHAR
STARTCHAR uni04B4.c2sc
ENCODING -1
SWIDTH 778 0
DWIDTH 16 0
BBX 13 14 1 -3
BITMAP
FF98
FF98
0810
1830
1830
1830
1030
1020
3020
3FF8
3FF8
0010
0010
0030
ENDCHAR
STARTCHAR uni04B8.c2sc
ENCODING -1
SWIDTH 540 0
DWIDTH 11 0
BBX 10 11 1 0
BITMAP
60C0
C180
C180
C980
D980
7F80
3F00
1B00
1300
0300
0300
ENDCHAR
STARTCHAR uni04BA.c2sc
ENCODING -1
SWIDTH 540 0
DWIDTH 11 0
BBX 10 11 0 0
BITMAP
3000
3000
3000
2000
3F00
7F80
60C0
60C0
60C0
4080
C180
ENDCHAR
STARTCHAR uni04BC.c2sc
ENCODING -1
SWIDTH 703 0
DWIDTH 14 0
BBX 12 11 1 0
BITMAP
07C0
0FF0
9C30
9010
FFF0
7FF0
3000
3000
1840
1FC0
0780
ENDCHAR
STARTCHAR uni04D8.c2sc
ENCODING -1
SWIDTH 585 0
DWIDTH 12 0
BBX 10 11 1 0
BITMAP
1F00
3F80
21C0
00C0
00C0
FFC0
FFC0
C080
C180
7F00
3E00
ENDCHAR
STARTCHAR uni04E0.c2sc
ENCODING -1
SWIDTH 519 0
DWIDTH 10 0
BBX 10 11 0 0
BITMAP
3FC0
3F80
0300
0600
0C00
0F00
1180
0180
C300
FF00
3C00
ENDCHAR
STARTCHAR uni04E8.c2sc
ENCODING -1
SWIDTH 578 0
DWIDTH 12 0
BBX 10 11 1 0
BITMAP
1F00
3F80
60C0
40C0
FFC0
FFC0
C0C0
C180
E380
7F00
3E00
ENDCHAR
STARTCHAR lira.c2sc
ENCODING -1
SWIDTH 514 0
DWIDTH 10 0
BBX 9 11 0 0
BITMAP
0F00
1F80
3980
3080
3000
FF00
2000
FE00
6000
FF80
FF00
ENDCHAR
STARTCHAR Euro.c2sc
ENCODING -1
SWIDTH 476 0
DWIDTH 10 0
BBX 9 11 1 0
BITMAP
0F80
1F80
3800
3000
FE00
6000
FE00
6000
6000
3E00
1E00
ENDCHAR
STARTCHAR uni2116.c2sc
ENCODING -1
SWIDTH 991 0
DWIDTH 20 0
BBX 19 11 0 0
BITMAP
3033C0
382660
386420
2C6460
246C60
666440
624380
63C000
61CFC0
41C000
C0C000
ENDCHAR
STARTCHAR uni20BD.c2sc
ENCODING -1
SWIDTH 570 0
DWIDTH 11 0
BBX 11 11 0 0
BITMAP
1F80
1FE0
1860
3060
3060
FFC0
FF80
3000
FC00
FC00
6000
ENDCHAR
STARTCHAR three.dnom
ENCODING -1
SWIDTH 360 0
DWIDTH 7 0
BBX 6 8 0 0
BITMAP
38
7C
44
38
38
CC
FC
78
ENDCHAR
STARTCHAR four.dnom
ENCODING -1
SWIDTH 360 0
DWIDTH 7 0
BBX 6 8 0 0
BITMAP
0C
1C
3C
68
48
FC
FC
18
ENDCHAR
STARTCHAR five.dnom
ENCODING -1
SWIDTH 360 0
DWIDTH 7 0
BBX 6 8 0 0
BITMAP
3C
7C
60
78
3C
0C
FC
78
ENDCHAR
STARTCHAR six.dnom
ENCODING -1
SWIDTH 360 0
DWIDTH 7 0
BBX 6 8 0 0
BITMAP
1C
38
60
78
FC
CC
7C
78
ENDCHAR
STARTCHAR seven.dnom
ENCODING -1
SWIDTH 360 0
DWIDTH 7 0
BBX 7 8 0 0
BITMAP
7E
7E
04
08
18
30
20
C0
ENDCHAR
STARTCHAR eight.dnom
ENCODING -1
SWIDTH 360 0
DWIDTH 7 0
BBX 6 8 0 0
BITMAP
38
7C
44
78
78
CC
FC
78
ENDCHAR
STARTCHAR nine.dnom
ENCODING -1
SWIDTH 360 0
DWIDTH 7 0
BBX 5 8 1 0
BITMAP
70
F8
88
F8
F8
18
F0
E0
ENDCHAR
STARTCHAR glyph550
ENCODING -1
SWIDTH 439 0
DWIDTH 9 0
BBX 7 2 1 6
BITMAP
7E
FE
ENDCHAR
STARTCHAR glyph551
ENCODING -1
SWIDTH 333 0
DWIDTH 7 0
BBX 5 6 3 11
BITMAP
38
20
40
C0
A0
C0
ENDCHAR
STARTCHAR E.c2sc
ENCODING -1
SWIDTH 477 0
DWIDTH 10 0
BBX 10 11 0 0
BITMAP
3FC0
3FC0
3000
3000
3F00
7F00
6000
6000
6000
7F00
FF00
ENDCHAR
STARTCHAR g.ss01
ENCODING -1
SWIDTH 517 0
DWIDTH 10 0
BBX 12 15 -1 -4
BITMAP
0FF0
1FC0
38C0
30C0
30C0
1F80
1F00
3000
3000
3F00
3F80
C0C0
C180
FF80
7E00
ENDCHAR
STARTCHAR alpha.ss02
ENCODING -1
SWIDTH 582 0
DWIDTH 12 0
BBX 11 11 1 0
BITMAP
1E60
3FC0
63C0
6180
C180
C180
C180
C380
C780
7D80
3980
ENDCHAR
STARTCHAR R.ss03
ENCODING -1
SWIDTH 646 0
DWIDTH 13 0
BBX 11 14 1 0
BITMAP
3F80
3FE0
3060
2060
6060
60C0
7F80
7F80
61C0
C0C0
C0C0
C0C0
C0C0
C0C0
ENDCHAR
STARTCHAR K.ss04
ENCODING -1
SWIDTH 628 0
DWIDTH 13 0
BBX 13 14 1 0
BITMAP
3038
3060
30C0
3180
2380
6700
7E00
7E00
6600
6300
4300
C180
C1C0
C0E0
ENDCHAR
STARTCHAR k.ss04
ENCODING -1
SWIDTH 499 0
DWIDTH 10 0
BBX 10 15 0 0
BITMAP
1800
1000
1000
3000
30C0
3180
3300
2600
3C00
7C00
6600
6600
6300
4300
C180
ENDCHAR
STARTCHAR K.ss05
ENCODING -1
SWIDTH 640 0
DWIDTH 13 0
BBX 12 14 1 0
BITMAP
3070
30E0
31C0
2300
6600
6C00
7800
7800
6C00
4E00
C600
C300
C180
C0C0
ENDCHAR
STARTCHAR k.ss05
ENCODING -1
SWIDTH 497 0
DWIDTH 10 0
BBX 10 15 0 0
BITMAP
1800
1800
1000
3000
31C0
3380
3700
2E00
3C00
7800
7800
6C00
6600
4600
C380
ENDCHAR
STARTCHAR D.c2sc
ENCODING -1
SWIDTH 550 0
DWIDTH 11 0
BBX 10 11 0 0
BITMAP
3F00
3F80
31C0
20C0
60C0
60C0
60C0
6180
4380
7F00
FC00
ENDCHAR
STARTCHAR C.c2sc
ENCODING -1
SWIDTH 548 0
DWIDTH 11 0
BBX 10 11 1 0
BITMAP
1F00
3F80
6180
C0C0
C000
C000
C000
C180
C300
7F00
3C00
ENDCHAR
STARTCHAR B.c2sc
ENCODING -1
SWIDTH 527 0
DWIDTH 11 0
BBX 9 11 1 0
BITMAP
7F00
7F80
6180
6180
7F00
7F00
C300
C100
C300
FF00
FC00
ENDCHAR
STARTCHAR A.c2sc
ENCODING -1
SWIDTH 552 0
DWIDTH 11 0
BBX 11 11 -1 0
BITMAP
0300
0380
0780
0580
0C80
1880
18C0
3FC0
3FC0
6040
C060
ENDCHAR
STARTCHAR glyph564
ENCODING -1
SWIDTH 246 0
DWIDTH 5 0
BBX 3 4 2 11
BITMAP
20
60
60
C0
ENDCHAR
STARTCHAR glyph565
ENCODING -1
SWIDTH 446 0
DWIDTH 9 0
BBX 5 4 3 12
BITMAP
60
20
88
F0
ENDCHAR
STARTCHAR glyph566
ENCODING -1
SWIDTH 0 0
DWIDTH 0 0
BBX 6 5 -7 12
BITMAP
1C
10
20
E8
98
ENDCHAR
STARTCHAR glyph567
ENCODING -1
SWIDTH 481 0
DWIDTH 10 0
BBX 10 5 2 12
BITMAP
00C0
0180
1900
7C00
E600
ENDCHAR
STARTCHAR glyph568
ENCODING -1
SWIDTH 483 0
DWIDTH 10 0
BBX 9 5 0 12
BITMAP
C000
6000
2600
1B00
3180
ENDCHAR
STARTCHAR glyph569
ENCODING -1
SWIDTH 496 0
DWIDTH 10 0
BBX 9 6 2 12
BITMAP
0180
0080
0100
3A00
6C00
C600
ENDCHAR
STARTCHAR glyph570
ENCODING -1
SWIDTH 484 0
DWIDTH 10 0
BBX 7 5 2 12
BITMAP
32
2C
00
38
E6
ENDCHAR
STARTCHAR uni0490.c2sc
ENCODING -1
SWIDTH 451 0
DWIDTH 9 0
BBX 10 14 0 0
BITMAP
00C0
00C0
00C0
3F80
3F80
3000
2000
6000
6000
6000
6000
6000
4000
C000
ENDCHAR
STARTCHAR glyph572
ENCODING -1
SWIDTH 443 0
DWIDTH 9 0
BBX 5 5 3 12
BITMAP
18
10
60
88
F0
ENDCHAR
STARTCHAR glyph573
ENCODING -1
SWIDTH 443 0
DWIDTH 9 0
BBX 5 5 3 12
BITMAP
30
08
30
88
F0
ENDCHAR
STARTCHAR zero.numr
ENCODING -1
SWIDTH 360 0
DWIDTH 7 0
BBX 6 8 1 6
BITMAP
38
7C
44
44
CC
CC
78
78
ENDCHAR
STARTCHAR four.numr
ENCODING -1
SWIDTH 360 0
DWIDTH 7 0
BBX 6 8 1 6
BITMAP
0C
1C
3C
28
48
FC
FC
18
ENDCHAR
STARTCHAR five.numr
ENCODING -1
SWIDTH 360 0
DWIDTH 7 0
BBX 7 8 1 6
BITMAP
3E
3C
60
78
3C
04
FC
78
ENDCHAR
STARTCHAR six.numr
ENCODING -1
SWIDTH 360 0
DWIDTH 7 0
BBX 5 8 2 6
BITMAP
38
78
C0
F0
F8
88
F8
F0
ENDCHAR
STARTCHAR seven.numr
ENCODING -1
SWIDTH 360 0
DWIDTH 7 0
BBX 6 8 2 6
BITMAP
FC
FC
08
10
30
60
40
C0
ENDCHAR
STARTCHAR eight.numr
ENCODING -1
SWIDTH 360 0
DWIDTH 7 0
BBX 6 8 1 6
BITMAP
38
7C
64
7C
78
CC
FC
78
ENDCHAR
STARTCHAR nine.numr
ENCODING -1
SWIDTH 360 0
DWIDTH 7 0
BBX 5 8 2 6
BITMAP
70
F8
88
F8
F8
18
F0
E0
ENDCHAR
STARTCHAR C.ss06
ENCODING -1
SWIDTH 672 0
DWIDTH 13 0
BBX 12 14 1 0
BITMAP
0780
1FE0
3860
7030
6030
4000
C000
C000
C000
C060
C060
61C0
3F80
1F00
ENDCHAR
STARTCHAR G.ss06
ENCODING -1
SWIDTH 693 0
DWIDTH 14 0
BBX 12 14 1 0
BITMAP
07C0
1FE0
3870
3030
6000
6000
4000
C1F0
C3E0
4060
6060
7060
3FC0
1F80
ENDCHAR
STARTCHAR D.ss06
ENCODING -1
SWIDTH 680 0
DWIDTH 14 0
BBX 12 14 1 0
BITMAP
3F80
3FC0
30E0
3060
2030
6030
6030
6030
6060
4060
C0C0
C3C0
FF80
FE00
ENDCHAR
STARTCHAR O.ss06
ENCODING -1
SWIDTH 717 0
DWIDTH 14 0
BBX 12 14 1 0
BITMAP
0780
1FE0
3860
3030
6030
6030
C030
C030
C030
C060
6060
61C0
3F80
1F00
ENDCHAR
STARTCHAR Q.ss06
ENCODING -1
SWIDTH 718 0
DWIDTH 14 0
BBX 12 16 1 -2
BITMAP
0780
1FE0
3860
7030
6030
6030
C030
C030
C030
C060
6060
61C0
3F80
1F00
0180
00C0
ENDCHAR
STARTCHAR one.oldstyle.pnum
ENCODING -1
SWIDTH 469 0
DWIDTH 9 0
BBX 6 11 2 0
BITMAP
0C
78
F8
98
18
18
18
10
30
30
30
ENDCHAR
STARTCHAR two.oldstyle.pnum
ENCODING -1
SWIDTH 551 0
DWIDTH 11 0
BBX 9 11 1 0
BITMAP
1E00
3F80
6180
4180
0300
0600
1C00
3000
6000
FF00
FF00
ENDCHAR
STARTCHAR three.oldstyle.pnum
ENCODING -1
SWIDTH 531 0
DWIDTH 11 0
BBX 11 14 -1 -3
BITMAP
1FE0
1FE0
00C0
0180
0200
0F00
0F80
01C0
00C0
00C0
0180
8380
FF00
7C00
ENDCHAR
STARTCHAR four.oldstyle.pnum
ENCODING -1
SWIDTH 587 0
DWIDTH 12 0
BBX 10 14 0 -3
BITMAP
00C0
01C0
03C0
06C0
0C80
1880
3180
6180
4180
FFC0
FFC0
0300
0300
0300
ENDCHAR
STARTCHAR five.oldstyle.pnum
ENCODING -1
SWIDTH 540 0
DWIDTH 11 0
BBX 11 14 0 -3
BITMAP
1FE0
1FE0
1000
3000
3000
3F00
7F80
6180
0180
0180
0180
0300
FF00
7C00
ENDCHAR
STARTCHAR seven.oldstyle.pnum
ENCODING -1
SWIDTH 511 0
DWIDTH 10 0
BBX 10 14 0 -3
BITMAP
3FC0
7FC0
00C0
0180
0100
0300
0600
0400
0C00
1800
1800
3000
6000
E000
ENDCHAR
STARTCHAR glyph592
ENCODING -1
SWIDTH 446 0
DWIDTH 9 0
BBX 6 5 3 12
BITMAP
64
98
00
88
F0
ENDCHAR
STARTCHAR glyph593
ENCODING -1
SWIDTH 194 0
DWIDTH 4 0
BBX 3 5 -1 -3
BITMAP
60
60
60
40
C0
ENDCHAR
STARTCHAR OE.c2sc
ENCODING -1
SWIDTH 810 0
DWIDTH 16 0
BBX 16 11 1 0
BITMAP
1FFF
3FFE
7080
C180
C1FC
C1FC
C180
C100
C300
7FFC
3FFC
ENDCHAR
STARTCHAR nine.oldstyle.pnum
ENCODING -1
SWIDTH 577 0
DWIDTH 12 0
BBX 10 14 1 -3
BITMAP
1F00
3F80
7180
60C0
40C0
4080
6180
7F80
3D80
0180
0300
8700
FE00
F800
ENDCHAR
STARTCHAR glyph596
ENCODING -1
SWIDTH 245 0
DWIDTH 5 0
BBX 5 5 -2 -4
BITMAP
18
10
30
F0
E0
ENDCHAR
STARTCHAR three.oldstyle
ENCODING -1
SWIDTH 549 0
DWIDTH 11 0
BBX 12 14 -1 -3
BITMAP
1FF0
1FE0
00C0
0180
0300
0700
0780
00C0
00C0
00C0
00C0
4380
FF00
3E00
ENDCHAR
STARTCHAR five.oldstyle
ENCODING -1
SWIDTH 549 0
DWIDTH 11 0
BBX 11 14 0 -3
BITMAP
1FE0
1FE0
1000
3000
3000
2F00
7F80
6180
0180
0180
0180
0380
FF00
7C00
ENDCHAR
STARTCHAR four.oldstyle
ENCODING -1
SWIDTH 549 0
DWIDTH 11 0
BBX 11 14 -1 -3
BITMAP
0060
00E0
01E0
0340
0640
0CC0
18C0
30C0
6080
FFE0
FFE0
0180
0180
0180
ENDCHAR
STARTCHAR two.oldstyle
ENCODING -1
SWIDTH 549 0
DWIDTH 11 0
BBX 10 11 0 0
BITMAP
0F00
1F80
30C0
20C0
4180
0300
0E00
1800
3000
7F80
FF80
ENDCHAR
STARTCHAR seven.oldstyle
ENCODING -1
SWIDTH 549 0
DWIDTH 11 0
BBX 10 14 1 -3
BITMAP
7FC0
7FC0
0180
0180
0300
0600
0600
0C00
1800
1800
3000
6000
6000
C000
ENDCHAR
STARTCHAR zero.oldstyle
ENCODING -1
SWIDTH 549 0
DWIDTH 11 0
BBX 10 11 0 0
BITMAP
0F00
3FC0
30C0
6040
6040
4040
C0C0
40C0
6180
7F80
1E00
ENDCHAR
STARTCHAR six.oldstyle
ENCODING -1
SWIDTH 549 0
DWIDTH 11 0
BBX 9 14 1 0
BITMAP
0700
1F00
3800
3000
6000
7E00
7F00
E380
C180
C180
C180
E300
7E00
3C00
ENDCHAR
STARTCHAR nine.oldstyle
ENCODING -1
SWIDTH 549 0
DWIDTH 11 0
BBX 9 14 1 -3
BITMAP
1E00
3F80
6180
4180
C080
C180
E380
7F80
3D80
0300
0700
8E00
FC00
F800
ENDCHAR
STARTCHAR eight.oldstyle
ENCODING -1
SWIDTH 549 0
DWIDTH 11 0
BBX 9 14 1 0
BITMAP
0F00
3F80
3180
6080
6180
2180
3F00
3E00
E300
C180
C180
C300
FF00
7C00
ENDCHAR
STARTCHAR one.oldstyle
ENCODING -1
SWIDTH 549 0
DWIDTH 11 0
BBX 5 11 3 0
BITMAP
08
78
F8
98
18
18
10
30
30
30
30
ENDCHAR
STARTCHAR glyph607
ENCODING -1
SWIDTH 250 0
DWIDTH 5 0
BBX 6 15 -2 -4
BITMAP
0C
0C
0C
0C
08
18
18
18
18
18
10
30
30
F0
E0
ENDCHAR
STARTCHAR glyph608
ENCODING -1
SWIDTH 249 0
DWIDTH 5 0
BBX 6 15 -2 -4
BITMAP
0C
0C
0C
0C
08
18
18
18
18
18
10
30
30
F0
E0
ENDCHAR
STARTCHAR glyph609
ENCODING -1
SWIDTH 245 0
DWIDTH 5 0
BBX 4 11 0 0
BITMAP
30
30
30
20
20
60
60
60
60
40
C0
ENDCHAR
STARTCHAR glyph610
ENCODING -1
SWIDTH 245 0
DWIDTH 5 0
BBX 5 15 -1 -4
BITMAP
18
18
18
10
10
30
30
30
30
20
20
C0
C0
80
E0
ENDCHAR
STARTCHAR glyph611
ENCODING -1
SWIDTH 245 0
DWIDTH 5 0
BBX 4 11 0 0
BITMAP
30
30
30
20
20
60
60
60
60
40
C0
ENDCHAR
STARTCHAR germandbls.sc
ENCODING -1
SWIDTH 527 0
DWIDTH 11 0
BBX 10 11 0 0
BITMAP
0F00
3F80
31C0
3300
6600
6700
6980
6180
7180
5F80
DE00
ENDCHAR
STARTCHAR zero.oldstyle.pnum
ENCODING -1
SWIDTH 611 0
DWIDTH 12 0
BBX 10 11 1 0
BITMAP
1F00
3F80
71C0
60C0
C0C0
C0C0
C0C0
C180
E380
7F00
3E00
ENDCHAR
STARTCHAR seven.pnum
ENCODING -1
SWIDTH 504 0
DWIDTH 10 0
BBX 10 14 1 0
BITMAP
7FC0
7FC0
0180
0100
0300
0600
0400
0C00
1800
1800
3000
2000
6000
C000
ENDCHAR
STARTCHAR b.ss06
ENCODING -1
SWIDTH 549 0
DWIDTH 11 0
BBX 10 15 0 0
BITMAP
1800
1000
3000
3000
3700
3F80
30C0
20C0
60C0
60C0
60C0
60C0
6180
7F00
DE00
ENDCHAR
STARTCHAR c.ss06
ENCODING -1
SWIDTH 513 0
DWIDTH 10 0
BBX 9 11 1 0
BITMAP
1E00
3F00
6180
C180
C000
C000
8000
C300
C300
7E00
3C00
ENDCHAR
STARTCHAR d.ss06
ENCODING -1
SWIDTH 559 0
DWIDTH 11 0
BBX 10 15 1 0
BITMAP
00C0
00C0
00C0
00C0
1E80
7F80
6180
C180
C180
8180
8100
C300
C700
FF00
7B00
ENDCHAR
STARTCHAR g.ss06
ENCODING -1
SWIDTH 556 0
DWIDTH 11 0
BBX 10 15 0 -4
BITMAP
0F40
3FC0
30C0
60C0
60C0
40C0
4080
6180
6380
7F80
3D80
0100
4300
FE00
3C00
ENDCHAR
STARTCHAR o.ss06
ENCODING -1
SWIDTH 564 0
DWIDTH 11 0
BBX 9 11 1 0
BITMAP
1E00
7F00
6380
C180
C180
8180
8180
8180
C700
FE00
3C00
ENDCHAR
STARTCHAR p.ss06
ENCODING -1
SWIDTH 556 0
DWIDTH 11 0
BBX 10 15 0 -4
BITMAP
3700
3F80
31C0
60C0
60C0
60C0
60C0
61C0
6380
FF00
DE00
C000
C000
C000
8000
ENDCHAR
STARTCHAR q.ss06
ENCODING -1
SWIDTH 563 0
DWIDTH 11 0
BBX 9 15 1 -4
BITMAP
1E80
7F80
6180
C180
C180
8100
8300
8300
C700
FF00
7B00
0200
0200
0600
0600
ENDCHAR
STARTCHAR e.ss07
ENCODING -1
SWIDTH 518 0
DWIDTH 10 0
BBX 9 11 1 0
BITMAP
1E00
7F00
6300
C180
FF80
FF00
8000
C000
C200
7E00
3C00
ENDCHAR
STARTCHAR g.ss07
ENCODING -1
SWIDTH 549 0
DWIDTH 11 0
BBX 9 15 1 -4
BITMAP
1E80
7F80
6380
C180
C180
C100
C300
C300
C700
FF00
7B00
0600
8600
FC00
7800
ENDCHAR
STARTCHAR one.pnum
ENCODING -1
SWIDTH 425 0
DWIDTH 9 0
BBX 6 14 2 0
BITMAP
0C
78
F8
98
18
18
10
10
30
30
30
30
20
60
ENDCHAR
STARTCHAR ampersand.c2sc
ENCODING -1
SWIDTH 591 0
DWIDTH 12 0
BBX 9 11 1 0
BITMAP
1C00
3E00
6200
2600
3C00
3880
EC80
C580
C700
FF00
7D80
ENDCHAR
STARTCHAR Lslash.c2sc
ENCODING -1
SWIDTH 454 0
DWIDTH 9 0
BBX 8 11 0 0
BITMAP
30
30
30
20
6C
7C
F0
E0
40
7F
FF
ENDCHAR
STARTCHAR AE.c2sc
ENCODING -1
SWIDTH 759 0
DWIDTH 15 0
BBX 16 11 -1 0
BITMAP
00FF
01FF
0340
02C0
06FC
0CFC
18C0
1FC0
3F80
60FE
C1FC
ENDCHAR
STARTCHAR Thorn.c2sc
ENCODING -1
SWIDTH 486 0
DWIDTH 10 0
BBX 9 11 0 0
BITMAP
3000
3000
3F00
3F80
2180
6180
6180
7F00
7E00
6000
C000
ENDCHAR
STARTCHAR Oslash.c2sc
ENCODING -1
SWIDTH 578 0
DWIDTH 12 0
BBX 12 11 0 0
BITMAP
0FB0
1FC0
38E0
31E0
6360
6660
6C60
68C0
71C0
3F80
DF00
ENDCHAR
STARTCHAR Hbar.c2sc
ENCODING -1
SWIDTH 597 0
DWIDTH 12 0
BBX 12 11 0 0
BITMAP
3030
3020
7FF0
7FF0
2060
7FE0
7FC0
6040
60C0
40C0
C0C0
ENDCHAR
STARTCHAR Eng.c2sc
ENCODING -1
SWIDTH 597 0
DWIDTH 12 0
BBX 12 15 0 -4
BITMAP
3030
3860
3860
2C60
6460
6660
6240
63C0
61C0
41C0
C0C0
0080
0180
0780
0700
ENDCHAR
STARTCHAR Dcroat.c2sc
ENCODING -1
SWIDTH 550 0
DWIDTH 11 0
BBX 11 11 -1 0
BITMAP
1F80
1FC0
18E0
1060
FE60
FC60
3060
30C0
21C0
3F80
7E00
ENDCHAR
STARTCHAR Eth.c2sc
ENCODING -1
SWIDTH 550 0
DWIDTH 11 0
BBX 11 11 -1 0
BITMAP
1F80
1FC0
18E0
1060
FE60
FC60
3060
30C0
21C0
3F80
7E00
ENDCHAR
STARTCHAR Tbar.c2sc
ENCODING -1
SWIDTH 507 0
DWIDTH 10 0
BBX 10 11 1 0
BITMAP
FFC0
FF80
0C00
7E00
7E00
1800
1800
1800
1000
3000
3000
ENDCHAR
STARTCHAR Agrave.c2sc
ENCODING -1
SWIDTH 552 0
DWIDTH 11 0
BBX 11 15 -1 0
BITMAP
0600
0300
0180
0000
0300
0380
0780
0580
0C80
1880
18C0
3FC0
3FC0
6040
C060
ENDCHAR
STARTCHAR Aacute.c2sc
ENCODING -1
SWIDTH 552 0
DWIDTH 11 0
BBX 11 15 -1 0
BITMAP
00E0
00C0
0180
0000
0300
0380
0780
0580
0C80
1880
18C0
3FC0
3FC0
6040
C060
ENDCHAR
STARTCHAR Acircumflex.c2sc
ENCODING -1
SWIDTH 552 0
DWIDTH 11 0
BBX 11 15 -1 0
BITMAP
0180
07C0
0660
0000
0300
0380
0780
0580
0C80
1880
18C0
3FC0
3FC0
6040
C060
ENDCHAR
STARTCHAR Atilde.c2sc
ENCODING -1
SWIDTH 552 0
DWIDTH 11 0
BBX 11 14 -1 0
BITMAP
0720
0CE0
0000
0300
0380
0780
0580
0C80
1880
18C0
3FC0
3FC0
6040
C060
ENDCHAR
STARTCHAR Adieresis.c2sc
ENCODING -1
SWIDTH 552 0
DWIDTH 11 0
BBX 11 14 -1 0
BITMAP
0660
0660
0000
0300
0380
0780
0580
0C80
1880
18C0
3FC0
3FC0
6040
C060
ENDCHAR
STARTCHAR Aring.c2sc
ENCODING -1
SWIDTH 552 0
DWIDTH 11 0
BBX 11 16 -1 0
BITMAP
0180
0240
0240
0180
0000
0300
0380
0780
0580
0C80
1880
18C0
3FC0
3FC0
6040
C060
ENDCHAR
STARTCHAR Aringacute.c2sc
ENCODING -1
SWIDTH 552 0
DWIDTH 11 0
BBX 11 17 -1 0
BITMAP
0060
0080
0000
0180
0280
0380
0300
0380
0780
0580
0C80
1880
18C0
3FC0
3FC0
6040
C060
ENDCHAR
STARTCHAR Ccedilla.c2sc
ENCODING -1
SWIDTH 548 0
DWIDTH 11 0
BBX 10 15 1 -4
BITMAP
1F00
3F80
6180
C0C0
C000
C000
C000
C180
C300
7F00
3C00
1000
2800
0800
3000
ENDCHAR
STARTCHAR Egrave.c2sc
ENCODING -1
SWIDTH 477 0
DWIDTH 10 0
BBX 10 15 0 0
BITMAP
0C00
0600
0600
0000
3FC0
3FC0
3000
3000
3F00
7F00
6000
6000
6000
7F00
FF00
ENDCHAR
STARTCHAR Eacute.c2sc
ENCODING -1
SWIDTH 477 0
DWIDTH 10 0
BBX 10 15 0 0
BITMAP
01C0
0300
0600
0000
3FC0
3FC0
3000
3000
3F00
7F00
6000
6000
6000
7F00
FF00
ENDCHAR
STARTCHAR Ecircumflex.c2sc
ENCODING -1
SWIDTH 477 0
DWIDTH 10 0
BBX 10 15 0 0
BITMAP
0700
0D80
1980
0000
3FC0
3FC0
3000
3000
3F00
7F00
6000
6000
6000
7F00
FF00
ENDCHAR
STARTCHAR Edieresis.c2sc
ENCODING -1
SWIDTH 477 0
DWIDTH 10 0
BBX 10 14 0 0
BITMAP
0880
19C0
0000
3FC0
3FC0
3000
3000
3F00
7F00
6000
6000
6000
7F00
FF00
ENDCHAR
STARTCHAR Igrave.c2sc
ENCODING -1
SWIDTH 235 0
DWIDTH 5 0
BBX 3 15 1 0
BITMAP
C0
60
20
00
60
60
60
60
40
40
C0
C0
C0
C0
80
ENDCHAR
STARTCHAR Iacute.c2sc
ENCODING -1
SWIDTH 235 0
DWIDTH 5 0
BBX 6 15 1 0
BITMAP
1C
30
60
00
60
60
60
60
40
40
C0
C0
C0
C0
80
ENDCHAR
STARTCHAR Icircumflex.c2sc
ENCODING -1
SWIDTH 235 0
DWIDTH 5 0
BBX 5 15 1 0
BITMAP
30
D8
C8
00
60
60
60
60
40
40
C0
C0
C0
C0
80
ENDCHAR
STARTCHAR Idieresis.c2sc
ENCODING -1
SWIDTH 235 0
DWIDTH 5 0
BBX 6 14 1 0
BITMAP
CC
CC
00
60
60
60
60
40
40
C0
C0
C0
C0
80
ENDCHAR
STARTCHAR Ntilde.c2sc
ENCODING -1
SWIDTH 597 0
DWIDTH 12 0
BBX 12 14 0 0
BITMAP
0660
09C0
0000
3030
3820
3860
2C60
2460
6660
6240
63C0
61C0
41C0
C0C0
ENDCHAR
STARTCHAR Ograve.c2sc
ENCODING -1
SWIDTH 578 0
DWIDTH 12 0
BBX 10 15 1 0
BITMAP
1C00
0C00
0600
0000
1F00
3F80
71C0
60C0
C0C0
C0C0
C0C0
C180
E380
7F00
3E00
ENDCHAR
STARTCHAR Oacute.c2sc
ENCODING -1
SWIDTH 578 0
DWIDTH 12 0
BBX 10 15 1 0
BITMAP
0180
0300
0600
0000
1F00
3F80
71C0
60C0
C0C0
C0C0
C0C0
C180
E380
7F00
3E00
ENDCHAR
STARTCHAR Ocircumflex.c2sc
ENCODING -1
SWIDTH 578 0
DWIDTH 12 0
BBX 10 15 1 0
BITMAP
0600
0F00
1980
0000
1F00
3F80
71C0
60C0
C0C0
C0C0
C0C0
C180
E380
7F00
3E00
ENDCHAR
STARTCHAR Otilde.c2sc
ENCODING -1
SWIDTH 578 0
DWIDTH 12 0
BBX 10 14 1 0
BITMAP
1CC0
1380
0000
1F00
3F80
71C0
60C0
C0C0
C0C0
C0C0
C180
E380
7F00
3E00
ENDCHAR
STARTCHAR Odieresis.c2sc
ENCODING -1
SWIDTH 578 0
DWIDTH 12 0
BBX 10 14 1 0
BITMAP
1980
1980
0000
1F00
3F80
71C0
60C0
C0C0
C0C0
C0C0
C180
E380
7F00
3E00
ENDCHAR
STARTCHAR Ugrave.c2sc
ENCODING -1
SWIDTH 548 0
DWIDTH 11 0
BBX 10 15 1 0
BITMAP
1800
0C00
0600
0000
60C0
60C0
4080
4180
C180
C180
C180
C180
C300
FF00
7C00
ENDCHAR
STARTCHAR Uacute.c2sc
ENCODING -1
SWIDTH 548 0
DWIDTH 11 0
BBX 10 15 1 0
BITMAP
0380
0700
0600
0000
60C0
60C0
4080
4180
C180
C180
C180
C180
C300
FF00
7C00
ENDCHAR
STARTCHAR Ucircumflex.c2sc
ENCODING -1
SWIDTH 548 0
DWIDTH 11 0
BBX 10 15 1 0
BITMAP
0600
1F00
1980
0000
60C0
60C0
4080
4180
C180
C180
C180
C180
C300
FF00
7C00
ENDCHAR
STARTCHAR Udieresis.c2sc
ENCODING -1
SWIDTH 548 0
DWIDTH 11 0
BBX 10 14 1 0
BITMAP
1980
1980
0000
60C0
60C0
4080
4180
C180
C180
C180
C180
C300
FF00
7C00
ENDCHAR
STARTCHAR Yacute.c2sc
ENCODING -1
SWIDTH 510 0
DWIDTH 10 0
BBX 10 15 1 0
BITMAP
0380
0600
0C00
0000
C1C0
4180
6300
6600
3600
3C00
1800
1000
3000
3000
3000
ENDCHAR
STARTCHAR Amacron.c2sc
ENCODING -1
SWIDTH 552 0
DWIDTH 11 0
BBX 11 14 -1 0
BITMAP
07E0
07E0
0000
0300
0380
0780
0580
0C80
1880
18C0
3FC0
3FC0
6040
C060
ENDCHAR
STARTCHAR Abreve.c2sc
ENCODING -1
SWIDTH 552 0
DWIDTH 11 0
BBX 11 14 -1 0
BITMAP
0660
03C0
0000
0300
0380
0780
0580
0C80
1880
18C0
3FC0
3FC0
6040
C060
ENDCHAR
STARTCHAR Aogonek.c2sc
ENCODING -1
SWIDTH 552 0
DWIDTH 11 0
BBX 11 15 -1 -4
BITMAP
0300
0380
0780
0580
0C80
1880
18C0
3FC0
3FC0
6040
C060
00C0
0180
0100
01C0
ENDCHAR
STARTCHAR Cacute.c2sc
ENCODING -1
SWIDTH 548 0
DWIDTH 11 0
BBX 10 15 1 0
BITMAP
0380
0300
0600
0000
1F00
3F80
6180
C0C0
C000
C000
C000
C180
C300
7F00
3C00
ENDCHAR
STARTCHAR Ccircumflex.c2sc
ENCODING -1
SWIDTH 548 0
DWIDTH 11 0
BBX 10 15 1 0
BITMAP
0600
0F00
1980
0000
1F00
3F80
6180
C0C0
C000
C000
C000
C180
C300
7F00
3C00
ENDCHAR
STARTCHAR Cdotaccent.c2sc
ENCODING -1
SWIDTH 548 0
DWIDTH 11 0
BBX 10 14 1 0
BITMAP
0600
0600
0000
1F00
3F80
6180
C0C0
C000
C000
C000
C180
C300
7F00
3C00
ENDCHAR
STARTCHAR Ccaron.c2sc
ENCODING -1
SWIDTH 548 0
DWIDTH 11 0
BBX 10 15 1 0
BITMAP
1980
0F00
0600
0000
1F00
3F80
6180
C0C0
C000
C000
C000
C180
C300
7F00
3C00
ENDCHAR
STARTCHAR Dcaron.c2sc
ENCODING -1
SWIDTH 550 0
DWIDTH 11 0
BBX 10 15 0 0
BITMAP
1980
0F00
0600
0000
3F00
3F80
31C0
20C0
60C0
60C0
60C0
6180
4380
7F00
FC00
ENDCHAR
STARTCHAR Emacron.c2sc
ENCODING -1
SWIDTH 477 0
DWIDTH 10 0
BBX 10 14 0 0
BITMAP
1FC0
1FC0
0000
3FC0
3FC0
3000
3000
3F00
7F00
6000
6000
6000
7F00
FF00
ENDCHAR
STARTCHAR Ebreve.c2sc
ENCODING -1
SWIDTH 477 0
DWIDTH 10 0
BBX 10 14 0 0
BITMAP
0880
0700
0000
3FC0
3FC0
3000
3000
3F00
7F00
6000
6000
6000
7F00
FF00
ENDCHAR
STARTCHAR Edotaccent.c2sc
ENCODING -1
SWIDTH 477 0
DWIDTH 10 0
BBX 10 14 0 0
BITMAP
0200
0600
0000
3FC0
3FC0
3000
3000
3F00
7F00
6000
6000
6000
7F00
FF00
ENDCHAR
STARTCHAR Eogonek.c2sc
ENCODING -1
SWIDTH 477 0
DWIDTH 10 0
BBX 9 15 1 -4
BITMAP
7F80
7F80
6000
6000
7E00
7E00
C000
C000
C000
FE00
FE00
0C00
1800
1800
1C00
ENDCHAR
STARTCHAR Ecaron.c2sc
ENCODING -1
SWIDTH 477 0
DWIDTH 10 0
BBX 10 15 0 0
BITMAP
0CC0
0500
0600
0000
3FC0
3FC0
3000
3000
3F00
7F00
6000
6000
6000
7F00
FF00
ENDCHAR
STARTCHAR Gcircumflex.c2sc
ENCODING -1
SWIDTH 571 0
DWIDTH 11 0
BBX 9 15 1 0
BITMAP
0600
0F00
1980
0000
1F00
7F80
6180
C000
C000
C780
8F80
C180
C180
7F00
3E00
ENDCHAR
STARTCHAR Gbreve.c2sc
ENCODING -1
SWIDTH 571 0
DWIDTH 11 0
BBX 9 14 1 0
BITMAP
1980
0F00
0000
1F00
7F80
6180
C000
C000
C780
8F80
C180
C180
7F00
3E00
ENDCHAR
STARTCHAR Gdotaccent.c2sc
ENCODING -1
SWIDTH 571 0
DWIDTH 11 0
BBX 9 14 1 0
BITMAP
0600
0600
0000
1F00
7F80
6180
C000
C000
C780
8F80
C180
C180
7F00
3E00
ENDCHAR
STARTCHAR uni0122.c2sc
ENCODING -1
SWIDTH 571 0
DWIDTH 11 0
BBX 9 16 1 -5
BITMAP
1F00
7F80
6180
C000
C000
C780
8F80
C180
C180
7F00
3E00
0000
3000
3000
3000
6000
ENDCHAR
STARTCHAR Hcircumflex.c2sc
ENCODING -1
SWIDTH 597 0
DWIDTH 12 0
BBX 12 15 0 0
BITMAP
0300
0680
0CC0
0000
3030
3060
3060
2060
7FE0
7FE0
6040
60C0
60C0
40C0
C0C0
ENDCHAR
STARTCHAR Itilde.c2sc
ENCODING -1
SWIDTH 235 0
DWIDTH 5 0
BBX 7 14 0 0
BITMAP
72
CC
00
30
30
30
30
20
20
60
60
60
60
40
ENDCHAR
STARTCHAR Imacron.c2sc
ENCODING -1
SWIDTH 235 0
DWIDTH 5 0
BBX 7 14 0 0
BITMAP
7E
FE
00
30
30
30
30
20
20
60
60
60
60
40
ENDCHAR
STARTCHAR Ibreve.c2sc
ENCODING -1
SWIDTH 235 0
DWIDTH 5 0
BBX 6 14 1 0
BITMAP
CC
78
00
60
60
60
60
40
40
C0
C0
C0
C0
80
ENDCHAR
STARTCHAR Iogonek.c2sc
ENCODING -1
SWIDTH 235 0
DWIDTH 5 0
BBX 5 15 -1 -4
BITMAP
18
18
18
18
10
10
30
30
30
30
20
C0
C0
80
E0
ENDCHAR
STARTCHAR Idotaccent.c2sc
ENCODING -1
SWIDTH 235 0
DWIDTH 5 0
BBX 4 14 1 0
BITMAP
30
30
00
60
60
60
60
40
40
C0
C0
C0
C0
80
ENDCHAR
STARTCHAR Jcircumflex.c2sc
ENCODING -1
SWIDTH 466 0
DWIDTH 9 0
BBX 11 15 0 0
BITMAP
01C0
0360
0660
0000
0180
0180
0100
0300
0300
0300
0300
C300
C600
FE00
3C00
ENDCHAR
STARTCHAR uni0136.c2sc
ENCODING -1
SWIDTH 529 0
DWIDTH 11 0
BBX 11 16 0 -5
BITMAP
3060
31C0
3380
3700
2C00
7C00
7600
6700
6300
6180
4180
8040
1800
1000
3000
2000
ENDCHAR
STARTCHAR Lacute.c2sc
ENCODING -1
SWIDTH 454 0
DWIDTH 9 0
BBX 8 15 0 0
BITMAP
0E
18
30
00
30
30
30
20
60
60
60
60
40
7F
FF
ENDCHAR
STARTCHAR uni013B.c2sc
ENCODING -1
SWIDTH 454 0
DWIDTH 9 0
BBX 8 16 0 -5
BITMAP
30
30
30
20
60
60
60
60
40
7F
FF
00
18
10
30
20
ENDCHAR
STARTCHAR Lcaron.c2sc
ENCODING -1
SWIDTH 454 0
DWIDTH 9 0
BBX 8 11 0 0
BITMAP
33
33
36
24
60
60
60
60
40
7F
FF
ENDCHAR
STARTCHAR Ldot.c2sc
ENCODING -1
SWIDTH 454 0
DWIDTH 9 0
BBX 8 11 0 0
BITMAP
30
30
30
20
66
66
60
60
40
7F
FF
ENDCHAR
STARTCHAR Nacute.c2sc
ENCODING -1
SWIDTH 597 0
DWIDTH 12 0
BBX 12 15 0 0
BITMAP
00E0
0180
0300
0000
3030
3820
3860
2C60
2460
6660
6240
63C0
61C0
41C0
C0C0
ENDCHAR
STARTCHAR uni0145.c2sc
ENCODING -1
SWIDTH 597 0
DWIDTH 12 0
BBX 12 16 0 -5
BITMAP
3030
3820
3860
2C60
2460
6660
6240
63C0
61C0
41C0
C0C0
0000
0C00
0800
1800
1000
ENDCHAR
STARTCHAR Ncaron.c2sc
ENCODING -1
SWIDTH 597 0
DWIDTH 12 0
BBX 12 15 0 0
BITMAP
04C0
0380
0300
0000
3030
3820
3860
2C60
2460
6660
6240
63C0
61C0
41C0
C0C0
ENDCHAR
STARTCHAR Omacron.c2sc
ENCODING -1
SWIDTH 578 0
DWIDTH 12 0
BBX 10 14 1 0
BITMAP
1F80
1F80
0000
1F00
3F80
71C0
60C0
C0C0
C0C0
C0C0
C180
E380
7F00
3E00
ENDCHAR
STARTCHAR Obreve.c2sc
ENCODING -1
SWIDTH 578 0
DWIDTH 12 0
BBX 10 14 1 0
BITMAP
1980
0F00
0000
1F00
3F80
71C0
60C0
C0C0
C0C0
C0C0
C180
E380
7F00
3E00
ENDCHAR
STARTCHAR Ohungarumlaut.c2sc
ENCODING -1
SWIDTH 578 0
DWIDTH 12 0
BBX 11 15 1 0
BITMAP
07E0
0D80
1B00
0000
1F00
3F80
71C0
60C0
C0C0
C0C0
C0C0
C180
E380
7F00
3E00
ENDCHAR
STARTCHAR Racute.c2sc
ENCODING -1
SWIDTH 524 0
DWIDTH 11 0
BBX 10 15 0 0
BITMAP
01C0
0300
0600
0000
3F00
3F80
30C0
20C0
61C0
7F80
7E00
6300
6300
4100
C180
ENDCHAR
STARTCHAR uni0156.c2sc
ENCODING -1
SWIDTH 524 0
DWIDTH 11 0
BBX 10 16 0 -5
BITMAP
3F00
3F80
30C0
20C0
61C0
7F80
7E00
6300
6300
4100
C180
0000
1800
1000
3000
2000
ENDCHAR
STARTCHAR Rcaron.c2sc
ENCODING -1
SWIDTH 524 0
DWIDTH 11 0
BBX 10 15 0 0
BITMAP
0980
0700
0600
0000
3F00
3F80
30C0
20C0
61C0
7F80
7E00
6300
6300
4100
C180
ENDCHAR
STARTCHAR Sacute.c2sc
ENCODING -1
SWIDTH 504 0
DWIDTH 10 0
BBX 10 15 0 0
BITMAP
01C0
0300
0600
0000
1F00
3F80
31C0
60C0
3C00
1F00
0380
C180
E180
7F00
3E00
ENDCHAR
STARTCHAR Scircumflex.c2sc
ENCODING -1
SWIDTH 504 0
DWIDTH 10 0
BBX 10 15 0 0
BITMAP
0700
0D80
1980
0000
1F00
3F80
31C0
60C0
3C00
1F00
0380
C180
E180
7F00
3E00
ENDCHAR
STARTCHAR Scedilla.c2sc
ENCODING -1
SWIDTH 504 0
DWIDTH 10 0
BBX 10 15 0 -4
BITMAP
1F00
3F80
31C0
60C0
3C00
1F00
0380
C180
E180
7F00
3E00
1800
0C00
0C00
1800
ENDCHAR
STARTCHAR Scaron.c2sc
ENCODING -1
SWIDTH 504 0
DWIDTH 10 0
BBX 10 15 0 0
BITMAP
0CC0
0500
0600
0000
1F00
3F80
31C0
60C0
3C00
1F00
0380
C180
E180
7F00
3E00
ENDCHAR
STARTCHAR uni021A.c2sc
ENCODING -1
SWIDTH 507 0
DWIDTH 10 0
BBX 10 16 1 -5
BITMAP
FFC0
FF80
0C00
0800
1800
1800
1800
1800
1000
3000
3000
0000
3000
2000
6000
4000
ENDCHAR
STARTCHAR Tcaron.c2sc
ENCODING -1
SWIDTH 507 0
DWIDTH 10 0
BBX 10 15 1 0
BITMAP
1180
0A00
0C00
0000
FFC0
FF80
0C00
0800
1800
1800
1800
1800
1000
3000
3000
ENDCHAR
STARTCHAR uni0162.c2sc
ENCODING -1
SWIDTH 507 0
DWIDTH 10 0
BBX 10 15 1 -4
BITMAP
FFC0
FF80
0C00
0800
1800
1800
1800
1800
1000
3000
3000
2000
1800
1800
7000
ENDCHAR
STARTCHAR Utilde.c2sc
ENCODING -1
SWIDTH 548 0
DWIDTH 11 0
BBX 10 14 1 0
BITMAP
1C80
3380
0000
60C0
60C0
4080
4180
C180
C180
C180
C180
C300
FF00
7C00
ENDCHAR
STARTCHAR Umacron.c2sc
ENCODING -1
SWIDTH 548 0
DWIDTH 11 0
BBX 10 14 1 0
BITMAP
1F80
1F80
0000
60C0
60C0
4080
4180
C180
C180
C180
C180
C300
FF00
7C00
ENDCHAR
STARTCHAR Ubreve.c2sc
ENCODING -1
SWIDTH 548 0
DWIDTH 11 0
BBX 10 14 1 0
BITMAP
1980
0F00
0000
60C0
60C0
4080
4180
C180
C180
C180
C180
C300
FF00
7C00
ENDCHAR
STARTCHAR Uring.c2sc
ENCODING -1
SWIDTH 548 0
DWIDTH 11 0
BBX 10 16 1 0
BITMAP
0600
0900
0900
0E00
0000
60C0
60C0
4080
4180
C180
C180
C180
C180
C300
FF00
7C00
ENDCHAR
STARTCHAR Uhungarumlaut.c2sc
ENCODING -1
SWIDTH 548 0
DWIDTH 11 0
BBX 11 15 1 0
BITMAP
06E0
0D80
1B00
0000
60C0
60C0
4080
4180
C180
C180
C180
C180
C300
FF00
7C00
ENDCHAR
STARTCHAR Uogonek.c2sc
ENCODING -1
SWIDTH 548 0
DWIDTH 11 0
BBX 10 15 1 -4
BITMAP
60C0
60C0
4080
4180
C180
C180
C180
C180
C300
FF00
3C00
1800
3000
3000
1C00
ENDCHAR
STARTCHAR Wcircumflex.c2sc
ENCODING -1
SWIDTH 742 0
DWIDTH 15 0
BBX 14 15 1 0
BITMAP
0180
07C0
0660
0000
C30C
430C
4708
4598
4590
4DB0
49B0
78A0
70E0
70C0
60C0
ENDCHAR
STARTCHAR Ycircumflex.c2sc
ENCODING -1
SWIDTH 510 0
DWIDTH 10 0
BBX 10 15 1 0
BITMAP
0E00
1B00
3300
0000
C1C0
4180
6300
6600
3600
3C00
1800
1000
3000
3000
3000
ENDCHAR
STARTCHAR Ydieresis.c2sc
ENCODING -1
SWIDTH 510 0
DWIDTH 10 0
BBX 10 14 1 0
BITMAP
3100
3300
0000
C1C0
4180
6300
6600
3600
3C00
1800
1000
3000
3000
3000
ENDCHAR
STARTCHAR Zacute.c2sc
ENCODING -1
SWIDTH 506 0
DWIDTH 10 0
BBX 10 15 0 0
BITMAP
01C0
0300
0600
0000
3FC0
7FC0
0180
0300
0600
0C00
1800
3000
6000
FF80
FF00
ENDCHAR
STARTCHAR Zdotaccent.c2sc
ENCODING -1
SWIDTH 506 0
DWIDTH 10 0
BBX 10 14 0 0
BITMAP
0600
0600
0000
3FC0
7FC0
0180
0300
0600
0C00
1800
3000
6000
FF80
FF00
ENDCHAR
STARTCHAR Zcaron.c2sc
ENCODING -1
SWIDTH 506 0
DWIDTH 10 0
BBX 10 15 0 0
BITMAP
08C0
0500
0600
0000
3FC0
7FC0
0180
0300
0600
0C00
1800
3000
6000
FF80
FF00
ENDCHAR
STARTCHAR two.pnum
ENCODING -1
SWIDTH 549 0
DWIDTH 11 0
BBX 10 14 0 0
BITMAP
0F80
1FC0
38C0
30C0
00C0
0080
0180
0300
0E00
1800
3000
6000
FFC0
FF80
ENDCHAR
STARTCHAR three.pnum
ENCODING -1
SWIDTH 549 0
DWIDTH 11 0
BBX 9 14 1 0
BITMAP
1F00
3F80
7180
6180
0180
0380
1E00
1E00
0300
0100
8300
C300
FE00
7C00
ENDCHAR
STARTCHAR four.pnum
ENCODING -1
SWIDTH 549 0
DWIDTH 11 0
BBX 10 14 0 0
BITMAP
00C0
01C0
03C0
0680
0D80
0980
1180
3180
6100
FFC0
FFC0
0300
0300
0300
ENDCHAR
STARTCHAR five.pnum
ENCODING -1
SWIDTH 549 0
DWIDTH 11 0
BBX 10 14 1 0
BITMAP
1FC0
1FC0
3000
3000
2000
2E00
7F00
6380
0180
0180
C180
C300
7F00
3C00
ENDCHAR
STARTCHAR six.pnum
ENCODING -1
SWIDTH 559 0
DWIDTH 11 0
BBX 9 14 1 0
BITMAP
0780
0F00
1C00
3000
6000
6E00
7F00
6180
C180
C180
C180
6300
7F00
3C00
ENDCHAR
STARTCHAR eight.pnum
ENCODING -1
SWIDTH 569 0
DWIDTH 11 0
BBX 10 14 1 0
BITMAP
0F00
3F80
31C0
20C0
6080
3180
3F00
3F00
6300
C180
C180
C300
7F00
3C00
ENDCHAR
STARTCHAR nine.pnum
ENCODING -1
SWIDTH 559 0
DWIDTH 11 0
BBX 8 14 2 0
BITMAP
3C
7E
E3
C3
83
83
C7
FF
7B
06
0E
1C
F8
E0
ENDCHAR
STARTCHAR zero.pnum
ENCODING -1
SWIDTH 569 0
DWIDTH 11 0
BBX 10 14 1 0
BITMAP
0F00
3F80
3180
60C0
60C0
6080
4080
C180
C180
C180
C100
6300
7E00
3C00
ENDCHAR
STARTCHAR G_acutecomb.ccmp
ENCODING -1
SWIDTH 665 0
DWIDTH 13 0
BBX 11 18 1 0
BITMAP
00E0
0180
0300
0000
0F80
1FC0
3860
6060
6000
4000
C3E0
C3E0
C060
C0C0
C0C0
61C0
7F80
1F00
ENDCHAR
STARTCHAR g_acutecomb.ccmp
ENCODING -1
SWIDTH 549 0
DWIDTH 11 0
BBX 10 19 0 -4
BITMAP
01C0
0300
0600
0000
0E40
3FC0
31C0
60C0
60C0
6080
6180
6180
6380
7F80
3D80
0300
4300
FE00
3C00
ENDCHAR
STARTCHAR N_gravecomb.ccmp
ENCODING -1
SWIDTH 696 0
DWIDTH 14 0
BBX 13 18 1 0
BITMAP
0600
0300
0100
0000
3018
3810
3830
6C30
6C30
6C30
6630
6620
4360
C360
C1E0
C1E0
C0C0
C0C0
ENDCHAR
STARTCHAR n_gravecomb.ccmp
ENCODING -1
SWIDTH 540 0
DWIDTH 11 0
BBX 10 15 0 0
BITMAP
0C00
0600
0200
0000
3780
3F80
38C0
30C0
60C0
6080
6180
6180
6180
4180
C180
ENDCHAR
STARTCHAR A_uni030F.ccmp
ENCODING -1
SWIDTH 637 0
DWIDTH 13 0
BBX 12 18 -1 0
BITMAP
0EC0
0360
03E0
0000
00C0
01C0
01C0
0340
0640
0660
0C60
0C60
1820
1FE0
3FF0
3030
6030
C030
ENDCHAR
STARTCHAR a_uni030F.ccmp
ENCODING -1
SWIDTH 532 0
DWIDTH 11 0
BBX 9 15 1 0
BITMAP
7E00
3600
1B00
0000
1E00
7F00
6100
0180
3F00
7F00
C300
C300
C700
FF00
7B00
ENDCHAR
STARTCHAR E_uni030F.ccmp
ENCODING -1
SWIDTH 556 0
DWIDTH 11 0
BBX 11 18 1 0
BITMAP
3E00
1B00
0D80
0000
3FE0
3FE0
3000
6000
6000
6000
7F80
7F80
4000
C000
C000
C000
FF80
FF00
ENDCHAR
STARTCHAR e_uni030F.ccmp
ENCODING -1
SWIDTH 518 0
DWIDTH 10 0
BBX 8 15 1 0
BITMAP
6C
36
1A
00
1E
7F
63
C1
FF
FF
80
C0
C2
7F
3C
ENDCHAR
STARTCHAR I_uni030F.ccmp
ENCODING -1
SWIDTH 268 0
DWIDTH 5 0
BBX 6 18 0 0
BITMAP
D8
6C
3C
00
18
18
18
10
30
30
30
30
30
20
60
60
60
60
ENDCHAR
STARTCHAR dotlessi_uni030F.ccmp
ENCODING -1
SWIDTH 244 0
DWIDTH 5 0
BBX 7 15 -1 0
BITMAP
F8
6C
36
00
18
18
18
10
10
30
30
30
30
20
60
ENDCHAR
STARTCHAR O_uni030F.ccmp
ENCODING -1
SWIDTH 671 0
DWIDTH 13 0
BBX 11 18 1 0
BITMAP
1B00
0D80
0680
0000
0F80
1FC0
38E0
6060
6020
C020
C060
C060
C060
C060
C0C0
61C0
7F80
3E00
ENDCHAR
STARTCHAR o_uni030F.ccmp
ENCODING -1
SWIDTH 558 0
DWIDTH 11 0
BBX 9 15 1 0
BITMAP
6C00
3600
1B00
0000
1E00
3F00
6380
C180
C180
C180
8180
C180
C300
7E00
3C00
ENDCHAR
STARTCHAR R_uni030F.ccmp
ENCODING -1
SWIDTH 602 0
DWIDTH 12 0
BBX 11 18 1 0
BITMAP
3600
1B00
0D00
0000
3F80
3FC0
30C0
6060
6060
60E0
61C0
7F80
7F00
C300
C300
C180
C180
81C0
ENDCHAR
STARTCHAR r_uni030F.ccmp
ENCODING -1
SWIDTH 333 0
DWIDTH 7 0
BBX 7 15 0 0
BITMAP
EC
34
3E
00
36
3E
38
30
20
60
60
60
60
60
C0
ENDCHAR
STARTCHAR U_uni030F.ccmp
ENCODING -1
SWIDTH 633 0
DWIDTH 13 0
BBX 12 18 1 0
BITMAP
3B00
0D00
0F80
0000
3030
3030
2030
6020
6060
6060
6060
4060
4060
C0C0
C0C0
61C0
7F80
3E00
ENDCHAR
STARTCHAR u_uni030F.ccmp
ENCODING -1
SWIDTH 539 0
DWIDTH 11 0
BBX 9 15 1 0
BITMAP
7C00
3600
1B00
0000
6080
6180
6180
4180
4180
C180
C100
C300
C700
7F00
7B00
ENDCHAR
STARTCHAR Upsilon1_acutecomb.ccmp
ENCODING -1
SWIDTH 569 0
DWIDTH 11 0
BBX 15 15 -2 0
BITMAP
6000
4C0E
CE1E
0618
0230
0370
0360
03C0
01C0
0180
0180
0100
0300
0300
0300
ENDCHAR
STARTCHAR B_dotbelowcomb.ccmp
ENCODING -1
SWIDTH 608 0
DWIDTH 12 0
BBX 11 17 0 -3
BITMAP
1FC0
1FE0
1060
3020
3060
30E0
3FC0
3FC0
60C0
6060
6060
60C0
7FC0
7F00
8000
1800
1800
ENDCHAR
STARTCHAR b_dotbelowcomb.ccmp
ENCODING -1
SWIDTH 549 0
DWIDTH 11 0
BBX 10 18 0 -3
BITMAP
1800
1000
3000
3000
3700
3F80
30C0
20C0
60C0
60C0
60C0
6180
6180
7F00
DE00
0000
1800
1800
ENDCHAR
STARTCHAR D_dotbelowcomb.ccmp
ENCODING -1
SWIDTH 641 0
DWIDTH 13 0
BBX 11 17 1 -3
BITMAP
3F00
3FC0
30C0
2060
6060
6060
6060
6060
4060
C0C0
C1C0
C380
FF00
FC00
0000
3000
3000
ENDCHAR
STARTCHAR d_dotbelowcomb.ccmp
ENCODING -1
SWIDTH 551 0
DWIDTH 11 0
BBX 10 18 1 -3
BITMAP
00C0
00C0
00C0
00C0
1D80
7F80
6380
C180
C180
C100
8300
C300
C700
FF00
7B00
0000
3000
3000
ENDCHAR
STARTCHAR D_uniF6C3.ccmp
ENCODING -1
SWIDTH 641 0
DWIDTH 13 0
BBX 11 19 1 -5
BITMAP
3F00
3FC0
30C0
2060
6060
6060
6060
6060
4060
C0C0
C1C0
C380
FF00
FC00
0000
1000
3000
3000
2000
ENDCHAR
STARTCHAR d_uniF6C3.ccmp
ENCODING -1
SWIDTH 551 0
DWIDTH 11 0
BBX 10 20 1 -5
BITMAP
00C0
00C0
00C0
00C0
1D80
7F80
6380
C180
C180
C100
8300
C300
C700
FF00
7B00
0000
1000
3000
3000
2000
ENDCHAR
STARTCHAR H_dotbelowcomb.ccmp
ENCODING -1
SWIDTH 696 0
DWIDTH 14 0
BBX 13 17 1 -3
BITMAP
3018
3010
2030
6030
6030
6030
7FF0
7FE0
4060
C060
C060
C060
C040
C0C0
0000
1800
1800
ENDCHAR
STARTCHAR h_dotbelowcomb.ccmp
ENCODING -1
SWIDTH 539 0
DWIDTH 11 0
BBX 10 18 0 -3
BITMAP
1800
1000
1000
3000
3780
3F80
38C0
30C0
20C0
6080
6180
6180
6180
4180
C180
0000
1800
1800
ENDCHAR
STARTCHAR K_acutecomb.ccmp
ENCODING -1
SWIDTH 612 0
DWIDTH 12 0
BBX 12 18 1 0
BITMAP
01C0
0300
0600
0000
3070
30E0
21C0
6380
6700
6C00
7C00
7400
6600
C300
C300
C180
C180
80C0
ENDCHAR
STARTCHAR k_acutecomb.ccmp
ENCODING -1
SWIDTH 496 0
DWIDTH 10 0
BBX 10 19 0 0
BITMAP
00C0
0180
0300
0000
1800
1000
3000
3000
31C0
3380
3700
2E00
6C00
7C00
6400
6600
4200
4300
C180
ENDCHAR
STARTCHAR K_dotbelowcomb.ccmp
ENCODING -1
SWIDTH 612 0
DWIDTH 12 0
BBX 12 16 1 -2
BITMAP
3070
30E0
21C0
6380
6700
6C00
7C00
7400
6600
C300
C300
C180
C180
80C0
1800
1800
ENDCHAR
STARTCHAR k_dotbelowcomb.ccmp
ENCODING -1
SWIDTH 496 0
DWIDTH 10 0
BBX 10 17 0 -2
BITMAP
1800
1000
3000
3000
31C0
3380
3700
2E00
6C00
7C00
6400
6600
4200
4300
C100
1880
1800
ENDCHAR
STARTCHAR L_dotbelowcomb.ccmp
ENCODING -1
SWIDTH 526 0
DWIDTH 11 0
BBX 8 17 1 -3
BITMAP
30
30
20
60
60
60
60
60
40
C0
C0
C0
FF
FF
00
30
30
ENDCHAR
STARTCHAR l_dotbelowcomb.ccmp
ENCODING -1
SWIDTH 240 0
DWIDTH 5 0
BBX 5 18 0 -3
BITMAP
18
18
10
30
30
30
30
30
20
60
60
60
60
40
40
80
C0
C0
ENDCHAR
STARTCHAR M_dotbelowcomb.ccmp
ENCODING -1
SWIDTH 851 0
DWIDTH 17 0
BBX 16 17 1 -3
BITMAP
3007
3807
380E
781E
681E
6C36
6C36
6C64
444C
C4CC
C78C
C78C
C70C
8208
0010
0600
0600
ENDCHAR
STARTCHAR m_dotbelowcomb.ccmp
ENCODING -1
SWIDTH 854 0
DWIDTH 17 0
BBX 16 14 0 -3
BITMAP
371E
3FBE
31E3
60C3
6083
6183
6182
6186
4186
C186
C106
0000
0300
0300
ENDCHAR
STARTCHAR N_dotbelowcomb.ccmp
ENCODING -1
SWIDTH 696 0
DWIDTH 14 0
BBX 13 17 1 -3
BITMAP
3018
3810
3830
6C30
6C30
6C30
6630
6620
4360
C360
C1E0
C1E0
C0C0
C0C0
0000
1800
1800
ENDCHAR
STARTCHAR n_dotbelowcomb.ccmp
ENCODING -1
SWIDTH 540 0
DWIDTH 11 0
BBX 10 14 0 -3
BITMAP
3780
3F80
38C0
30C0
60C0
6080
6180
6180
6180
4180
C180
0000
1800
1800
ENDCHAR
STARTCHAR O_tildecomb_acutecomb.ccmp
ENCODING -1
SWIDTH 671 0
DWIDTH 13 0
BBX 11 20 1 0
BITMAP
00C0
0180
0000
0640
05C0
0000
0F80
1FC0
38E0
6060
6020
C020
C060
C060
C060
C060
C0C0
61C0
7F80
3E00
ENDCHAR
STARTCHAR P_acutecomb.ccmp
ENCODING -1
SWIDTH 616 0
DWIDTH 12 0
BBX 12 18 0 0
BITMAP
00E0
0180
0300
0000
1FC0
1FE0
3070
3030
3030
3030
3060
3FE0
7F80
6000
6000
6000
6000
C000
ENDCHAR
STARTCHAR p_acutecomb.ccmp
ENCODING -1
SWIDTH 549 0
DWIDTH 11 0
BBX 11 19 0 -4
BITMAP
00E0
0180
0300
0000
3700
3F80
31C0
20C0
60C0
60C0
60C0
6180
6380
7F00
DE00
C000
C000
C000
8000
ENDCHAR
STARTCHAR R_dotbelowcomb.ccmp
ENCODING -1
SWIDTH 602 0
DWIDTH 12 0
BBX 11 17 1 -3
BITMAP
3F80
3FC0
30C0
6060
6060
60E0
61C0
7F80
7F00
C300
C300
C180
C180
8180
0040
3000
3000
ENDCHAR
STARTCHAR r_dotbelowcomb.ccmp
ENCODING -1
SWIDTH 333 0
DWIDTH 7 0
BBX 7 14 0 -3
BITMAP
36
3E
38
30
20
60
60
60
60
60
40
80
C0
C0
ENDCHAR
STARTCHAR S_dotbelowcomb.ccmp
ENCODING -1
SWIDTH 580 0
DWIDTH 12 0
BBX 11 17 1 -3
BITMAP
0F80
3FC0
30C0
6060
6000
3000
1E00
0F80
0180
00C0
C0C0
C180
7F80
3E00
0000
1000
3800
ENDCHAR
STARTCHAR s_dotbelowcomb.ccmp
ENCODING -1
SWIDTH 504 0
DWIDTH 10 0
BBX 9 14 0 -3
BITMAP
1F00
3F80
3180
6000
3C00
1F00
0300
0180
E300
7F00
3E00
0000
1800
1800
ENDCHAR
STARTCHAR T_dotbelowcomb.ccmp
ENCODING -1
SWIDTH 583 0
DWIDTH 12 0
BBX 11 17 2 -3
BITMAP
FFE0
FFC0
0C00
0C00
0800
1800
1800
1800
1800
1800
1000
3000
3000
3000
0000
6000
6000
ENDCHAR
STARTCHAR t_dotbelowcomb.ccmp
ENCODING -1
SWIDTH 321 0
DWIDTH 6 0
BBX 6 17 0 -3
BITMAP
18
18
10
7C
FC
30
30
30
20
20
60
60
78
38
00
30
30
ENDCHAR
STARTCHAR U_tildecomb_acutecomb.ccmp
ENCODING -1
SWIDTH 633 0
DWIDTH 13 0
BBX 12 20 1 0
BITMAP
00C0
0100
0000
0640
0980
0000
3030
3030
2030
6020
6060
6060
6060
4060
4060
C0C0
C0C0
61C0
7F80
3E00
ENDCHAR
STARTCHAR V_tildecomb.ccmp
ENCODING -1
SWIDTH 622 0
DWIDTH 12 0
BBX 12 17 1 0
BITMAP
0E40
19C0
0000
C030
6060
6060
60C0
60C0
2180
2180
3300
3300
3600
1600
1C00
1C00
1800
ENDCHAR
STARTCHAR v_tildecomb.ccmp
ENCODING -1
SWIDTH 474 0
DWIDTH 10 0
BBX 9 14 1 0
BITMAP
3900
2700
4000
C180
4300
4300
6200
6600
6400
2C00
2800
3800
3000
3000
ENDCHAR
STARTCHAR V_dotbelowcomb.ccmp
ENCODING -1
SWIDTH 622 0
DWIDTH 12 0
BBX 12 17 1 -3
BITMAP
C030
6060
6060
60C0
60C0
2180
2180
3300
3300
3600
1600
1C00
1C00
1800
0000
1800
1800
ENDCHAR
STARTCHAR v_dotbelowcomb.ccmp
ENCODING -1
SWIDTH 474 0
DWIDTH 10 0
BBX 9 14 1 -3
BITMAP
C180
4300
4300
6200
6600
6400
2C00
2800
3800
3000
3000
0000
2000
6000
ENDCHAR
STARTCHAR W_dotbelowcomb.ccmp
ENCODING -1
SWIDTH 865 0
DWIDTH 17 0
BBX 16 17 2 -3
BITMAP
C183
C183
C386
C286
C684
C48C
CCCC
4CD8
48D8
58D0
50F0
7070
6060
6060
0000
0C00
0C00
ENDCHAR
STARTCHAR w_dotbelowcomb.ccmp
ENCODING -1
SWIDTH 733 0
DWIDTH 15 0
BBX 14 14 1 -3
BITMAP
C30C
4308
4718
4518
4D10
6DB0
69A0
79E0
70C0
70C0
60C0
0000
0C00
0C00
ENDCHAR
STARTCHAR Z_dotbelowcomb.ccmp
ENCODING -1
SWIDTH 585 0
DWIDTH 12 0
BBX 12 17 0 -3
BITMAP
3FF0
3FF0
0060
00C0
0180
0300
0600
0E00
1C00
3800
3000
6000
FFC0
FFC0
0000
1800
1800
ENDCHAR
STARTCHAR z_dotbelowcomb.ccmp
ENCODING -1
SWIDTH 485 0
DWIDTH 10 0
BBX 10 14 0 -3
BITMAP
3FC0
3F80
4380
0300
0600
0C00
1800
3000
6000
FF00
FF00
0000
1000
3800
ENDCHAR
STARTCHAR Alphatonos.c2sc
ENCODING -1
SWIDTH 552 0
DWIDTH 11 0
BBX 11 12 -1 0
BITMAP
0C00
1B00
1380
0780
0580
0C80
1880
18C0
3FC0
3FC0
6040
C060
ENDCHAR
STARTCHAR Epsilontonos.c2sc
ENCODING -1
SWIDTH 506 0
DWIDTH 10 0
BBX 12 12 -1 0
BITMAP
6000
4FF0
CFE0
0800
1800
1FC0
1FC0
1800
1000
1000
3FC0
3FC0
ENDCHAR
STARTCHAR Etatonos.c2sc
ENCODING -1
SWIDTH 626 0
DWIDTH 13 0
BBX 13 12 -1 0
BITMAP
6000
4C18
C818
1818
1810
1FF0
1FF0
1030
1030
3030
3020
3060
ENDCHAR
STARTCHAR Iotatonos.c2sc
ENCODING -1
SWIDTH 265 0
DWIDTH 5 0
BBX 6 12 -1 0
BITMAP
60
4C
CC
08
18
18
18
18
18
10
30
30
ENDCHAR
STARTCHAR Omicrontonos.c2sc
ENCODING -1
SWIDTH 583 0
DWIDTH 12 0
BBX 11 12 0 0
BITMAP
6000
4F80
DFC0
38E0
3060
6060
6060
6060
60C0
71C0
3F80
1F00
ENDCHAR
STARTCHAR Upsilontonos.c2sc
ENCODING -1
SWIDTH 539 0
DWIDTH 11 0
BBX 13 12 -2 0
BITMAP
6000
4C18
CC30
0430
0660
06C0
0380
0380
0300
0300
0300
0200
ENDCHAR
STARTCHAR Omegatonos.c2sc
ENCODING -1
SWIDTH 609 0
DWIDTH 12 0
BBX 11 12 0 0
BITMAP
6000
4F80
DFC0
38E0
3060
6060
6060
6060
60C0
3180
FBC0
F3C0
ENDCHAR
STARTCHAR Alpha.c2sc
ENCODING -1
SWIDTH 552 0
DWIDTH 11 0
BBX 11 11 -1 0
BITMAP
0300
0380
0780
0580
0C80
1880
18C0
3FC0
3FC0
6040
C060
ENDCHAR
STARTCHAR Beta.c2sc
ENCODING -1
SWIDTH 527 0
DWIDTH 11 0
BBX 9 11 1 0
BITMAP
7F00
7F80
6180
6180
7F00
7F00
C300
C100
C300
FF00
FC00
ENDCHAR
STARTCHAR Epsilon.c2sc
ENCODING -1
SWIDTH 477 0
DWIDTH 10 0
BBX 10 11 0 0
BITMAP
3FC0
3FC0
3000
3000
3F00
7F00
6000
6000
6000
7F00
FF00
ENDCHAR
STARTCHAR Zeta.c2sc
ENCODING -1
SWIDTH 506 0
DWIDTH 10 0
BBX 10 11 0 0
BITMAP
3FC0
7FC0
0180
0300
0600
0C00
1800
3000
6000
FF80
FF00
ENDCHAR
STARTCHAR Eta.c2sc
ENCODING -1
SWIDTH 597 0
DWIDTH 12 0
BBX 12 11 0 0
BITMAP
3030
3060
3060
2060
7FE0
7FE0
6040
60C0
60C0
40C0
C0C0
ENDCHAR
STARTCHAR Iota.c2sc
ENCODING -1
SWIDTH 235 0
DWIDTH 5 0
BBX 3 11 1 0
BITMAP
60
60
60
60
40
40
C0
C0
C0
C0
80
ENDCHAR
STARTCHAR Kappa.c2sc
ENCODING -1
SWIDTH 529 0
DWIDTH 11 0
BBX 11 11 0 0
BITMAP
3060
31C0
3380
3700
2C00
7C00
7600
6700
6300
6180
C1C0
ENDCHAR
STARTCHAR Mu.c2sc
ENCODING -1
SWIDTH 733 0
DWIDTH 15 0
BBX 14 11 0 0
BITMAP
380C
381C
381C
2C3C
2C6C
6C48
64D8
6798
6798
4718
C210
ENDCHAR
STARTCHAR Nu.c2sc
ENCODING -1
SWIDTH 597 0
DWIDTH 12 0
BBX 12 11 0 0
BITMAP
3030
3820
3860
2C60
2460
6660
6240
63C0
61C0
41C0
C0C0
ENDCHAR
STARTCHAR Omicron.c2sc
ENCODING -1
SWIDTH 578 0
DWIDTH 12 0
BBX 10 11 1 0
BITMAP
1F00
3F80
71C0
60C0
C0C0
C0C0
C0C0
C180
E380
7F00
3E00
ENDCHAR
STARTCHAR Rho.c2sc
ENCODING -1
SWIDTH 533 0
DWIDTH 11 0
BBX 10 11 0 0
BITMAP
3F80
3FC0
30C0
3040
20C0
7FC0
7F00
6000
6000
4000
C000
ENDCHAR
STARTCHAR Tau.c2sc
ENCODING -1
SWIDTH 507 0
DWIDTH 10 0
BBX 10 11 1 0
BITMAP
FFC0
FF80
0C00
0800
1800
1800
1800
1800
1000
3000
3000
ENDCHAR
STARTCHAR Upsilon.c2sc
ENCODING -1
SWIDTH 510 0
DWIDTH 10 0
BBX 10 11 1 0
BITMAP
C1C0
4180
6300
6600
3600
3C00
1800
1000
3000
3000
3000
ENDCHAR
STARTCHAR Chi.c2sc
ENCODING -1
SWIDTH 529 0
DWIDTH 11 0
BBX 12 11 -1 0
BITMAP
1830
1860
0CC0
0D80
0700
0700
0F00
0D00
1980
30C0
E0C0
ENDCHAR
STARTCHAR Iotadieresis.c2sc
ENCODING -1
SWIDTH 235 0
DWIDTH 5 0
BBX 6 14 1 0
BITMAP
CC
CC
00
60
60
60
60
40
40
C0
C0
C0
C0
80
ENDCHAR
STARTCHAR Upsilondieresis.c2sc
ENCODING -1
SWIDTH 510 0
DWIDTH 10 0
BBX 10 14 1 0
BITMAP
3100
3300
0000
C1C0
4180
6300
6600
3600
3C00
1800
1000
3000
3000
3000
ENDCHAR
STARTCHAR uni0401.c2sc
ENCODING -1
SWIDTH 477 0
DWIDTH 10 0
BBX 10 14 0 0
BITMAP
0880
19C0
0000
3FC0
3FC0
3000
3000
3F00
7F00
6000
6000
6000
7F00
FF00
ENDCHAR
STARTCHAR uni0403.c2sc
ENCODING -1
SWIDTH 451 0
DWIDTH 9 0
BBX 10 15 0 0
BITMAP
01C0
0300
0600
0000
3F80
3F80
3000
2000
6000
6000
6000
6000
6000
4000
C000
ENDCHAR
STARTCHAR uni0405.c2sc
ENCODING -1
SWIDTH 504 0
DWIDTH 10 0
BBX 10 11 0 0
BITMAP
1F00
3F80
31C0
60C0
3C00
1F00
0380
C180
E180
7F00
3E00
ENDCHAR
STARTCHAR uni0406.c2sc
ENCODING -1
SWIDTH 235 0
DWIDTH 5 0
BBX 3 11 1 0
BITMAP
60
60
60
60
40
40
C0
C0
C0
C0
80
ENDCHAR
STARTCHAR uni0407.c2sc
ENCODING -1
SWIDTH 235 0
DWIDTH 5 0
BBX 6 14 1 0
BITMAP
CC
CC
00
60
60
60
60
40
40
C0
C0
C0
C0
80
ENDCHAR
STARTCHAR uni0408.c2sc
ENCODING -1
SWIDTH 466 0
DWIDTH 9 0
BBX 9 11 0 0
BITMAP
0180
0180
0100
0300
0300
0300
0300
C300
C600
FE00
3C00
ENDCHAR
STARTCHAR uni040C.c2sc
ENCODING -1
SWIDTH 529 0
DWIDTH 11 0
BBX 11 15 0 0
BITMAP
01C0
0300
0600
0000
3060
31C0
3380
3700
2C00
7C00
7600
6700
6300
6180
C1C0
ENDCHAR
STARTCHAR uni040E.c2sc
ENCODING -1
SWIDTH 504 0
DWIDTH 10 0
BBX 10 14 1 0
BITMAP
1100
0E00
0000
C1C0
6180
6300
6300
2600
3400
3C00
3800
3000
F000
E000
ENDCHAR
STARTCHAR uni0410.c2sc
ENCODING -1
SWIDTH 552 0
DWIDTH 11 0
BBX 11 11 -1 0
BITMAP
0300
0380
0780
0580
0C80
1880
18C0
3FC0
3FC0
6040
C060
ENDCHAR
STARTCHAR uni0412.c2sc
ENCODING -1
SWIDTH 527 0
DWIDTH 11 0
BBX 9 11 1 0
BITMAP
7F00
7F80
6180
6180
7F00
7F00
C300
C100
C300
FF00
FC00
ENDCHAR
STARTCHAR uni0413.c2sc
ENCODING -1
SWIDTH 451 0
DWIDTH 9 0
BBX 9 11 0 0
BITMAP
3F80
3F80
3000
2000
6000
6000
6000
6000
6000
4000
C000
ENDCHAR
STARTCHAR uni0415.c2sc
ENCODING -1
SWIDTH 477 0
DWIDTH 10 0
BBX 10 11 0 0
BITMAP
3FC0
3FC0
3000
3000
3F00
7F00
6000
6000
6000
7F00
FF00
ENDCHAR
STARTCHAR uni0419.c2sc
ENCODING -1
SWIDTH 601 0
DWIDTH 12 0
BBX 12 14 0 0
BITMAP
0440
0780
0000
3070
3060
30E0
21E0
6360
6660
6C40
78C0
70C0
60C0
C0C0
ENDCHAR
STARTCHAR uni041C.c2sc
ENCODING -1
SWIDTH 733 0
DWIDTH 15 0
BBX 14 11 0 0
BITMAP
380C
381C
381C
2C3C
2C6C
6C48
64D8
6798
6798
4718
C210
ENDCHAR
STARTCHAR uni041D.c2sc
ENCODING -1
SWIDTH 597 0
DWIDTH 12 0
BBX 12 11 0 0
BITMAP
3030
3060
3060
2060
7FE0
7FE0
6040
60C0
60C0
40C0
C0C0
ENDCHAR
STARTCHAR uni041E.c2sc
ENCODING -1
SWIDTH 578 0
DWIDTH 12 0
BBX 10 11 1 0
BITMAP
1F00
3F80
71C0
60C0
C0C0
C0C0
C0C0
C180
E380
7F00
3E00
ENDCHAR
STARTCHAR uni041F.c2sc
ENCODING -1
SWIDTH 587 0
DWIDTH 12 0
BBX 11 11 0 0
BITMAP
3FE0
3FE0
3060
3060
2060
6040
6040
60C0
60C0
40C0
C0C0
ENDCHAR
STARTCHAR uni0420.c2sc
ENCODING -1
SWIDTH 533 0
DWIDTH 11 0
BBX 10 11 0 0
BITMAP
3F80
3FC0
30C0
3040
20C0
7FC0
7F00
6000
6000
4000
C000
ENDCHAR
STARTCHAR uni0421.c2sc
ENCODING -1
SWIDTH 548 0
DWIDTH 11 0
BBX 10 11 1 0
BITMAP
1F00
3F80
6180
C0C0
C000
C000
C000
C180
C300
7F00
3C00
ENDCHAR
STARTCHAR uni0422.c2sc
ENCODING -1
SWIDTH 507 0
DWIDTH 10 0
BBX 10 11 1 0
BITMAP
FFC0
FF80
0C00
0800
1800
1800
1800
1800
1000
3000
3000
ENDCHAR
STARTCHAR uni0425.c2sc
ENCODING -1
SWIDTH 529 0
DWIDTH 11 0
BBX 12 11 -1 0
BITMAP
1830
1860
0CC0
0D80
0700
0700
0F00
0D00
1980
30C0
E0C0
ENDCHAR
STARTCHAR uni0498.c2sc
ENCODING -1
SWIDTH 519 0
DWIDTH 10 0
BBX 10 15 0 -4
BITMAP
1F00
3F80
70C0
0180
0F00
0F00
1180
0180
C180
7F00
3E00
1800
1000
3000
3000
ENDCHAR
STARTCHAR uni04A2.c2sc
ENCODING -1
SWIDTH 597 0
DWIDTH 12 0
BBX 12 15 0 -4
BITMAP
3030
3060
2060
2060
7FE0
7FC0
6040
60C0
40C0
40E0
C0E0
0060
0060
0060
0060
ENDCHAR
STARTCHAR uni04AA.c2sc
ENCODING -1
SWIDTH 548 0
DWIDTH 11 0
BBX 10 15 1 -4
BITMAP
1F00
3F80
7180
C0C0
C000
C000
C000
C180
C300
7F00
3C00
1000
1000
3000
3000
ENDCHAR
STARTCHAR uni04AE.c2sc
ENCODING -1
SWIDTH 510 0
DWIDTH 10 0
BBX 10 11 1 0
BITMAP
C1C0
4180
6300
6600
3600
3C00
1800
1000
3000
3000
3000
ENDCHAR
STARTCHAR uni04BE.c2sc
ENCODING -1
SWIDTH 703 0
DWIDTH 14 0
BBX 12 15 1 -4
BITMAP
07C0
0FF0
9C30
9010
FFF0
7FF0
3000
3000
1840
1FC0
0780
0600
0600
0600
0600
ENDCHAR
STARTCHAR uni04E2.c2sc
ENCODING -1
SWIDTH 601 0
DWIDTH 12 0
BBX 12 14 0 0
BITMAP
0FE0
0FE0
0000
3070
3060
30E0
21E0
6360
6660
6C40
78C0
70C0
60C0
C0C0
ENDCHAR
STARTCHAR uni04EE.c2sc
ENCODING -1
SWIDTH 504 0
DWIDTH 10 0
BBX 10 14 1 0
BITMAP
3F80
3F80
0000
C1C0
6180
6300
6300
2600
3400
3C00
3800
3000
F000
E000
ENDCHAR
STARTCHAR uni0424.c2sc
ENCODING -1
SWIDTH 660 0
DWIDTH 13 0
BBX 11 11 1 0
BITMAP
0600
1F80
7FC0
6660
C660
C460
CC60
CCC0
7FC0
3F00
0C00
ENDCHAR
STARTCHAR IJ.c2sc
ENCODING -1
SWIDTH 702 0
DWIDTH 14 0
BBX 13 11 1 0
BITMAP
6018
6010
6030
6030
4030
4030
C020
C860
CC60
CFC0
8780
ENDCHAR
STARTCHAR AEacute.c2sc
ENCODING -1
SWIDTH 759 0
DWIDTH 15 0
BBX 16 15 -1 0
BITMAP
001C
0038
0030
0000
00FF
01FF
0340
02C0
06FC
0CFC
18C0
1FC0
3F80
60FE
C1FC
ENDCHAR
STARTCHAR Oslashacute.c2sc
ENCODING -1
SWIDTH 578 0
DWIDTH 12 0
BBX 12 15 0 0
BITMAP
00C0
0180
0300
0000
0FB0
1FC0
38E0
31E0
6360
6660
6C60
68C0
71C0
3F80
DF00
ENDCHAR
STARTCHAR uni0218.c2sc
ENCODING -1
SWIDTH 504 0
DWIDTH 10 0
BBX 10 16 0 -5
BITMAP
1F00
3F80
31C0
60C0
3C00
1F00
0380
C180
E180
7F00
3E00
0000
1800
1800
3000
2000
ENDCHAR
STARTCHAR Wgrave.c2sc
ENCODING -1
SWIDTH 742 0
DWIDTH 15 0
BBX 14 15 1 0
BITMAP
0600
0300
0180
0000
C30C
430C
4708
4598
4590
4DB0
49B0
78A0
70E0
70C0
60C0
ENDCHAR
STARTCHAR Wacute.c2sc
ENCODING -1
SWIDTH 742 0
DWIDTH 15 0
BBX 14 15 1 0
BITMAP
00E0
01C0
0180
0000
C30C
430C
4708
4598
4590
4DB0
49B0
78A0
70E0
70C0
60C0
ENDCHAR
STARTCHAR Wdieresis.c2sc
ENCODING -1
SWIDTH 742 0
DWIDTH 15 0
BBX 14 14 1 0
BITMAP
0660
0660
0000
C30C
430C
4708
4598
4590
4DB0
49B0
78A0
70E0
70C0
60C0
ENDCHAR
STARTCHAR Ygrave.c2sc
ENCODING -1
SWIDTH 510 0
DWIDTH 10 0
BBX 10 15 1 0
BITMAP
1800
0C00
0C00
0000
C1C0
4180
6300
6600
3600
3C00
1800
1000
3000
3000
3000
ENDCHAR
STARTCHAR Aogonek.locl
ENCODING -1
SWIDTH 637 0
DWIDTH 13 0
BBX 12 18 -1 -4
BITMAP
00C0
01C0
01C0
0340
0640
0660
0C60
0C60
1820
1FE0
3FF0
3030
6030
C230
0C00
0C00
0800
0E00
ENDCHAR
STARTCHAR aogonek.locl
ENCODING -1
SWIDTH 532 0
DWIDTH 11 0
BBX 9 15 1 -4
BITMAP
1E00
7F00
6100
0180
3F00
7F00
C300
C300
C700
FF00
7B00
6000
C000
C000
E000
ENDCHAR
STARTCHAR Eogonek.locl
ENCODING -1
SWIDTH 556 0
DWIDTH 11 0
BBX 11 18 1 -4
BITMAP
3FE0
3FE0
3000
6000
6000
6000
7F80
7F80
4000
C000
C000
C000
FF80
FF00
3000
6000
6000
3000
ENDCHAR
STARTCHAR eogonek.locl
ENCODING -1
SWIDTH 518 0
DWIDTH 10 0
BBX 8 15 1 -4
BITMAP
1E
7F
63
C1
FF
FF
80
C0
C2
7F
3C
60
60
40
70
ENDCHAR
STARTCHAR Aogonek.c2sc.locl
ENCODING -1
SWIDTH 552 0
DWIDTH 11 0
BBX 11 15 -1 -4
BITMAP
0300
0380
0780
0580
0C80
1880
18C0
3FC0
3FC0
6040
C460
0800
1800
1000
1C00
ENDCHAR
STARTCHAR Eogonek.c2sc.locl
ENCODING -1
SWIDTH 477 0
DWIDTH 10 0
BBX 10 15 0 -4
BITMAP
3FC0
3FC0
3000
3000
3F00
7F00
6000
6000
6000
7F00
7F00
B000
6000
6000
3000
ENDCHAR
STARTCHAR glyph1293
ENCODING -1
SWIDTH 244 0
DWIDTH 5 0
BBX 4 14 0 -3
BITMAP
30
30
30
20
20
60
60
60
60
40
40
80
C0
C0
ENDCHAR
ENDFONT
